%TF.GenerationSoftware,KiCad,Pcbnew,9.0.0*%
%TF.CreationDate,2025-04-07T20:51:01+05:30*%
%TF.ProjectId,PCB layout for IoT-based Automatic Door System,50434220-6c61-4796-9f75-7420666f7220,rev?*%
%TF.SameCoordinates,Original*%
%TF.FileFunction,Drillmap*%
%TF.FilePolarity,Positive*%
%FSLAX45Y45*%
G04 Gerber Fmt 4.5, Leading zero omitted, Abs format (unit mm)*
G04 Created by KiCad (PCBNEW 9.0.0) date 2025-04-07 20:51:01*
%MOMM*%
%LPD*%
G01*
G04 APERTURE LIST*
%ADD10C,0.050000*%
%ADD11C,0.200000*%
%ADD12C,0.250000*%
G04 APERTURE END LIST*
D10*
X9400000Y-3000000D02*
X20100000Y-3000000D01*
X20100000Y-13850000D01*
X9400000Y-13850000D01*
X9400000Y-3000000D01*
D11*
D12*
X10490000Y-7440500D02*
X10740000Y-7690500D01*
X10740000Y-7440500D02*
X10490000Y-7690500D01*
X10640000Y-3840500D02*
X10890000Y-4090500D01*
X10890000Y-3840500D02*
X10640000Y-4090500D01*
X18240000Y-3840500D02*
X18490000Y-4090500D01*
X18490000Y-3840500D02*
X18240000Y-4090500D01*
X18390000Y-7440500D02*
X18640000Y-7690500D01*
X18640000Y-7440500D02*
X18390000Y-7690500D01*
D11*
X9658277Y-14163984D02*
X9658277Y-13963984D01*
X9658277Y-13963984D02*
X9705896Y-13963984D01*
X9705896Y-13963984D02*
X9734467Y-13973508D01*
X9734467Y-13973508D02*
X9753515Y-13992555D01*
X9753515Y-13992555D02*
X9763039Y-14011603D01*
X9763039Y-14011603D02*
X9772563Y-14049698D01*
X9772563Y-14049698D02*
X9772563Y-14078269D01*
X9772563Y-14078269D02*
X9763039Y-14116365D01*
X9763039Y-14116365D02*
X9753515Y-14135412D01*
X9753515Y-14135412D02*
X9734467Y-14154460D01*
X9734467Y-14154460D02*
X9705896Y-14163984D01*
X9705896Y-14163984D02*
X9658277Y-14163984D01*
X9858277Y-14163984D02*
X9858277Y-14030650D01*
X9858277Y-14068746D02*
X9867801Y-14049698D01*
X9867801Y-14049698D02*
X9877324Y-14040174D01*
X9877324Y-14040174D02*
X9896372Y-14030650D01*
X9896372Y-14030650D02*
X9915420Y-14030650D01*
X9982086Y-14163984D02*
X9982086Y-14030650D01*
X9982086Y-13963984D02*
X9972563Y-13973508D01*
X9972563Y-13973508D02*
X9982086Y-13983031D01*
X9982086Y-13983031D02*
X9991610Y-13973508D01*
X9991610Y-13973508D02*
X9982086Y-13963984D01*
X9982086Y-13963984D02*
X9982086Y-13983031D01*
X10105896Y-14163984D02*
X10086848Y-14154460D01*
X10086848Y-14154460D02*
X10077324Y-14135412D01*
X10077324Y-14135412D02*
X10077324Y-13963984D01*
X10210658Y-14163984D02*
X10191610Y-14154460D01*
X10191610Y-14154460D02*
X10182086Y-14135412D01*
X10182086Y-14135412D02*
X10182086Y-13963984D01*
X10439229Y-14163984D02*
X10439229Y-13963984D01*
X10439229Y-13963984D02*
X10505896Y-14106841D01*
X10505896Y-14106841D02*
X10572563Y-13963984D01*
X10572563Y-13963984D02*
X10572563Y-14163984D01*
X10753515Y-14163984D02*
X10753515Y-14059222D01*
X10753515Y-14059222D02*
X10743991Y-14040174D01*
X10743991Y-14040174D02*
X10724944Y-14030650D01*
X10724944Y-14030650D02*
X10686848Y-14030650D01*
X10686848Y-14030650D02*
X10667801Y-14040174D01*
X10753515Y-14154460D02*
X10734467Y-14163984D01*
X10734467Y-14163984D02*
X10686848Y-14163984D01*
X10686848Y-14163984D02*
X10667801Y-14154460D01*
X10667801Y-14154460D02*
X10658277Y-14135412D01*
X10658277Y-14135412D02*
X10658277Y-14116365D01*
X10658277Y-14116365D02*
X10667801Y-14097317D01*
X10667801Y-14097317D02*
X10686848Y-14087793D01*
X10686848Y-14087793D02*
X10734467Y-14087793D01*
X10734467Y-14087793D02*
X10753515Y-14078269D01*
X10848753Y-14030650D02*
X10848753Y-14230650D01*
X10848753Y-14040174D02*
X10867801Y-14030650D01*
X10867801Y-14030650D02*
X10905896Y-14030650D01*
X10905896Y-14030650D02*
X10924944Y-14040174D01*
X10924944Y-14040174D02*
X10934467Y-14049698D01*
X10934467Y-14049698D02*
X10943991Y-14068746D01*
X10943991Y-14068746D02*
X10943991Y-14125888D01*
X10943991Y-14125888D02*
X10934467Y-14144936D01*
X10934467Y-14144936D02*
X10924944Y-14154460D01*
X10924944Y-14154460D02*
X10905896Y-14163984D01*
X10905896Y-14163984D02*
X10867801Y-14163984D01*
X10867801Y-14163984D02*
X10848753Y-14154460D01*
X11029705Y-14144936D02*
X11039229Y-14154460D01*
X11039229Y-14154460D02*
X11029705Y-14163984D01*
X11029705Y-14163984D02*
X11020182Y-14154460D01*
X11020182Y-14154460D02*
X11029705Y-14144936D01*
X11029705Y-14144936D02*
X11029705Y-14163984D01*
X11029705Y-14040174D02*
X11039229Y-14049698D01*
X11039229Y-14049698D02*
X11029705Y-14059222D01*
X11029705Y-14059222D02*
X11020182Y-14049698D01*
X11020182Y-14049698D02*
X11029705Y-14040174D01*
X11029705Y-14040174D02*
X11029705Y-14059222D01*
X9197500Y-14392500D02*
X9397500Y-14592500D01*
X9397500Y-14392500D02*
X9197500Y-14592500D01*
X9648753Y-14403031D02*
X9658277Y-14393508D01*
X9658277Y-14393508D02*
X9677324Y-14383984D01*
X9677324Y-14383984D02*
X9724944Y-14383984D01*
X9724944Y-14383984D02*
X9743991Y-14393508D01*
X9743991Y-14393508D02*
X9753515Y-14403031D01*
X9753515Y-14403031D02*
X9763039Y-14422079D01*
X9763039Y-14422079D02*
X9763039Y-14441127D01*
X9763039Y-14441127D02*
X9753515Y-14469698D01*
X9753515Y-14469698D02*
X9639229Y-14583984D01*
X9639229Y-14583984D02*
X9763039Y-14583984D01*
X9848753Y-14564936D02*
X9858277Y-14574460D01*
X9858277Y-14574460D02*
X9848753Y-14583984D01*
X9848753Y-14583984D02*
X9839229Y-14574460D01*
X9839229Y-14574460D02*
X9848753Y-14564936D01*
X9848753Y-14564936D02*
X9848753Y-14583984D01*
X10039229Y-14383984D02*
X9943991Y-14383984D01*
X9943991Y-14383984D02*
X9934467Y-14479222D01*
X9934467Y-14479222D02*
X9943991Y-14469698D01*
X9943991Y-14469698D02*
X9963039Y-14460174D01*
X9963039Y-14460174D02*
X10010658Y-14460174D01*
X10010658Y-14460174D02*
X10029705Y-14469698D01*
X10029705Y-14469698D02*
X10039229Y-14479222D01*
X10039229Y-14479222D02*
X10048753Y-14498269D01*
X10048753Y-14498269D02*
X10048753Y-14545888D01*
X10048753Y-14545888D02*
X10039229Y-14564936D01*
X10039229Y-14564936D02*
X10029705Y-14574460D01*
X10029705Y-14574460D02*
X10010658Y-14583984D01*
X10010658Y-14583984D02*
X9963039Y-14583984D01*
X9963039Y-14583984D02*
X9943991Y-14574460D01*
X9943991Y-14574460D02*
X9934467Y-14564936D01*
X10172563Y-14383984D02*
X10191610Y-14383984D01*
X10191610Y-14383984D02*
X10210658Y-14393508D01*
X10210658Y-14393508D02*
X10220182Y-14403031D01*
X10220182Y-14403031D02*
X10229705Y-14422079D01*
X10229705Y-14422079D02*
X10239229Y-14460174D01*
X10239229Y-14460174D02*
X10239229Y-14507793D01*
X10239229Y-14507793D02*
X10229705Y-14545888D01*
X10229705Y-14545888D02*
X10220182Y-14564936D01*
X10220182Y-14564936D02*
X10210658Y-14574460D01*
X10210658Y-14574460D02*
X10191610Y-14583984D01*
X10191610Y-14583984D02*
X10172563Y-14583984D01*
X10172563Y-14583984D02*
X10153515Y-14574460D01*
X10153515Y-14574460D02*
X10143991Y-14564936D01*
X10143991Y-14564936D02*
X10134467Y-14545888D01*
X10134467Y-14545888D02*
X10124944Y-14507793D01*
X10124944Y-14507793D02*
X10124944Y-14460174D01*
X10124944Y-14460174D02*
X10134467Y-14422079D01*
X10134467Y-14422079D02*
X10143991Y-14403031D01*
X10143991Y-14403031D02*
X10153515Y-14393508D01*
X10153515Y-14393508D02*
X10172563Y-14383984D01*
X10363039Y-14383984D02*
X10382086Y-14383984D01*
X10382086Y-14383984D02*
X10401134Y-14393508D01*
X10401134Y-14393508D02*
X10410658Y-14403031D01*
X10410658Y-14403031D02*
X10420182Y-14422079D01*
X10420182Y-14422079D02*
X10429705Y-14460174D01*
X10429705Y-14460174D02*
X10429705Y-14507793D01*
X10429705Y-14507793D02*
X10420182Y-14545888D01*
X10420182Y-14545888D02*
X10410658Y-14564936D01*
X10410658Y-14564936D02*
X10401134Y-14574460D01*
X10401134Y-14574460D02*
X10382086Y-14583984D01*
X10382086Y-14583984D02*
X10363039Y-14583984D01*
X10363039Y-14583984D02*
X10343991Y-14574460D01*
X10343991Y-14574460D02*
X10334467Y-14564936D01*
X10334467Y-14564936D02*
X10324944Y-14545888D01*
X10324944Y-14545888D02*
X10315420Y-14507793D01*
X10315420Y-14507793D02*
X10315420Y-14460174D01*
X10315420Y-14460174D02*
X10324944Y-14422079D01*
X10324944Y-14422079D02*
X10334467Y-14403031D01*
X10334467Y-14403031D02*
X10343991Y-14393508D01*
X10343991Y-14393508D02*
X10363039Y-14383984D01*
X10515420Y-14583984D02*
X10515420Y-14450650D01*
X10515420Y-14469698D02*
X10524944Y-14460174D01*
X10524944Y-14460174D02*
X10543991Y-14450650D01*
X10543991Y-14450650D02*
X10572563Y-14450650D01*
X10572563Y-14450650D02*
X10591610Y-14460174D01*
X10591610Y-14460174D02*
X10601134Y-14479222D01*
X10601134Y-14479222D02*
X10601134Y-14583984D01*
X10601134Y-14479222D02*
X10610658Y-14460174D01*
X10610658Y-14460174D02*
X10629705Y-14450650D01*
X10629705Y-14450650D02*
X10658277Y-14450650D01*
X10658277Y-14450650D02*
X10677325Y-14460174D01*
X10677325Y-14460174D02*
X10686848Y-14479222D01*
X10686848Y-14479222D02*
X10686848Y-14583984D01*
X10782086Y-14583984D02*
X10782086Y-14450650D01*
X10782086Y-14469698D02*
X10791610Y-14460174D01*
X10791610Y-14460174D02*
X10810658Y-14450650D01*
X10810658Y-14450650D02*
X10839229Y-14450650D01*
X10839229Y-14450650D02*
X10858277Y-14460174D01*
X10858277Y-14460174D02*
X10867801Y-14479222D01*
X10867801Y-14479222D02*
X10867801Y-14583984D01*
X10867801Y-14479222D02*
X10877325Y-14460174D01*
X10877325Y-14460174D02*
X10896372Y-14450650D01*
X10896372Y-14450650D02*
X10924944Y-14450650D01*
X10924944Y-14450650D02*
X10943991Y-14460174D01*
X10943991Y-14460174D02*
X10953515Y-14479222D01*
X10953515Y-14479222D02*
X10953515Y-14583984D01*
X11343991Y-14374460D02*
X11172563Y-14631603D01*
X11601134Y-14383984D02*
X11620182Y-14383984D01*
X11620182Y-14383984D02*
X11639229Y-14393508D01*
X11639229Y-14393508D02*
X11648753Y-14403031D01*
X11648753Y-14403031D02*
X11658277Y-14422079D01*
X11658277Y-14422079D02*
X11667801Y-14460174D01*
X11667801Y-14460174D02*
X11667801Y-14507793D01*
X11667801Y-14507793D02*
X11658277Y-14545888D01*
X11658277Y-14545888D02*
X11648753Y-14564936D01*
X11648753Y-14564936D02*
X11639229Y-14574460D01*
X11639229Y-14574460D02*
X11620182Y-14583984D01*
X11620182Y-14583984D02*
X11601134Y-14583984D01*
X11601134Y-14583984D02*
X11582086Y-14574460D01*
X11582086Y-14574460D02*
X11572563Y-14564936D01*
X11572563Y-14564936D02*
X11563039Y-14545888D01*
X11563039Y-14545888D02*
X11553515Y-14507793D01*
X11553515Y-14507793D02*
X11553515Y-14460174D01*
X11553515Y-14460174D02*
X11563039Y-14422079D01*
X11563039Y-14422079D02*
X11572563Y-14403031D01*
X11572563Y-14403031D02*
X11582086Y-14393508D01*
X11582086Y-14393508D02*
X11601134Y-14383984D01*
X11753515Y-14564936D02*
X11763039Y-14574460D01*
X11763039Y-14574460D02*
X11753515Y-14583984D01*
X11753515Y-14583984D02*
X11743991Y-14574460D01*
X11743991Y-14574460D02*
X11753515Y-14564936D01*
X11753515Y-14564936D02*
X11753515Y-14583984D01*
X11886848Y-14383984D02*
X11905896Y-14383984D01*
X11905896Y-14383984D02*
X11924944Y-14393508D01*
X11924944Y-14393508D02*
X11934467Y-14403031D01*
X11934467Y-14403031D02*
X11943991Y-14422079D01*
X11943991Y-14422079D02*
X11953515Y-14460174D01*
X11953515Y-14460174D02*
X11953515Y-14507793D01*
X11953515Y-14507793D02*
X11943991Y-14545888D01*
X11943991Y-14545888D02*
X11934467Y-14564936D01*
X11934467Y-14564936D02*
X11924944Y-14574460D01*
X11924944Y-14574460D02*
X11905896Y-14583984D01*
X11905896Y-14583984D02*
X11886848Y-14583984D01*
X11886848Y-14583984D02*
X11867801Y-14574460D01*
X11867801Y-14574460D02*
X11858277Y-14564936D01*
X11858277Y-14564936D02*
X11848753Y-14545888D01*
X11848753Y-14545888D02*
X11839229Y-14507793D01*
X11839229Y-14507793D02*
X11839229Y-14460174D01*
X11839229Y-14460174D02*
X11848753Y-14422079D01*
X11848753Y-14422079D02*
X11858277Y-14403031D01*
X11858277Y-14403031D02*
X11867801Y-14393508D01*
X11867801Y-14393508D02*
X11886848Y-14383984D01*
X12048753Y-14583984D02*
X12086848Y-14583984D01*
X12086848Y-14583984D02*
X12105896Y-14574460D01*
X12105896Y-14574460D02*
X12115420Y-14564936D01*
X12115420Y-14564936D02*
X12134467Y-14536365D01*
X12134467Y-14536365D02*
X12143991Y-14498269D01*
X12143991Y-14498269D02*
X12143991Y-14422079D01*
X12143991Y-14422079D02*
X12134467Y-14403031D01*
X12134467Y-14403031D02*
X12124944Y-14393508D01*
X12124944Y-14393508D02*
X12105896Y-14383984D01*
X12105896Y-14383984D02*
X12067801Y-14383984D01*
X12067801Y-14383984D02*
X12048753Y-14393508D01*
X12048753Y-14393508D02*
X12039229Y-14403031D01*
X12039229Y-14403031D02*
X12029706Y-14422079D01*
X12029706Y-14422079D02*
X12029706Y-14469698D01*
X12029706Y-14469698D02*
X12039229Y-14488746D01*
X12039229Y-14488746D02*
X12048753Y-14498269D01*
X12048753Y-14498269D02*
X12067801Y-14507793D01*
X12067801Y-14507793D02*
X12105896Y-14507793D01*
X12105896Y-14507793D02*
X12124944Y-14498269D01*
X12124944Y-14498269D02*
X12134467Y-14488746D01*
X12134467Y-14488746D02*
X12143991Y-14469698D01*
X12258277Y-14469698D02*
X12239229Y-14460174D01*
X12239229Y-14460174D02*
X12229706Y-14450650D01*
X12229706Y-14450650D02*
X12220182Y-14431603D01*
X12220182Y-14431603D02*
X12220182Y-14422079D01*
X12220182Y-14422079D02*
X12229706Y-14403031D01*
X12229706Y-14403031D02*
X12239229Y-14393508D01*
X12239229Y-14393508D02*
X12258277Y-14383984D01*
X12258277Y-14383984D02*
X12296372Y-14383984D01*
X12296372Y-14383984D02*
X12315420Y-14393508D01*
X12315420Y-14393508D02*
X12324944Y-14403031D01*
X12324944Y-14403031D02*
X12334467Y-14422079D01*
X12334467Y-14422079D02*
X12334467Y-14431603D01*
X12334467Y-14431603D02*
X12324944Y-14450650D01*
X12324944Y-14450650D02*
X12315420Y-14460174D01*
X12315420Y-14460174D02*
X12296372Y-14469698D01*
X12296372Y-14469698D02*
X12258277Y-14469698D01*
X12258277Y-14469698D02*
X12239229Y-14479222D01*
X12239229Y-14479222D02*
X12229706Y-14488746D01*
X12229706Y-14488746D02*
X12220182Y-14507793D01*
X12220182Y-14507793D02*
X12220182Y-14545888D01*
X12220182Y-14545888D02*
X12229706Y-14564936D01*
X12229706Y-14564936D02*
X12239229Y-14574460D01*
X12239229Y-14574460D02*
X12258277Y-14583984D01*
X12258277Y-14583984D02*
X12296372Y-14583984D01*
X12296372Y-14583984D02*
X12315420Y-14574460D01*
X12315420Y-14574460D02*
X12324944Y-14564936D01*
X12324944Y-14564936D02*
X12334467Y-14545888D01*
X12334467Y-14545888D02*
X12334467Y-14507793D01*
X12334467Y-14507793D02*
X12324944Y-14488746D01*
X12324944Y-14488746D02*
X12315420Y-14479222D01*
X12315420Y-14479222D02*
X12296372Y-14469698D01*
X12505896Y-14450650D02*
X12505896Y-14583984D01*
X12458277Y-14374460D02*
X12410658Y-14517317D01*
X12410658Y-14517317D02*
X12534467Y-14517317D01*
X12601134Y-14383984D02*
X12601134Y-14422079D01*
X12677325Y-14383984D02*
X12677325Y-14422079D01*
X12972563Y-14660174D02*
X12963039Y-14650650D01*
X12963039Y-14650650D02*
X12943991Y-14622079D01*
X12943991Y-14622079D02*
X12934468Y-14603031D01*
X12934468Y-14603031D02*
X12924944Y-14574460D01*
X12924944Y-14574460D02*
X12915420Y-14526841D01*
X12915420Y-14526841D02*
X12915420Y-14488746D01*
X12915420Y-14488746D02*
X12924944Y-14441127D01*
X12924944Y-14441127D02*
X12934468Y-14412555D01*
X12934468Y-14412555D02*
X12943991Y-14393508D01*
X12943991Y-14393508D02*
X12963039Y-14364936D01*
X12963039Y-14364936D02*
X12972563Y-14355412D01*
X13134468Y-14450650D02*
X13134468Y-14583984D01*
X13086848Y-14374460D02*
X13039229Y-14517317D01*
X13039229Y-14517317D02*
X13163039Y-14517317D01*
X13391610Y-14583984D02*
X13391610Y-14383984D01*
X13477325Y-14583984D02*
X13477325Y-14479222D01*
X13477325Y-14479222D02*
X13467801Y-14460174D01*
X13467801Y-14460174D02*
X13448753Y-14450650D01*
X13448753Y-14450650D02*
X13420182Y-14450650D01*
X13420182Y-14450650D02*
X13401134Y-14460174D01*
X13401134Y-14460174D02*
X13391610Y-14469698D01*
X13601134Y-14583984D02*
X13582087Y-14574460D01*
X13582087Y-14574460D02*
X13572563Y-14564936D01*
X13572563Y-14564936D02*
X13563039Y-14545888D01*
X13563039Y-14545888D02*
X13563039Y-14488746D01*
X13563039Y-14488746D02*
X13572563Y-14469698D01*
X13572563Y-14469698D02*
X13582087Y-14460174D01*
X13582087Y-14460174D02*
X13601134Y-14450650D01*
X13601134Y-14450650D02*
X13629706Y-14450650D01*
X13629706Y-14450650D02*
X13648753Y-14460174D01*
X13648753Y-14460174D02*
X13658277Y-14469698D01*
X13658277Y-14469698D02*
X13667801Y-14488746D01*
X13667801Y-14488746D02*
X13667801Y-14545888D01*
X13667801Y-14545888D02*
X13658277Y-14564936D01*
X13658277Y-14564936D02*
X13648753Y-14574460D01*
X13648753Y-14574460D02*
X13629706Y-14583984D01*
X13629706Y-14583984D02*
X13601134Y-14583984D01*
X13782087Y-14583984D02*
X13763039Y-14574460D01*
X13763039Y-14574460D02*
X13753515Y-14555412D01*
X13753515Y-14555412D02*
X13753515Y-14383984D01*
X13934468Y-14574460D02*
X13915420Y-14583984D01*
X13915420Y-14583984D02*
X13877325Y-14583984D01*
X13877325Y-14583984D02*
X13858277Y-14574460D01*
X13858277Y-14574460D02*
X13848753Y-14555412D01*
X13848753Y-14555412D02*
X13848753Y-14479222D01*
X13848753Y-14479222D02*
X13858277Y-14460174D01*
X13858277Y-14460174D02*
X13877325Y-14450650D01*
X13877325Y-14450650D02*
X13915420Y-14450650D01*
X13915420Y-14450650D02*
X13934468Y-14460174D01*
X13934468Y-14460174D02*
X13943991Y-14479222D01*
X13943991Y-14479222D02*
X13943991Y-14498269D01*
X13943991Y-14498269D02*
X13848753Y-14517317D01*
X14020182Y-14574460D02*
X14039230Y-14583984D01*
X14039230Y-14583984D02*
X14077325Y-14583984D01*
X14077325Y-14583984D02*
X14096372Y-14574460D01*
X14096372Y-14574460D02*
X14105896Y-14555412D01*
X14105896Y-14555412D02*
X14105896Y-14545888D01*
X14105896Y-14545888D02*
X14096372Y-14526841D01*
X14096372Y-14526841D02*
X14077325Y-14517317D01*
X14077325Y-14517317D02*
X14048753Y-14517317D01*
X14048753Y-14517317D02*
X14029706Y-14507793D01*
X14029706Y-14507793D02*
X14020182Y-14488746D01*
X14020182Y-14488746D02*
X14020182Y-14479222D01*
X14020182Y-14479222D02*
X14029706Y-14460174D01*
X14029706Y-14460174D02*
X14048753Y-14450650D01*
X14048753Y-14450650D02*
X14077325Y-14450650D01*
X14077325Y-14450650D02*
X14096372Y-14460174D01*
X14172563Y-14660174D02*
X14182087Y-14650650D01*
X14182087Y-14650650D02*
X14201134Y-14622079D01*
X14201134Y-14622079D02*
X14210658Y-14603031D01*
X14210658Y-14603031D02*
X14220182Y-14574460D01*
X14220182Y-14574460D02*
X14229706Y-14526841D01*
X14229706Y-14526841D02*
X14229706Y-14488746D01*
X14229706Y-14488746D02*
X14220182Y-14441127D01*
X14220182Y-14441127D02*
X14210658Y-14412555D01*
X14210658Y-14412555D02*
X14201134Y-14393508D01*
X14201134Y-14393508D02*
X14182087Y-14364936D01*
X14182087Y-14364936D02*
X14172563Y-14355412D01*
X14534468Y-14660174D02*
X14524944Y-14650650D01*
X14524944Y-14650650D02*
X14505896Y-14622079D01*
X14505896Y-14622079D02*
X14496372Y-14603031D01*
X14496372Y-14603031D02*
X14486849Y-14574460D01*
X14486849Y-14574460D02*
X14477325Y-14526841D01*
X14477325Y-14526841D02*
X14477325Y-14488746D01*
X14477325Y-14488746D02*
X14486849Y-14441127D01*
X14486849Y-14441127D02*
X14496372Y-14412555D01*
X14496372Y-14412555D02*
X14505896Y-14393508D01*
X14505896Y-14393508D02*
X14524944Y-14364936D01*
X14524944Y-14364936D02*
X14534468Y-14355412D01*
X14610658Y-14450650D02*
X14610658Y-14583984D01*
X14610658Y-14469698D02*
X14620182Y-14460174D01*
X14620182Y-14460174D02*
X14639230Y-14450650D01*
X14639230Y-14450650D02*
X14667801Y-14450650D01*
X14667801Y-14450650D02*
X14686849Y-14460174D01*
X14686849Y-14460174D02*
X14696372Y-14479222D01*
X14696372Y-14479222D02*
X14696372Y-14583984D01*
X14820182Y-14583984D02*
X14801134Y-14574460D01*
X14801134Y-14574460D02*
X14791611Y-14564936D01*
X14791611Y-14564936D02*
X14782087Y-14545888D01*
X14782087Y-14545888D02*
X14782087Y-14488746D01*
X14782087Y-14488746D02*
X14791611Y-14469698D01*
X14791611Y-14469698D02*
X14801134Y-14460174D01*
X14801134Y-14460174D02*
X14820182Y-14450650D01*
X14820182Y-14450650D02*
X14848753Y-14450650D01*
X14848753Y-14450650D02*
X14867801Y-14460174D01*
X14867801Y-14460174D02*
X14877325Y-14469698D01*
X14877325Y-14469698D02*
X14886849Y-14488746D01*
X14886849Y-14488746D02*
X14886849Y-14545888D01*
X14886849Y-14545888D02*
X14877325Y-14564936D01*
X14877325Y-14564936D02*
X14867801Y-14574460D01*
X14867801Y-14574460D02*
X14848753Y-14583984D01*
X14848753Y-14583984D02*
X14820182Y-14583984D01*
X14943992Y-14450650D02*
X15020182Y-14450650D01*
X14972563Y-14383984D02*
X14972563Y-14555412D01*
X14972563Y-14555412D02*
X14982087Y-14574460D01*
X14982087Y-14574460D02*
X15001134Y-14583984D01*
X15001134Y-14583984D02*
X15020182Y-14583984D01*
X15239230Y-14450650D02*
X15239230Y-14650650D01*
X15239230Y-14460174D02*
X15258277Y-14450650D01*
X15258277Y-14450650D02*
X15296373Y-14450650D01*
X15296373Y-14450650D02*
X15315420Y-14460174D01*
X15315420Y-14460174D02*
X15324944Y-14469698D01*
X15324944Y-14469698D02*
X15334468Y-14488746D01*
X15334468Y-14488746D02*
X15334468Y-14545888D01*
X15334468Y-14545888D02*
X15324944Y-14564936D01*
X15324944Y-14564936D02*
X15315420Y-14574460D01*
X15315420Y-14574460D02*
X15296373Y-14583984D01*
X15296373Y-14583984D02*
X15258277Y-14583984D01*
X15258277Y-14583984D02*
X15239230Y-14574460D01*
X15448753Y-14583984D02*
X15429706Y-14574460D01*
X15429706Y-14574460D02*
X15420182Y-14555412D01*
X15420182Y-14555412D02*
X15420182Y-14383984D01*
X15610658Y-14583984D02*
X15610658Y-14479222D01*
X15610658Y-14479222D02*
X15601134Y-14460174D01*
X15601134Y-14460174D02*
X15582087Y-14450650D01*
X15582087Y-14450650D02*
X15543992Y-14450650D01*
X15543992Y-14450650D02*
X15524944Y-14460174D01*
X15610658Y-14574460D02*
X15591611Y-14583984D01*
X15591611Y-14583984D02*
X15543992Y-14583984D01*
X15543992Y-14583984D02*
X15524944Y-14574460D01*
X15524944Y-14574460D02*
X15515420Y-14555412D01*
X15515420Y-14555412D02*
X15515420Y-14536365D01*
X15515420Y-14536365D02*
X15524944Y-14517317D01*
X15524944Y-14517317D02*
X15543992Y-14507793D01*
X15543992Y-14507793D02*
X15591611Y-14507793D01*
X15591611Y-14507793D02*
X15610658Y-14498269D01*
X15677325Y-14450650D02*
X15753515Y-14450650D01*
X15705896Y-14383984D02*
X15705896Y-14555412D01*
X15705896Y-14555412D02*
X15715420Y-14574460D01*
X15715420Y-14574460D02*
X15734468Y-14583984D01*
X15734468Y-14583984D02*
X15753515Y-14583984D01*
X15896373Y-14574460D02*
X15877325Y-14583984D01*
X15877325Y-14583984D02*
X15839230Y-14583984D01*
X15839230Y-14583984D02*
X15820182Y-14574460D01*
X15820182Y-14574460D02*
X15810658Y-14555412D01*
X15810658Y-14555412D02*
X15810658Y-14479222D01*
X15810658Y-14479222D02*
X15820182Y-14460174D01*
X15820182Y-14460174D02*
X15839230Y-14450650D01*
X15839230Y-14450650D02*
X15877325Y-14450650D01*
X15877325Y-14450650D02*
X15896373Y-14460174D01*
X15896373Y-14460174D02*
X15905896Y-14479222D01*
X15905896Y-14479222D02*
X15905896Y-14498269D01*
X15905896Y-14498269D02*
X15810658Y-14517317D01*
X16077325Y-14583984D02*
X16077325Y-14383984D01*
X16077325Y-14574460D02*
X16058277Y-14583984D01*
X16058277Y-14583984D02*
X16020182Y-14583984D01*
X16020182Y-14583984D02*
X16001134Y-14574460D01*
X16001134Y-14574460D02*
X15991611Y-14564936D01*
X15991611Y-14564936D02*
X15982087Y-14545888D01*
X15982087Y-14545888D02*
X15982087Y-14488746D01*
X15982087Y-14488746D02*
X15991611Y-14469698D01*
X15991611Y-14469698D02*
X16001134Y-14460174D01*
X16001134Y-14460174D02*
X16020182Y-14450650D01*
X16020182Y-14450650D02*
X16058277Y-14450650D01*
X16058277Y-14450650D02*
X16077325Y-14460174D01*
X16153515Y-14660174D02*
X16163039Y-14650650D01*
X16163039Y-14650650D02*
X16182087Y-14622079D01*
X16182087Y-14622079D02*
X16191611Y-14603031D01*
X16191611Y-14603031D02*
X16201134Y-14574460D01*
X16201134Y-14574460D02*
X16210658Y-14526841D01*
X16210658Y-14526841D02*
X16210658Y-14488746D01*
X16210658Y-14488746D02*
X16201134Y-14441127D01*
X16201134Y-14441127D02*
X16191611Y-14412555D01*
X16191611Y-14412555D02*
X16182087Y-14393508D01*
X16182087Y-14393508D02*
X16163039Y-14364936D01*
X16163039Y-14364936D02*
X16153515Y-14355412D01*
M02*
