%TF.GenerationSoftware,KiCad,Pcbnew,9.0.0*%
%TF.CreationDate,2025-04-07T20:51:01+05:30*%
%TF.ProjectId,PCB layout for IoT-based Automatic Door System,50434220-6c61-4796-9f75-7420666f7220,rev?*%
%TF.SameCoordinates,Original*%
%TF.FileFunction,Drillmap*%
%TF.FilePolarity,Positive*%
%FSLAX45Y45*%
G04 Gerber Fmt 4.5, Leading zero omitted, Abs format (unit mm)*
G04 Created by KiCad (PCBNEW 9.0.0) date 2025-04-07 20:51:01*
%MOMM*%
%LPD*%
G01*
G04 APERTURE LIST*
%ADD10C,0.050000*%
%ADD11C,0.200000*%
%ADD12C,0.100000*%
%ADD13C,0.102000*%
%ADD14C,0.120000*%
G04 APERTURE END LIST*
D10*
X9400000Y-3000000D02*
X20100000Y-3000000D01*
X20100000Y-13850000D01*
X9400000Y-13850000D01*
X9400000Y-3000000D01*
D11*
D12*
X16835000Y-8935000D02*
X16865000Y-8965000D01*
X16865000Y-8935000D02*
X16835000Y-8965000D01*
X17285000Y-9285000D02*
X17315000Y-9315000D01*
X17315000Y-9285000D02*
X17285000Y-9315000D01*
X10565000Y-5417500D02*
G75*
G02*
X10465000Y-5417500I-50000J0D01*
G01*
X10465000Y-5417500D02*
G75*
G02*
X10565000Y-5417500I50000J0D01*
G01*
X10565000Y-5671500D02*
G75*
G02*
X10465000Y-5671500I-50000J0D01*
G01*
X10465000Y-5671500D02*
G75*
G02*
X10565000Y-5671500I50000J0D01*
G01*
X10565000Y-6179500D02*
G75*
G02*
X10465000Y-6179500I-50000J0D01*
G01*
X10465000Y-6179500D02*
G75*
G02*
X10565000Y-6179500I50000J0D01*
G01*
X10565000Y-6433500D02*
G75*
G02*
X10465000Y-6433500I-50000J0D01*
G01*
X10465000Y-6433500D02*
G75*
G02*
X10565000Y-6433500I50000J0D01*
G01*
X10819000Y-5671500D02*
G75*
G02*
X10719000Y-5671500I-50000J0D01*
G01*
X10719000Y-5671500D02*
G75*
G02*
X10819000Y-5671500I50000J0D01*
G01*
X10819000Y-6179500D02*
G75*
G02*
X10719000Y-6179500I-50000J0D01*
G01*
X10719000Y-6179500D02*
G75*
G02*
X10819000Y-6179500I50000J0D01*
G01*
X12930000Y-13200000D02*
G75*
G02*
X12830000Y-13200000I-50000J0D01*
G01*
X12830000Y-13200000D02*
G75*
G02*
X12930000Y-13200000I50000J0D01*
G01*
X13184000Y-13200000D02*
G75*
G02*
X13084000Y-13200000I-50000J0D01*
G01*
X13084000Y-13200000D02*
G75*
G02*
X13184000Y-13200000I50000J0D01*
G01*
X13438000Y-13200000D02*
G75*
G02*
X13338000Y-13200000I-50000J0D01*
G01*
X13338000Y-13200000D02*
G75*
G02*
X13438000Y-13200000I50000J0D01*
G01*
X13692000Y-13200000D02*
G75*
G02*
X13592000Y-13200000I-50000J0D01*
G01*
X13592000Y-13200000D02*
G75*
G02*
X13692000Y-13200000I50000J0D01*
G01*
X13844000Y-8374000D02*
G75*
G02*
X13744000Y-8374000I-50000J0D01*
G01*
X13744000Y-8374000D02*
G75*
G02*
X13844000Y-8374000I50000J0D01*
G01*
X13946000Y-13200000D02*
G75*
G02*
X13846000Y-13200000I-50000J0D01*
G01*
X13846000Y-13200000D02*
G75*
G02*
X13946000Y-13200000I50000J0D01*
G01*
X14098000Y-8374000D02*
G75*
G02*
X13998000Y-8374000I-50000J0D01*
G01*
X13998000Y-8374000D02*
G75*
G02*
X14098000Y-8374000I50000J0D01*
G01*
X14200000Y-13200000D02*
G75*
G02*
X14100000Y-13200000I-50000J0D01*
G01*
X14100000Y-13200000D02*
G75*
G02*
X14200000Y-13200000I50000J0D01*
G01*
X14352000Y-8374000D02*
G75*
G02*
X14252000Y-8374000I-50000J0D01*
G01*
X14252000Y-8374000D02*
G75*
G02*
X14352000Y-8374000I50000J0D01*
G01*
X14454000Y-13200000D02*
G75*
G02*
X14354000Y-13200000I-50000J0D01*
G01*
X14354000Y-13200000D02*
G75*
G02*
X14454000Y-13200000I50000J0D01*
G01*
X14606000Y-8374000D02*
G75*
G02*
X14506000Y-8374000I-50000J0D01*
G01*
X14506000Y-8374000D02*
G75*
G02*
X14606000Y-8374000I50000J0D01*
G01*
X14708000Y-13200000D02*
G75*
G02*
X14608000Y-13200000I-50000J0D01*
G01*
X14608000Y-13200000D02*
G75*
G02*
X14708000Y-13200000I50000J0D01*
G01*
X14860000Y-8374000D02*
G75*
G02*
X14760000Y-8374000I-50000J0D01*
G01*
X14760000Y-8374000D02*
G75*
G02*
X14860000Y-8374000I50000J0D01*
G01*
X14962000Y-13200000D02*
G75*
G02*
X14862000Y-13200000I-50000J0D01*
G01*
X14862000Y-13200000D02*
G75*
G02*
X14962000Y-13200000I50000J0D01*
G01*
X15114000Y-8374000D02*
G75*
G02*
X15014000Y-8374000I-50000J0D01*
G01*
X15014000Y-8374000D02*
G75*
G02*
X15114000Y-8374000I50000J0D01*
G01*
X15216000Y-13200000D02*
G75*
G02*
X15116000Y-13200000I-50000J0D01*
G01*
X15116000Y-13200000D02*
G75*
G02*
X15216000Y-13200000I50000J0D01*
G01*
X15368000Y-8374000D02*
G75*
G02*
X15268000Y-8374000I-50000J0D01*
G01*
X15268000Y-8374000D02*
G75*
G02*
X15368000Y-8374000I50000J0D01*
G01*
X15622000Y-8374000D02*
G75*
G02*
X15522000Y-8374000I-50000J0D01*
G01*
X15522000Y-8374000D02*
G75*
G02*
X15622000Y-8374000I50000J0D01*
G01*
X15622000Y-13200000D02*
G75*
G02*
X15522000Y-13200000I-50000J0D01*
G01*
X15522000Y-13200000D02*
G75*
G02*
X15622000Y-13200000I50000J0D01*
G01*
X15876000Y-13200000D02*
G75*
G02*
X15776000Y-13200000I-50000J0D01*
G01*
X15776000Y-13200000D02*
G75*
G02*
X15876000Y-13200000I50000J0D01*
G01*
X16130000Y-8374000D02*
G75*
G02*
X16030000Y-8374000I-50000J0D01*
G01*
X16030000Y-8374000D02*
G75*
G02*
X16130000Y-8374000I50000J0D01*
G01*
X16130000Y-13200000D02*
G75*
G02*
X16030000Y-13200000I-50000J0D01*
G01*
X16030000Y-13200000D02*
G75*
G02*
X16130000Y-13200000I50000J0D01*
G01*
X16384000Y-8374000D02*
G75*
G02*
X16284000Y-8374000I-50000J0D01*
G01*
X16284000Y-8374000D02*
G75*
G02*
X16384000Y-8374000I50000J0D01*
G01*
X16384000Y-13200000D02*
G75*
G02*
X16284000Y-13200000I-50000J0D01*
G01*
X16284000Y-13200000D02*
G75*
G02*
X16384000Y-13200000I50000J0D01*
G01*
X16638000Y-8374000D02*
G75*
G02*
X16538000Y-8374000I-50000J0D01*
G01*
X16538000Y-8374000D02*
G75*
G02*
X16638000Y-8374000I50000J0D01*
G01*
X16638000Y-13200000D02*
G75*
G02*
X16538000Y-13200000I-50000J0D01*
G01*
X16538000Y-13200000D02*
G75*
G02*
X16638000Y-13200000I50000J0D01*
G01*
X16892000Y-8374000D02*
G75*
G02*
X16792000Y-8374000I-50000J0D01*
G01*
X16792000Y-8374000D02*
G75*
G02*
X16892000Y-8374000I50000J0D01*
G01*
X16892000Y-13200000D02*
G75*
G02*
X16792000Y-13200000I-50000J0D01*
G01*
X16792000Y-13200000D02*
G75*
G02*
X16892000Y-13200000I50000J0D01*
G01*
X17146000Y-8374000D02*
G75*
G02*
X17046000Y-8374000I-50000J0D01*
G01*
X17046000Y-8374000D02*
G75*
G02*
X17146000Y-8374000I50000J0D01*
G01*
X17146000Y-13200000D02*
G75*
G02*
X17046000Y-13200000I-50000J0D01*
G01*
X17046000Y-13200000D02*
G75*
G02*
X17146000Y-13200000I50000J0D01*
G01*
X17400000Y-8374000D02*
G75*
G02*
X17300000Y-8374000I-50000J0D01*
G01*
X17300000Y-8374000D02*
G75*
G02*
X17400000Y-8374000I50000J0D01*
G01*
X17400000Y-13200000D02*
G75*
G02*
X17300000Y-13200000I-50000J0D01*
G01*
X17300000Y-13200000D02*
G75*
G02*
X17400000Y-13200000I50000J0D01*
G01*
D13*
X18163000Y-9545000D02*
X18163000Y-9647000D01*
X18112000Y-9596000D02*
X18214000Y-9596000D01*
X18417000Y-9545000D02*
X18417000Y-9647000D01*
X18366000Y-9596000D02*
X18468000Y-9596000D01*
X18671000Y-9545000D02*
X18671000Y-9647000D01*
X18620000Y-9596000D02*
X18722000Y-9596000D01*
D14*
X13977427Y-3807927D02*
X13977427Y-3723073D01*
X13892573Y-3723073D01*
X13892573Y-3807927D01*
X13977427Y-3807927D01*
X14231935Y-3808181D02*
X14231935Y-3723327D01*
X14147081Y-3723327D01*
X14147081Y-3808181D01*
X14231935Y-3808181D01*
X14485427Y-3807927D02*
X14485427Y-3723073D01*
X14400573Y-3723073D01*
X14400573Y-3807927D01*
X14485427Y-3807927D01*
X14739427Y-3807927D02*
X14739427Y-3723073D01*
X14654573Y-3723073D01*
X14654573Y-3807927D01*
X14739427Y-3807927D01*
X14993427Y-3807927D02*
X14993427Y-3723073D01*
X14908573Y-3723073D01*
X14908573Y-3807927D01*
X14993427Y-3807927D01*
X15247427Y-3807927D02*
X15247427Y-3723073D01*
X15162573Y-3723073D01*
X15162573Y-3807927D01*
X15247427Y-3807927D01*
X15501427Y-3807927D02*
X15501427Y-3723073D01*
X15416573Y-3723073D01*
X15416573Y-3807927D01*
X15501427Y-3807927D01*
X15755427Y-3807927D02*
X15755427Y-3723073D01*
X15670573Y-3723073D01*
X15670573Y-3807927D01*
X15755427Y-3807927D01*
X16009427Y-3807927D02*
X16009427Y-3723073D01*
X15924573Y-3723073D01*
X15924573Y-3807927D01*
X16009427Y-3807927D01*
X16263427Y-3807927D02*
X16263427Y-3723073D01*
X16178573Y-3723073D01*
X16178573Y-3807927D01*
X16263427Y-3807927D01*
X16517427Y-3807927D02*
X16517427Y-3723073D01*
X16432573Y-3723073D01*
X16432573Y-3807927D01*
X16517427Y-3807927D01*
X16771427Y-3807927D02*
X16771427Y-3723073D01*
X16686573Y-3723073D01*
X16686573Y-3807927D01*
X16771427Y-3807927D01*
X17025427Y-3807927D02*
X17025427Y-3723073D01*
X16940573Y-3723073D01*
X16940573Y-3807927D01*
X17025427Y-3807927D01*
X17279427Y-3807927D02*
X17279427Y-3723073D01*
X17194573Y-3723073D01*
X17194573Y-3807927D01*
X17279427Y-3807927D01*
X17533935Y-3808181D02*
X17533935Y-3723327D01*
X17449081Y-3723327D01*
X17449081Y-3808181D01*
X17533935Y-3808181D01*
X17787427Y-3807927D02*
X17787427Y-3723073D01*
X17702573Y-3723073D01*
X17702573Y-3807927D01*
X17787427Y-3807927D01*
D11*
X9658277Y-14163984D02*
X9658277Y-13963984D01*
X9658277Y-13963984D02*
X9705896Y-13963984D01*
X9705896Y-13963984D02*
X9734467Y-13973508D01*
X9734467Y-13973508D02*
X9753515Y-13992555D01*
X9753515Y-13992555D02*
X9763039Y-14011603D01*
X9763039Y-14011603D02*
X9772563Y-14049698D01*
X9772563Y-14049698D02*
X9772563Y-14078269D01*
X9772563Y-14078269D02*
X9763039Y-14116365D01*
X9763039Y-14116365D02*
X9753515Y-14135412D01*
X9753515Y-14135412D02*
X9734467Y-14154460D01*
X9734467Y-14154460D02*
X9705896Y-14163984D01*
X9705896Y-14163984D02*
X9658277Y-14163984D01*
X9858277Y-14163984D02*
X9858277Y-14030650D01*
X9858277Y-14068746D02*
X9867801Y-14049698D01*
X9867801Y-14049698D02*
X9877324Y-14040174D01*
X9877324Y-14040174D02*
X9896372Y-14030650D01*
X9896372Y-14030650D02*
X9915420Y-14030650D01*
X9982086Y-14163984D02*
X9982086Y-14030650D01*
X9982086Y-13963984D02*
X9972563Y-13973508D01*
X9972563Y-13973508D02*
X9982086Y-13983031D01*
X9982086Y-13983031D02*
X9991610Y-13973508D01*
X9991610Y-13973508D02*
X9982086Y-13963984D01*
X9982086Y-13963984D02*
X9982086Y-13983031D01*
X10105896Y-14163984D02*
X10086848Y-14154460D01*
X10086848Y-14154460D02*
X10077324Y-14135412D01*
X10077324Y-14135412D02*
X10077324Y-13963984D01*
X10210658Y-14163984D02*
X10191610Y-14154460D01*
X10191610Y-14154460D02*
X10182086Y-14135412D01*
X10182086Y-14135412D02*
X10182086Y-13963984D01*
X10439229Y-14163984D02*
X10439229Y-13963984D01*
X10439229Y-13963984D02*
X10505896Y-14106841D01*
X10505896Y-14106841D02*
X10572563Y-13963984D01*
X10572563Y-13963984D02*
X10572563Y-14163984D01*
X10753515Y-14163984D02*
X10753515Y-14059222D01*
X10753515Y-14059222D02*
X10743991Y-14040174D01*
X10743991Y-14040174D02*
X10724944Y-14030650D01*
X10724944Y-14030650D02*
X10686848Y-14030650D01*
X10686848Y-14030650D02*
X10667801Y-14040174D01*
X10753515Y-14154460D02*
X10734467Y-14163984D01*
X10734467Y-14163984D02*
X10686848Y-14163984D01*
X10686848Y-14163984D02*
X10667801Y-14154460D01*
X10667801Y-14154460D02*
X10658277Y-14135412D01*
X10658277Y-14135412D02*
X10658277Y-14116365D01*
X10658277Y-14116365D02*
X10667801Y-14097317D01*
X10667801Y-14097317D02*
X10686848Y-14087793D01*
X10686848Y-14087793D02*
X10734467Y-14087793D01*
X10734467Y-14087793D02*
X10753515Y-14078269D01*
X10848753Y-14030650D02*
X10848753Y-14230650D01*
X10848753Y-14040174D02*
X10867801Y-14030650D01*
X10867801Y-14030650D02*
X10905896Y-14030650D01*
X10905896Y-14030650D02*
X10924944Y-14040174D01*
X10924944Y-14040174D02*
X10934467Y-14049698D01*
X10934467Y-14049698D02*
X10943991Y-14068746D01*
X10943991Y-14068746D02*
X10943991Y-14125888D01*
X10943991Y-14125888D02*
X10934467Y-14144936D01*
X10934467Y-14144936D02*
X10924944Y-14154460D01*
X10924944Y-14154460D02*
X10905896Y-14163984D01*
X10905896Y-14163984D02*
X10867801Y-14163984D01*
X10867801Y-14163984D02*
X10848753Y-14154460D01*
X11029705Y-14144936D02*
X11039229Y-14154460D01*
X11039229Y-14154460D02*
X11029705Y-14163984D01*
X11029705Y-14163984D02*
X11020182Y-14154460D01*
X11020182Y-14154460D02*
X11029705Y-14144936D01*
X11029705Y-14144936D02*
X11029705Y-14163984D01*
X11029705Y-14040174D02*
X11039229Y-14049698D01*
X11039229Y-14049698D02*
X11029705Y-14059222D01*
X11029705Y-14059222D02*
X11020182Y-14049698D01*
X11020182Y-14049698D02*
X11029705Y-14040174D01*
X11029705Y-14040174D02*
X11029705Y-14059222D01*
D12*
X9367500Y-14477500D02*
X9397500Y-14507500D01*
X9397500Y-14477500D02*
X9367500Y-14507500D01*
D11*
X9696372Y-14383984D02*
X9715420Y-14383984D01*
X9715420Y-14383984D02*
X9734467Y-14393508D01*
X9734467Y-14393508D02*
X9743991Y-14403031D01*
X9743991Y-14403031D02*
X9753515Y-14422079D01*
X9753515Y-14422079D02*
X9763039Y-14460174D01*
X9763039Y-14460174D02*
X9763039Y-14507793D01*
X9763039Y-14507793D02*
X9753515Y-14545888D01*
X9753515Y-14545888D02*
X9743991Y-14564936D01*
X9743991Y-14564936D02*
X9734467Y-14574460D01*
X9734467Y-14574460D02*
X9715420Y-14583984D01*
X9715420Y-14583984D02*
X9696372Y-14583984D01*
X9696372Y-14583984D02*
X9677324Y-14574460D01*
X9677324Y-14574460D02*
X9667801Y-14564936D01*
X9667801Y-14564936D02*
X9658277Y-14545888D01*
X9658277Y-14545888D02*
X9648753Y-14507793D01*
X9648753Y-14507793D02*
X9648753Y-14460174D01*
X9648753Y-14460174D02*
X9658277Y-14422079D01*
X9658277Y-14422079D02*
X9667801Y-14403031D01*
X9667801Y-14403031D02*
X9677324Y-14393508D01*
X9677324Y-14393508D02*
X9696372Y-14383984D01*
X9848753Y-14564936D02*
X9858277Y-14574460D01*
X9858277Y-14574460D02*
X9848753Y-14583984D01*
X9848753Y-14583984D02*
X9839229Y-14574460D01*
X9839229Y-14574460D02*
X9848753Y-14564936D01*
X9848753Y-14564936D02*
X9848753Y-14583984D01*
X9924944Y-14383984D02*
X10048753Y-14383984D01*
X10048753Y-14383984D02*
X9982086Y-14460174D01*
X9982086Y-14460174D02*
X10010658Y-14460174D01*
X10010658Y-14460174D02*
X10029705Y-14469698D01*
X10029705Y-14469698D02*
X10039229Y-14479222D01*
X10039229Y-14479222D02*
X10048753Y-14498269D01*
X10048753Y-14498269D02*
X10048753Y-14545888D01*
X10048753Y-14545888D02*
X10039229Y-14564936D01*
X10039229Y-14564936D02*
X10029705Y-14574460D01*
X10029705Y-14574460D02*
X10010658Y-14583984D01*
X10010658Y-14583984D02*
X9953515Y-14583984D01*
X9953515Y-14583984D02*
X9934467Y-14574460D01*
X9934467Y-14574460D02*
X9924944Y-14564936D01*
X10172563Y-14383984D02*
X10191610Y-14383984D01*
X10191610Y-14383984D02*
X10210658Y-14393508D01*
X10210658Y-14393508D02*
X10220182Y-14403031D01*
X10220182Y-14403031D02*
X10229705Y-14422079D01*
X10229705Y-14422079D02*
X10239229Y-14460174D01*
X10239229Y-14460174D02*
X10239229Y-14507793D01*
X10239229Y-14507793D02*
X10229705Y-14545888D01*
X10229705Y-14545888D02*
X10220182Y-14564936D01*
X10220182Y-14564936D02*
X10210658Y-14574460D01*
X10210658Y-14574460D02*
X10191610Y-14583984D01*
X10191610Y-14583984D02*
X10172563Y-14583984D01*
X10172563Y-14583984D02*
X10153515Y-14574460D01*
X10153515Y-14574460D02*
X10143991Y-14564936D01*
X10143991Y-14564936D02*
X10134467Y-14545888D01*
X10134467Y-14545888D02*
X10124944Y-14507793D01*
X10124944Y-14507793D02*
X10124944Y-14460174D01*
X10124944Y-14460174D02*
X10134467Y-14422079D01*
X10134467Y-14422079D02*
X10143991Y-14403031D01*
X10143991Y-14403031D02*
X10153515Y-14393508D01*
X10153515Y-14393508D02*
X10172563Y-14383984D01*
X10363039Y-14383984D02*
X10382086Y-14383984D01*
X10382086Y-14383984D02*
X10401134Y-14393508D01*
X10401134Y-14393508D02*
X10410658Y-14403031D01*
X10410658Y-14403031D02*
X10420182Y-14422079D01*
X10420182Y-14422079D02*
X10429705Y-14460174D01*
X10429705Y-14460174D02*
X10429705Y-14507793D01*
X10429705Y-14507793D02*
X10420182Y-14545888D01*
X10420182Y-14545888D02*
X10410658Y-14564936D01*
X10410658Y-14564936D02*
X10401134Y-14574460D01*
X10401134Y-14574460D02*
X10382086Y-14583984D01*
X10382086Y-14583984D02*
X10363039Y-14583984D01*
X10363039Y-14583984D02*
X10343991Y-14574460D01*
X10343991Y-14574460D02*
X10334467Y-14564936D01*
X10334467Y-14564936D02*
X10324944Y-14545888D01*
X10324944Y-14545888D02*
X10315420Y-14507793D01*
X10315420Y-14507793D02*
X10315420Y-14460174D01*
X10315420Y-14460174D02*
X10324944Y-14422079D01*
X10324944Y-14422079D02*
X10334467Y-14403031D01*
X10334467Y-14403031D02*
X10343991Y-14393508D01*
X10343991Y-14393508D02*
X10363039Y-14383984D01*
X10515420Y-14583984D02*
X10515420Y-14450650D01*
X10515420Y-14469698D02*
X10524944Y-14460174D01*
X10524944Y-14460174D02*
X10543991Y-14450650D01*
X10543991Y-14450650D02*
X10572563Y-14450650D01*
X10572563Y-14450650D02*
X10591610Y-14460174D01*
X10591610Y-14460174D02*
X10601134Y-14479222D01*
X10601134Y-14479222D02*
X10601134Y-14583984D01*
X10601134Y-14479222D02*
X10610658Y-14460174D01*
X10610658Y-14460174D02*
X10629705Y-14450650D01*
X10629705Y-14450650D02*
X10658277Y-14450650D01*
X10658277Y-14450650D02*
X10677325Y-14460174D01*
X10677325Y-14460174D02*
X10686848Y-14479222D01*
X10686848Y-14479222D02*
X10686848Y-14583984D01*
X10782086Y-14583984D02*
X10782086Y-14450650D01*
X10782086Y-14469698D02*
X10791610Y-14460174D01*
X10791610Y-14460174D02*
X10810658Y-14450650D01*
X10810658Y-14450650D02*
X10839229Y-14450650D01*
X10839229Y-14450650D02*
X10858277Y-14460174D01*
X10858277Y-14460174D02*
X10867801Y-14479222D01*
X10867801Y-14479222D02*
X10867801Y-14583984D01*
X10867801Y-14479222D02*
X10877325Y-14460174D01*
X10877325Y-14460174D02*
X10896372Y-14450650D01*
X10896372Y-14450650D02*
X10924944Y-14450650D01*
X10924944Y-14450650D02*
X10943991Y-14460174D01*
X10943991Y-14460174D02*
X10953515Y-14479222D01*
X10953515Y-14479222D02*
X10953515Y-14583984D01*
X11343991Y-14374460D02*
X11172563Y-14631603D01*
X11601134Y-14383984D02*
X11620182Y-14383984D01*
X11620182Y-14383984D02*
X11639229Y-14393508D01*
X11639229Y-14393508D02*
X11648753Y-14403031D01*
X11648753Y-14403031D02*
X11658277Y-14422079D01*
X11658277Y-14422079D02*
X11667801Y-14460174D01*
X11667801Y-14460174D02*
X11667801Y-14507793D01*
X11667801Y-14507793D02*
X11658277Y-14545888D01*
X11658277Y-14545888D02*
X11648753Y-14564936D01*
X11648753Y-14564936D02*
X11639229Y-14574460D01*
X11639229Y-14574460D02*
X11620182Y-14583984D01*
X11620182Y-14583984D02*
X11601134Y-14583984D01*
X11601134Y-14583984D02*
X11582086Y-14574460D01*
X11582086Y-14574460D02*
X11572563Y-14564936D01*
X11572563Y-14564936D02*
X11563039Y-14545888D01*
X11563039Y-14545888D02*
X11553515Y-14507793D01*
X11553515Y-14507793D02*
X11553515Y-14460174D01*
X11553515Y-14460174D02*
X11563039Y-14422079D01*
X11563039Y-14422079D02*
X11572563Y-14403031D01*
X11572563Y-14403031D02*
X11582086Y-14393508D01*
X11582086Y-14393508D02*
X11601134Y-14383984D01*
X11753515Y-14564936D02*
X11763039Y-14574460D01*
X11763039Y-14574460D02*
X11753515Y-14583984D01*
X11753515Y-14583984D02*
X11743991Y-14574460D01*
X11743991Y-14574460D02*
X11753515Y-14564936D01*
X11753515Y-14564936D02*
X11753515Y-14583984D01*
X11886848Y-14383984D02*
X11905896Y-14383984D01*
X11905896Y-14383984D02*
X11924944Y-14393508D01*
X11924944Y-14393508D02*
X11934467Y-14403031D01*
X11934467Y-14403031D02*
X11943991Y-14422079D01*
X11943991Y-14422079D02*
X11953515Y-14460174D01*
X11953515Y-14460174D02*
X11953515Y-14507793D01*
X11953515Y-14507793D02*
X11943991Y-14545888D01*
X11943991Y-14545888D02*
X11934467Y-14564936D01*
X11934467Y-14564936D02*
X11924944Y-14574460D01*
X11924944Y-14574460D02*
X11905896Y-14583984D01*
X11905896Y-14583984D02*
X11886848Y-14583984D01*
X11886848Y-14583984D02*
X11867801Y-14574460D01*
X11867801Y-14574460D02*
X11858277Y-14564936D01*
X11858277Y-14564936D02*
X11848753Y-14545888D01*
X11848753Y-14545888D02*
X11839229Y-14507793D01*
X11839229Y-14507793D02*
X11839229Y-14460174D01*
X11839229Y-14460174D02*
X11848753Y-14422079D01*
X11848753Y-14422079D02*
X11858277Y-14403031D01*
X11858277Y-14403031D02*
X11867801Y-14393508D01*
X11867801Y-14393508D02*
X11886848Y-14383984D01*
X12143991Y-14583984D02*
X12029706Y-14583984D01*
X12086848Y-14583984D02*
X12086848Y-14383984D01*
X12086848Y-14383984D02*
X12067801Y-14412555D01*
X12067801Y-14412555D02*
X12048753Y-14431603D01*
X12048753Y-14431603D02*
X12029706Y-14441127D01*
X12334467Y-14583984D02*
X12220182Y-14583984D01*
X12277325Y-14583984D02*
X12277325Y-14383984D01*
X12277325Y-14383984D02*
X12258277Y-14412555D01*
X12258277Y-14412555D02*
X12239229Y-14431603D01*
X12239229Y-14431603D02*
X12220182Y-14441127D01*
X12448753Y-14469698D02*
X12429706Y-14460174D01*
X12429706Y-14460174D02*
X12420182Y-14450650D01*
X12420182Y-14450650D02*
X12410658Y-14431603D01*
X12410658Y-14431603D02*
X12410658Y-14422079D01*
X12410658Y-14422079D02*
X12420182Y-14403031D01*
X12420182Y-14403031D02*
X12429706Y-14393508D01*
X12429706Y-14393508D02*
X12448753Y-14383984D01*
X12448753Y-14383984D02*
X12486848Y-14383984D01*
X12486848Y-14383984D02*
X12505896Y-14393508D01*
X12505896Y-14393508D02*
X12515420Y-14403031D01*
X12515420Y-14403031D02*
X12524944Y-14422079D01*
X12524944Y-14422079D02*
X12524944Y-14431603D01*
X12524944Y-14431603D02*
X12515420Y-14450650D01*
X12515420Y-14450650D02*
X12505896Y-14460174D01*
X12505896Y-14460174D02*
X12486848Y-14469698D01*
X12486848Y-14469698D02*
X12448753Y-14469698D01*
X12448753Y-14469698D02*
X12429706Y-14479222D01*
X12429706Y-14479222D02*
X12420182Y-14488746D01*
X12420182Y-14488746D02*
X12410658Y-14507793D01*
X12410658Y-14507793D02*
X12410658Y-14545888D01*
X12410658Y-14545888D02*
X12420182Y-14564936D01*
X12420182Y-14564936D02*
X12429706Y-14574460D01*
X12429706Y-14574460D02*
X12448753Y-14583984D01*
X12448753Y-14583984D02*
X12486848Y-14583984D01*
X12486848Y-14583984D02*
X12505896Y-14574460D01*
X12505896Y-14574460D02*
X12515420Y-14564936D01*
X12515420Y-14564936D02*
X12524944Y-14545888D01*
X12524944Y-14545888D02*
X12524944Y-14507793D01*
X12524944Y-14507793D02*
X12515420Y-14488746D01*
X12515420Y-14488746D02*
X12505896Y-14479222D01*
X12505896Y-14479222D02*
X12486848Y-14469698D01*
X12601134Y-14383984D02*
X12601134Y-14422079D01*
X12677325Y-14383984D02*
X12677325Y-14422079D01*
X12972563Y-14660174D02*
X12963039Y-14650650D01*
X12963039Y-14650650D02*
X12943991Y-14622079D01*
X12943991Y-14622079D02*
X12934468Y-14603031D01*
X12934468Y-14603031D02*
X12924944Y-14574460D01*
X12924944Y-14574460D02*
X12915420Y-14526841D01*
X12915420Y-14526841D02*
X12915420Y-14488746D01*
X12915420Y-14488746D02*
X12924944Y-14441127D01*
X12924944Y-14441127D02*
X12934468Y-14412555D01*
X12934468Y-14412555D02*
X12943991Y-14393508D01*
X12943991Y-14393508D02*
X12963039Y-14364936D01*
X12963039Y-14364936D02*
X12972563Y-14355412D01*
X13039229Y-14403031D02*
X13048753Y-14393508D01*
X13048753Y-14393508D02*
X13067801Y-14383984D01*
X13067801Y-14383984D02*
X13115420Y-14383984D01*
X13115420Y-14383984D02*
X13134468Y-14393508D01*
X13134468Y-14393508D02*
X13143991Y-14403031D01*
X13143991Y-14403031D02*
X13153515Y-14422079D01*
X13153515Y-14422079D02*
X13153515Y-14441127D01*
X13153515Y-14441127D02*
X13143991Y-14469698D01*
X13143991Y-14469698D02*
X13029706Y-14583984D01*
X13029706Y-14583984D02*
X13153515Y-14583984D01*
X13391610Y-14583984D02*
X13391610Y-14383984D01*
X13477325Y-14583984D02*
X13477325Y-14479222D01*
X13477325Y-14479222D02*
X13467801Y-14460174D01*
X13467801Y-14460174D02*
X13448753Y-14450650D01*
X13448753Y-14450650D02*
X13420182Y-14450650D01*
X13420182Y-14450650D02*
X13401134Y-14460174D01*
X13401134Y-14460174D02*
X13391610Y-14469698D01*
X13601134Y-14583984D02*
X13582087Y-14574460D01*
X13582087Y-14574460D02*
X13572563Y-14564936D01*
X13572563Y-14564936D02*
X13563039Y-14545888D01*
X13563039Y-14545888D02*
X13563039Y-14488746D01*
X13563039Y-14488746D02*
X13572563Y-14469698D01*
X13572563Y-14469698D02*
X13582087Y-14460174D01*
X13582087Y-14460174D02*
X13601134Y-14450650D01*
X13601134Y-14450650D02*
X13629706Y-14450650D01*
X13629706Y-14450650D02*
X13648753Y-14460174D01*
X13648753Y-14460174D02*
X13658277Y-14469698D01*
X13658277Y-14469698D02*
X13667801Y-14488746D01*
X13667801Y-14488746D02*
X13667801Y-14545888D01*
X13667801Y-14545888D02*
X13658277Y-14564936D01*
X13658277Y-14564936D02*
X13648753Y-14574460D01*
X13648753Y-14574460D02*
X13629706Y-14583984D01*
X13629706Y-14583984D02*
X13601134Y-14583984D01*
X13782087Y-14583984D02*
X13763039Y-14574460D01*
X13763039Y-14574460D02*
X13753515Y-14555412D01*
X13753515Y-14555412D02*
X13753515Y-14383984D01*
X13934468Y-14574460D02*
X13915420Y-14583984D01*
X13915420Y-14583984D02*
X13877325Y-14583984D01*
X13877325Y-14583984D02*
X13858277Y-14574460D01*
X13858277Y-14574460D02*
X13848753Y-14555412D01*
X13848753Y-14555412D02*
X13848753Y-14479222D01*
X13848753Y-14479222D02*
X13858277Y-14460174D01*
X13858277Y-14460174D02*
X13877325Y-14450650D01*
X13877325Y-14450650D02*
X13915420Y-14450650D01*
X13915420Y-14450650D02*
X13934468Y-14460174D01*
X13934468Y-14460174D02*
X13943991Y-14479222D01*
X13943991Y-14479222D02*
X13943991Y-14498269D01*
X13943991Y-14498269D02*
X13848753Y-14517317D01*
X14020182Y-14574460D02*
X14039230Y-14583984D01*
X14039230Y-14583984D02*
X14077325Y-14583984D01*
X14077325Y-14583984D02*
X14096372Y-14574460D01*
X14096372Y-14574460D02*
X14105896Y-14555412D01*
X14105896Y-14555412D02*
X14105896Y-14545888D01*
X14105896Y-14545888D02*
X14096372Y-14526841D01*
X14096372Y-14526841D02*
X14077325Y-14517317D01*
X14077325Y-14517317D02*
X14048753Y-14517317D01*
X14048753Y-14517317D02*
X14029706Y-14507793D01*
X14029706Y-14507793D02*
X14020182Y-14488746D01*
X14020182Y-14488746D02*
X14020182Y-14479222D01*
X14020182Y-14479222D02*
X14029706Y-14460174D01*
X14029706Y-14460174D02*
X14048753Y-14450650D01*
X14048753Y-14450650D02*
X14077325Y-14450650D01*
X14077325Y-14450650D02*
X14096372Y-14460174D01*
X14172563Y-14660174D02*
X14182087Y-14650650D01*
X14182087Y-14650650D02*
X14201134Y-14622079D01*
X14201134Y-14622079D02*
X14210658Y-14603031D01*
X14210658Y-14603031D02*
X14220182Y-14574460D01*
X14220182Y-14574460D02*
X14229706Y-14526841D01*
X14229706Y-14526841D02*
X14229706Y-14488746D01*
X14229706Y-14488746D02*
X14220182Y-14441127D01*
X14220182Y-14441127D02*
X14210658Y-14412555D01*
X14210658Y-14412555D02*
X14201134Y-14393508D01*
X14201134Y-14393508D02*
X14182087Y-14364936D01*
X14182087Y-14364936D02*
X14172563Y-14355412D01*
D12*
X9397500Y-14756500D02*
G75*
G02*
X9297500Y-14756500I-50000J0D01*
G01*
X9297500Y-14756500D02*
G75*
G02*
X9397500Y-14756500I50000J0D01*
G01*
D11*
X9763039Y-14847984D02*
X9648753Y-14847984D01*
X9705896Y-14847984D02*
X9705896Y-14647984D01*
X9705896Y-14647984D02*
X9686848Y-14676555D01*
X9686848Y-14676555D02*
X9667801Y-14695603D01*
X9667801Y-14695603D02*
X9648753Y-14705127D01*
X9848753Y-14828936D02*
X9858277Y-14838460D01*
X9858277Y-14838460D02*
X9848753Y-14847984D01*
X9848753Y-14847984D02*
X9839229Y-14838460D01*
X9839229Y-14838460D02*
X9848753Y-14828936D01*
X9848753Y-14828936D02*
X9848753Y-14847984D01*
X9982086Y-14647984D02*
X10001134Y-14647984D01*
X10001134Y-14647984D02*
X10020182Y-14657508D01*
X10020182Y-14657508D02*
X10029705Y-14667031D01*
X10029705Y-14667031D02*
X10039229Y-14686079D01*
X10039229Y-14686079D02*
X10048753Y-14724174D01*
X10048753Y-14724174D02*
X10048753Y-14771793D01*
X10048753Y-14771793D02*
X10039229Y-14809888D01*
X10039229Y-14809888D02*
X10029705Y-14828936D01*
X10029705Y-14828936D02*
X10020182Y-14838460D01*
X10020182Y-14838460D02*
X10001134Y-14847984D01*
X10001134Y-14847984D02*
X9982086Y-14847984D01*
X9982086Y-14847984D02*
X9963039Y-14838460D01*
X9963039Y-14838460D02*
X9953515Y-14828936D01*
X9953515Y-14828936D02*
X9943991Y-14809888D01*
X9943991Y-14809888D02*
X9934467Y-14771793D01*
X9934467Y-14771793D02*
X9934467Y-14724174D01*
X9934467Y-14724174D02*
X9943991Y-14686079D01*
X9943991Y-14686079D02*
X9953515Y-14667031D01*
X9953515Y-14667031D02*
X9963039Y-14657508D01*
X9963039Y-14657508D02*
X9982086Y-14647984D01*
X10172563Y-14647984D02*
X10191610Y-14647984D01*
X10191610Y-14647984D02*
X10210658Y-14657508D01*
X10210658Y-14657508D02*
X10220182Y-14667031D01*
X10220182Y-14667031D02*
X10229705Y-14686079D01*
X10229705Y-14686079D02*
X10239229Y-14724174D01*
X10239229Y-14724174D02*
X10239229Y-14771793D01*
X10239229Y-14771793D02*
X10229705Y-14809888D01*
X10229705Y-14809888D02*
X10220182Y-14828936D01*
X10220182Y-14828936D02*
X10210658Y-14838460D01*
X10210658Y-14838460D02*
X10191610Y-14847984D01*
X10191610Y-14847984D02*
X10172563Y-14847984D01*
X10172563Y-14847984D02*
X10153515Y-14838460D01*
X10153515Y-14838460D02*
X10143991Y-14828936D01*
X10143991Y-14828936D02*
X10134467Y-14809888D01*
X10134467Y-14809888D02*
X10124944Y-14771793D01*
X10124944Y-14771793D02*
X10124944Y-14724174D01*
X10124944Y-14724174D02*
X10134467Y-14686079D01*
X10134467Y-14686079D02*
X10143991Y-14667031D01*
X10143991Y-14667031D02*
X10153515Y-14657508D01*
X10153515Y-14657508D02*
X10172563Y-14647984D01*
X10363039Y-14647984D02*
X10382086Y-14647984D01*
X10382086Y-14647984D02*
X10401134Y-14657508D01*
X10401134Y-14657508D02*
X10410658Y-14667031D01*
X10410658Y-14667031D02*
X10420182Y-14686079D01*
X10420182Y-14686079D02*
X10429705Y-14724174D01*
X10429705Y-14724174D02*
X10429705Y-14771793D01*
X10429705Y-14771793D02*
X10420182Y-14809888D01*
X10420182Y-14809888D02*
X10410658Y-14828936D01*
X10410658Y-14828936D02*
X10401134Y-14838460D01*
X10401134Y-14838460D02*
X10382086Y-14847984D01*
X10382086Y-14847984D02*
X10363039Y-14847984D01*
X10363039Y-14847984D02*
X10343991Y-14838460D01*
X10343991Y-14838460D02*
X10334467Y-14828936D01*
X10334467Y-14828936D02*
X10324944Y-14809888D01*
X10324944Y-14809888D02*
X10315420Y-14771793D01*
X10315420Y-14771793D02*
X10315420Y-14724174D01*
X10315420Y-14724174D02*
X10324944Y-14686079D01*
X10324944Y-14686079D02*
X10334467Y-14667031D01*
X10334467Y-14667031D02*
X10343991Y-14657508D01*
X10343991Y-14657508D02*
X10363039Y-14647984D01*
X10515420Y-14847984D02*
X10515420Y-14714650D01*
X10515420Y-14733698D02*
X10524944Y-14724174D01*
X10524944Y-14724174D02*
X10543991Y-14714650D01*
X10543991Y-14714650D02*
X10572563Y-14714650D01*
X10572563Y-14714650D02*
X10591610Y-14724174D01*
X10591610Y-14724174D02*
X10601134Y-14743222D01*
X10601134Y-14743222D02*
X10601134Y-14847984D01*
X10601134Y-14743222D02*
X10610658Y-14724174D01*
X10610658Y-14724174D02*
X10629705Y-14714650D01*
X10629705Y-14714650D02*
X10658277Y-14714650D01*
X10658277Y-14714650D02*
X10677325Y-14724174D01*
X10677325Y-14724174D02*
X10686848Y-14743222D01*
X10686848Y-14743222D02*
X10686848Y-14847984D01*
X10782086Y-14847984D02*
X10782086Y-14714650D01*
X10782086Y-14733698D02*
X10791610Y-14724174D01*
X10791610Y-14724174D02*
X10810658Y-14714650D01*
X10810658Y-14714650D02*
X10839229Y-14714650D01*
X10839229Y-14714650D02*
X10858277Y-14724174D01*
X10858277Y-14724174D02*
X10867801Y-14743222D01*
X10867801Y-14743222D02*
X10867801Y-14847984D01*
X10867801Y-14743222D02*
X10877325Y-14724174D01*
X10877325Y-14724174D02*
X10896372Y-14714650D01*
X10896372Y-14714650D02*
X10924944Y-14714650D01*
X10924944Y-14714650D02*
X10943991Y-14724174D01*
X10943991Y-14724174D02*
X10953515Y-14743222D01*
X10953515Y-14743222D02*
X10953515Y-14847984D01*
X11343991Y-14638460D02*
X11172563Y-14895603D01*
X11601134Y-14647984D02*
X11620182Y-14647984D01*
X11620182Y-14647984D02*
X11639229Y-14657508D01*
X11639229Y-14657508D02*
X11648753Y-14667031D01*
X11648753Y-14667031D02*
X11658277Y-14686079D01*
X11658277Y-14686079D02*
X11667801Y-14724174D01*
X11667801Y-14724174D02*
X11667801Y-14771793D01*
X11667801Y-14771793D02*
X11658277Y-14809888D01*
X11658277Y-14809888D02*
X11648753Y-14828936D01*
X11648753Y-14828936D02*
X11639229Y-14838460D01*
X11639229Y-14838460D02*
X11620182Y-14847984D01*
X11620182Y-14847984D02*
X11601134Y-14847984D01*
X11601134Y-14847984D02*
X11582086Y-14838460D01*
X11582086Y-14838460D02*
X11572563Y-14828936D01*
X11572563Y-14828936D02*
X11563039Y-14809888D01*
X11563039Y-14809888D02*
X11553515Y-14771793D01*
X11553515Y-14771793D02*
X11553515Y-14724174D01*
X11553515Y-14724174D02*
X11563039Y-14686079D01*
X11563039Y-14686079D02*
X11572563Y-14667031D01*
X11572563Y-14667031D02*
X11582086Y-14657508D01*
X11582086Y-14657508D02*
X11601134Y-14647984D01*
X11753515Y-14828936D02*
X11763039Y-14838460D01*
X11763039Y-14838460D02*
X11753515Y-14847984D01*
X11753515Y-14847984D02*
X11743991Y-14838460D01*
X11743991Y-14838460D02*
X11753515Y-14828936D01*
X11753515Y-14828936D02*
X11753515Y-14847984D01*
X11886848Y-14647984D02*
X11905896Y-14647984D01*
X11905896Y-14647984D02*
X11924944Y-14657508D01*
X11924944Y-14657508D02*
X11934467Y-14667031D01*
X11934467Y-14667031D02*
X11943991Y-14686079D01*
X11943991Y-14686079D02*
X11953515Y-14724174D01*
X11953515Y-14724174D02*
X11953515Y-14771793D01*
X11953515Y-14771793D02*
X11943991Y-14809888D01*
X11943991Y-14809888D02*
X11934467Y-14828936D01*
X11934467Y-14828936D02*
X11924944Y-14838460D01*
X11924944Y-14838460D02*
X11905896Y-14847984D01*
X11905896Y-14847984D02*
X11886848Y-14847984D01*
X11886848Y-14847984D02*
X11867801Y-14838460D01*
X11867801Y-14838460D02*
X11858277Y-14828936D01*
X11858277Y-14828936D02*
X11848753Y-14809888D01*
X11848753Y-14809888D02*
X11839229Y-14771793D01*
X11839229Y-14771793D02*
X11839229Y-14724174D01*
X11839229Y-14724174D02*
X11848753Y-14686079D01*
X11848753Y-14686079D02*
X11858277Y-14667031D01*
X11858277Y-14667031D02*
X11867801Y-14657508D01*
X11867801Y-14657508D02*
X11886848Y-14647984D01*
X12020182Y-14647984D02*
X12143991Y-14647984D01*
X12143991Y-14647984D02*
X12077325Y-14724174D01*
X12077325Y-14724174D02*
X12105896Y-14724174D01*
X12105896Y-14724174D02*
X12124944Y-14733698D01*
X12124944Y-14733698D02*
X12134467Y-14743222D01*
X12134467Y-14743222D02*
X12143991Y-14762269D01*
X12143991Y-14762269D02*
X12143991Y-14809888D01*
X12143991Y-14809888D02*
X12134467Y-14828936D01*
X12134467Y-14828936D02*
X12124944Y-14838460D01*
X12124944Y-14838460D02*
X12105896Y-14847984D01*
X12105896Y-14847984D02*
X12048753Y-14847984D01*
X12048753Y-14847984D02*
X12029706Y-14838460D01*
X12029706Y-14838460D02*
X12020182Y-14828936D01*
X12239229Y-14847984D02*
X12277325Y-14847984D01*
X12277325Y-14847984D02*
X12296372Y-14838460D01*
X12296372Y-14838460D02*
X12305896Y-14828936D01*
X12305896Y-14828936D02*
X12324944Y-14800365D01*
X12324944Y-14800365D02*
X12334467Y-14762269D01*
X12334467Y-14762269D02*
X12334467Y-14686079D01*
X12334467Y-14686079D02*
X12324944Y-14667031D01*
X12324944Y-14667031D02*
X12315420Y-14657508D01*
X12315420Y-14657508D02*
X12296372Y-14647984D01*
X12296372Y-14647984D02*
X12258277Y-14647984D01*
X12258277Y-14647984D02*
X12239229Y-14657508D01*
X12239229Y-14657508D02*
X12229706Y-14667031D01*
X12229706Y-14667031D02*
X12220182Y-14686079D01*
X12220182Y-14686079D02*
X12220182Y-14733698D01*
X12220182Y-14733698D02*
X12229706Y-14752746D01*
X12229706Y-14752746D02*
X12239229Y-14762269D01*
X12239229Y-14762269D02*
X12258277Y-14771793D01*
X12258277Y-14771793D02*
X12296372Y-14771793D01*
X12296372Y-14771793D02*
X12315420Y-14762269D01*
X12315420Y-14762269D02*
X12324944Y-14752746D01*
X12324944Y-14752746D02*
X12334467Y-14733698D01*
X12505896Y-14714650D02*
X12505896Y-14847984D01*
X12458277Y-14638460D02*
X12410658Y-14781317D01*
X12410658Y-14781317D02*
X12534467Y-14781317D01*
X12601134Y-14647984D02*
X12601134Y-14686079D01*
X12677325Y-14647984D02*
X12677325Y-14686079D01*
X12972563Y-14924174D02*
X12963039Y-14914650D01*
X12963039Y-14914650D02*
X12943991Y-14886079D01*
X12943991Y-14886079D02*
X12934468Y-14867031D01*
X12934468Y-14867031D02*
X12924944Y-14838460D01*
X12924944Y-14838460D02*
X12915420Y-14790841D01*
X12915420Y-14790841D02*
X12915420Y-14752746D01*
X12915420Y-14752746D02*
X12924944Y-14705127D01*
X12924944Y-14705127D02*
X12934468Y-14676555D01*
X12934468Y-14676555D02*
X12943991Y-14657508D01*
X12943991Y-14657508D02*
X12963039Y-14628936D01*
X12963039Y-14628936D02*
X12972563Y-14619412D01*
X13029706Y-14647984D02*
X13153515Y-14647984D01*
X13153515Y-14647984D02*
X13086848Y-14724174D01*
X13086848Y-14724174D02*
X13115420Y-14724174D01*
X13115420Y-14724174D02*
X13134468Y-14733698D01*
X13134468Y-14733698D02*
X13143991Y-14743222D01*
X13143991Y-14743222D02*
X13153515Y-14762269D01*
X13153515Y-14762269D02*
X13153515Y-14809888D01*
X13153515Y-14809888D02*
X13143991Y-14828936D01*
X13143991Y-14828936D02*
X13134468Y-14838460D01*
X13134468Y-14838460D02*
X13115420Y-14847984D01*
X13115420Y-14847984D02*
X13058277Y-14847984D01*
X13058277Y-14847984D02*
X13039229Y-14838460D01*
X13039229Y-14838460D02*
X13029706Y-14828936D01*
X13267801Y-14733698D02*
X13248753Y-14724174D01*
X13248753Y-14724174D02*
X13239229Y-14714650D01*
X13239229Y-14714650D02*
X13229706Y-14695603D01*
X13229706Y-14695603D02*
X13229706Y-14686079D01*
X13229706Y-14686079D02*
X13239229Y-14667031D01*
X13239229Y-14667031D02*
X13248753Y-14657508D01*
X13248753Y-14657508D02*
X13267801Y-14647984D01*
X13267801Y-14647984D02*
X13305896Y-14647984D01*
X13305896Y-14647984D02*
X13324944Y-14657508D01*
X13324944Y-14657508D02*
X13334468Y-14667031D01*
X13334468Y-14667031D02*
X13343991Y-14686079D01*
X13343991Y-14686079D02*
X13343991Y-14695603D01*
X13343991Y-14695603D02*
X13334468Y-14714650D01*
X13334468Y-14714650D02*
X13324944Y-14724174D01*
X13324944Y-14724174D02*
X13305896Y-14733698D01*
X13305896Y-14733698D02*
X13267801Y-14733698D01*
X13267801Y-14733698D02*
X13248753Y-14743222D01*
X13248753Y-14743222D02*
X13239229Y-14752746D01*
X13239229Y-14752746D02*
X13229706Y-14771793D01*
X13229706Y-14771793D02*
X13229706Y-14809888D01*
X13229706Y-14809888D02*
X13239229Y-14828936D01*
X13239229Y-14828936D02*
X13248753Y-14838460D01*
X13248753Y-14838460D02*
X13267801Y-14847984D01*
X13267801Y-14847984D02*
X13305896Y-14847984D01*
X13305896Y-14847984D02*
X13324944Y-14838460D01*
X13324944Y-14838460D02*
X13334468Y-14828936D01*
X13334468Y-14828936D02*
X13343991Y-14809888D01*
X13343991Y-14809888D02*
X13343991Y-14771793D01*
X13343991Y-14771793D02*
X13334468Y-14752746D01*
X13334468Y-14752746D02*
X13324944Y-14743222D01*
X13324944Y-14743222D02*
X13305896Y-14733698D01*
X13582087Y-14847984D02*
X13582087Y-14647984D01*
X13667801Y-14847984D02*
X13667801Y-14743222D01*
X13667801Y-14743222D02*
X13658277Y-14724174D01*
X13658277Y-14724174D02*
X13639230Y-14714650D01*
X13639230Y-14714650D02*
X13610658Y-14714650D01*
X13610658Y-14714650D02*
X13591610Y-14724174D01*
X13591610Y-14724174D02*
X13582087Y-14733698D01*
X13791610Y-14847984D02*
X13772563Y-14838460D01*
X13772563Y-14838460D02*
X13763039Y-14828936D01*
X13763039Y-14828936D02*
X13753515Y-14809888D01*
X13753515Y-14809888D02*
X13753515Y-14752746D01*
X13753515Y-14752746D02*
X13763039Y-14733698D01*
X13763039Y-14733698D02*
X13772563Y-14724174D01*
X13772563Y-14724174D02*
X13791610Y-14714650D01*
X13791610Y-14714650D02*
X13820182Y-14714650D01*
X13820182Y-14714650D02*
X13839230Y-14724174D01*
X13839230Y-14724174D02*
X13848753Y-14733698D01*
X13848753Y-14733698D02*
X13858277Y-14752746D01*
X13858277Y-14752746D02*
X13858277Y-14809888D01*
X13858277Y-14809888D02*
X13848753Y-14828936D01*
X13848753Y-14828936D02*
X13839230Y-14838460D01*
X13839230Y-14838460D02*
X13820182Y-14847984D01*
X13820182Y-14847984D02*
X13791610Y-14847984D01*
X13972563Y-14847984D02*
X13953515Y-14838460D01*
X13953515Y-14838460D02*
X13943991Y-14819412D01*
X13943991Y-14819412D02*
X13943991Y-14647984D01*
X14124944Y-14838460D02*
X14105896Y-14847984D01*
X14105896Y-14847984D02*
X14067801Y-14847984D01*
X14067801Y-14847984D02*
X14048753Y-14838460D01*
X14048753Y-14838460D02*
X14039230Y-14819412D01*
X14039230Y-14819412D02*
X14039230Y-14743222D01*
X14039230Y-14743222D02*
X14048753Y-14724174D01*
X14048753Y-14724174D02*
X14067801Y-14714650D01*
X14067801Y-14714650D02*
X14105896Y-14714650D01*
X14105896Y-14714650D02*
X14124944Y-14724174D01*
X14124944Y-14724174D02*
X14134468Y-14743222D01*
X14134468Y-14743222D02*
X14134468Y-14762269D01*
X14134468Y-14762269D02*
X14039230Y-14781317D01*
X14210658Y-14838460D02*
X14229706Y-14847984D01*
X14229706Y-14847984D02*
X14267801Y-14847984D01*
X14267801Y-14847984D02*
X14286849Y-14838460D01*
X14286849Y-14838460D02*
X14296372Y-14819412D01*
X14296372Y-14819412D02*
X14296372Y-14809888D01*
X14296372Y-14809888D02*
X14286849Y-14790841D01*
X14286849Y-14790841D02*
X14267801Y-14781317D01*
X14267801Y-14781317D02*
X14239230Y-14781317D01*
X14239230Y-14781317D02*
X14220182Y-14771793D01*
X14220182Y-14771793D02*
X14210658Y-14752746D01*
X14210658Y-14752746D02*
X14210658Y-14743222D01*
X14210658Y-14743222D02*
X14220182Y-14724174D01*
X14220182Y-14724174D02*
X14239230Y-14714650D01*
X14239230Y-14714650D02*
X14267801Y-14714650D01*
X14267801Y-14714650D02*
X14286849Y-14724174D01*
X14363039Y-14924174D02*
X14372563Y-14914650D01*
X14372563Y-14914650D02*
X14391611Y-14886079D01*
X14391611Y-14886079D02*
X14401134Y-14867031D01*
X14401134Y-14867031D02*
X14410658Y-14838460D01*
X14410658Y-14838460D02*
X14420182Y-14790841D01*
X14420182Y-14790841D02*
X14420182Y-14752746D01*
X14420182Y-14752746D02*
X14410658Y-14705127D01*
X14410658Y-14705127D02*
X14401134Y-14676555D01*
X14401134Y-14676555D02*
X14391611Y-14657508D01*
X14391611Y-14657508D02*
X14372563Y-14628936D01*
X14372563Y-14628936D02*
X14363039Y-14619412D01*
D13*
X9346500Y-14969500D02*
X9346500Y-15071500D01*
X9295500Y-15020500D02*
X9397500Y-15020500D01*
D11*
X9763039Y-15111984D02*
X9648753Y-15111984D01*
X9705896Y-15111984D02*
X9705896Y-14911984D01*
X9705896Y-14911984D02*
X9686848Y-14940555D01*
X9686848Y-14940555D02*
X9667801Y-14959603D01*
X9667801Y-14959603D02*
X9648753Y-14969127D01*
X9848753Y-15092936D02*
X9858277Y-15102460D01*
X9858277Y-15102460D02*
X9848753Y-15111984D01*
X9848753Y-15111984D02*
X9839229Y-15102460D01*
X9839229Y-15102460D02*
X9848753Y-15092936D01*
X9848753Y-15092936D02*
X9848753Y-15111984D01*
X9982086Y-14911984D02*
X10001134Y-14911984D01*
X10001134Y-14911984D02*
X10020182Y-14921508D01*
X10020182Y-14921508D02*
X10029705Y-14931031D01*
X10029705Y-14931031D02*
X10039229Y-14950079D01*
X10039229Y-14950079D02*
X10048753Y-14988174D01*
X10048753Y-14988174D02*
X10048753Y-15035793D01*
X10048753Y-15035793D02*
X10039229Y-15073888D01*
X10039229Y-15073888D02*
X10029705Y-15092936D01*
X10029705Y-15092936D02*
X10020182Y-15102460D01*
X10020182Y-15102460D02*
X10001134Y-15111984D01*
X10001134Y-15111984D02*
X9982086Y-15111984D01*
X9982086Y-15111984D02*
X9963039Y-15102460D01*
X9963039Y-15102460D02*
X9953515Y-15092936D01*
X9953515Y-15092936D02*
X9943991Y-15073888D01*
X9943991Y-15073888D02*
X9934467Y-15035793D01*
X9934467Y-15035793D02*
X9934467Y-14988174D01*
X9934467Y-14988174D02*
X9943991Y-14950079D01*
X9943991Y-14950079D02*
X9953515Y-14931031D01*
X9953515Y-14931031D02*
X9963039Y-14921508D01*
X9963039Y-14921508D02*
X9982086Y-14911984D01*
X10124944Y-14931031D02*
X10134467Y-14921508D01*
X10134467Y-14921508D02*
X10153515Y-14911984D01*
X10153515Y-14911984D02*
X10201134Y-14911984D01*
X10201134Y-14911984D02*
X10220182Y-14921508D01*
X10220182Y-14921508D02*
X10229705Y-14931031D01*
X10229705Y-14931031D02*
X10239229Y-14950079D01*
X10239229Y-14950079D02*
X10239229Y-14969127D01*
X10239229Y-14969127D02*
X10229705Y-14997698D01*
X10229705Y-14997698D02*
X10115420Y-15111984D01*
X10115420Y-15111984D02*
X10239229Y-15111984D01*
X10363039Y-14911984D02*
X10382086Y-14911984D01*
X10382086Y-14911984D02*
X10401134Y-14921508D01*
X10401134Y-14921508D02*
X10410658Y-14931031D01*
X10410658Y-14931031D02*
X10420182Y-14950079D01*
X10420182Y-14950079D02*
X10429705Y-14988174D01*
X10429705Y-14988174D02*
X10429705Y-15035793D01*
X10429705Y-15035793D02*
X10420182Y-15073888D01*
X10420182Y-15073888D02*
X10410658Y-15092936D01*
X10410658Y-15092936D02*
X10401134Y-15102460D01*
X10401134Y-15102460D02*
X10382086Y-15111984D01*
X10382086Y-15111984D02*
X10363039Y-15111984D01*
X10363039Y-15111984D02*
X10343991Y-15102460D01*
X10343991Y-15102460D02*
X10334467Y-15092936D01*
X10334467Y-15092936D02*
X10324944Y-15073888D01*
X10324944Y-15073888D02*
X10315420Y-15035793D01*
X10315420Y-15035793D02*
X10315420Y-14988174D01*
X10315420Y-14988174D02*
X10324944Y-14950079D01*
X10324944Y-14950079D02*
X10334467Y-14931031D01*
X10334467Y-14931031D02*
X10343991Y-14921508D01*
X10343991Y-14921508D02*
X10363039Y-14911984D01*
X10515420Y-15111984D02*
X10515420Y-14978650D01*
X10515420Y-14997698D02*
X10524944Y-14988174D01*
X10524944Y-14988174D02*
X10543991Y-14978650D01*
X10543991Y-14978650D02*
X10572563Y-14978650D01*
X10572563Y-14978650D02*
X10591610Y-14988174D01*
X10591610Y-14988174D02*
X10601134Y-15007222D01*
X10601134Y-15007222D02*
X10601134Y-15111984D01*
X10601134Y-15007222D02*
X10610658Y-14988174D01*
X10610658Y-14988174D02*
X10629705Y-14978650D01*
X10629705Y-14978650D02*
X10658277Y-14978650D01*
X10658277Y-14978650D02*
X10677325Y-14988174D01*
X10677325Y-14988174D02*
X10686848Y-15007222D01*
X10686848Y-15007222D02*
X10686848Y-15111984D01*
X10782086Y-15111984D02*
X10782086Y-14978650D01*
X10782086Y-14997698D02*
X10791610Y-14988174D01*
X10791610Y-14988174D02*
X10810658Y-14978650D01*
X10810658Y-14978650D02*
X10839229Y-14978650D01*
X10839229Y-14978650D02*
X10858277Y-14988174D01*
X10858277Y-14988174D02*
X10867801Y-15007222D01*
X10867801Y-15007222D02*
X10867801Y-15111984D01*
X10867801Y-15007222D02*
X10877325Y-14988174D01*
X10877325Y-14988174D02*
X10896372Y-14978650D01*
X10896372Y-14978650D02*
X10924944Y-14978650D01*
X10924944Y-14978650D02*
X10943991Y-14988174D01*
X10943991Y-14988174D02*
X10953515Y-15007222D01*
X10953515Y-15007222D02*
X10953515Y-15111984D01*
X11343991Y-14902460D02*
X11172563Y-15159603D01*
X11601134Y-14911984D02*
X11620182Y-14911984D01*
X11620182Y-14911984D02*
X11639229Y-14921508D01*
X11639229Y-14921508D02*
X11648753Y-14931031D01*
X11648753Y-14931031D02*
X11658277Y-14950079D01*
X11658277Y-14950079D02*
X11667801Y-14988174D01*
X11667801Y-14988174D02*
X11667801Y-15035793D01*
X11667801Y-15035793D02*
X11658277Y-15073888D01*
X11658277Y-15073888D02*
X11648753Y-15092936D01*
X11648753Y-15092936D02*
X11639229Y-15102460D01*
X11639229Y-15102460D02*
X11620182Y-15111984D01*
X11620182Y-15111984D02*
X11601134Y-15111984D01*
X11601134Y-15111984D02*
X11582086Y-15102460D01*
X11582086Y-15102460D02*
X11572563Y-15092936D01*
X11572563Y-15092936D02*
X11563039Y-15073888D01*
X11563039Y-15073888D02*
X11553515Y-15035793D01*
X11553515Y-15035793D02*
X11553515Y-14988174D01*
X11553515Y-14988174D02*
X11563039Y-14950079D01*
X11563039Y-14950079D02*
X11572563Y-14931031D01*
X11572563Y-14931031D02*
X11582086Y-14921508D01*
X11582086Y-14921508D02*
X11601134Y-14911984D01*
X11753515Y-15092936D02*
X11763039Y-15102460D01*
X11763039Y-15102460D02*
X11753515Y-15111984D01*
X11753515Y-15111984D02*
X11743991Y-15102460D01*
X11743991Y-15102460D02*
X11753515Y-15092936D01*
X11753515Y-15092936D02*
X11753515Y-15111984D01*
X11886848Y-14911984D02*
X11905896Y-14911984D01*
X11905896Y-14911984D02*
X11924944Y-14921508D01*
X11924944Y-14921508D02*
X11934467Y-14931031D01*
X11934467Y-14931031D02*
X11943991Y-14950079D01*
X11943991Y-14950079D02*
X11953515Y-14988174D01*
X11953515Y-14988174D02*
X11953515Y-15035793D01*
X11953515Y-15035793D02*
X11943991Y-15073888D01*
X11943991Y-15073888D02*
X11934467Y-15092936D01*
X11934467Y-15092936D02*
X11924944Y-15102460D01*
X11924944Y-15102460D02*
X11905896Y-15111984D01*
X11905896Y-15111984D02*
X11886848Y-15111984D01*
X11886848Y-15111984D02*
X11867801Y-15102460D01*
X11867801Y-15102460D02*
X11858277Y-15092936D01*
X11858277Y-15092936D02*
X11848753Y-15073888D01*
X11848753Y-15073888D02*
X11839229Y-15035793D01*
X11839229Y-15035793D02*
X11839229Y-14988174D01*
X11839229Y-14988174D02*
X11848753Y-14950079D01*
X11848753Y-14950079D02*
X11858277Y-14931031D01*
X11858277Y-14931031D02*
X11867801Y-14921508D01*
X11867801Y-14921508D02*
X11886848Y-14911984D01*
X12124944Y-14978650D02*
X12124944Y-15111984D01*
X12077325Y-14902460D02*
X12029706Y-15045317D01*
X12029706Y-15045317D02*
X12153515Y-15045317D01*
X12267801Y-14911984D02*
X12286848Y-14911984D01*
X12286848Y-14911984D02*
X12305896Y-14921508D01*
X12305896Y-14921508D02*
X12315420Y-14931031D01*
X12315420Y-14931031D02*
X12324944Y-14950079D01*
X12324944Y-14950079D02*
X12334467Y-14988174D01*
X12334467Y-14988174D02*
X12334467Y-15035793D01*
X12334467Y-15035793D02*
X12324944Y-15073888D01*
X12324944Y-15073888D02*
X12315420Y-15092936D01*
X12315420Y-15092936D02*
X12305896Y-15102460D01*
X12305896Y-15102460D02*
X12286848Y-15111984D01*
X12286848Y-15111984D02*
X12267801Y-15111984D01*
X12267801Y-15111984D02*
X12248753Y-15102460D01*
X12248753Y-15102460D02*
X12239229Y-15092936D01*
X12239229Y-15092936D02*
X12229706Y-15073888D01*
X12229706Y-15073888D02*
X12220182Y-15035793D01*
X12220182Y-15035793D02*
X12220182Y-14988174D01*
X12220182Y-14988174D02*
X12229706Y-14950079D01*
X12229706Y-14950079D02*
X12239229Y-14931031D01*
X12239229Y-14931031D02*
X12248753Y-14921508D01*
X12248753Y-14921508D02*
X12267801Y-14911984D01*
X12410658Y-14931031D02*
X12420182Y-14921508D01*
X12420182Y-14921508D02*
X12439229Y-14911984D01*
X12439229Y-14911984D02*
X12486848Y-14911984D01*
X12486848Y-14911984D02*
X12505896Y-14921508D01*
X12505896Y-14921508D02*
X12515420Y-14931031D01*
X12515420Y-14931031D02*
X12524944Y-14950079D01*
X12524944Y-14950079D02*
X12524944Y-14969127D01*
X12524944Y-14969127D02*
X12515420Y-14997698D01*
X12515420Y-14997698D02*
X12401134Y-15111984D01*
X12401134Y-15111984D02*
X12524944Y-15111984D01*
X12601134Y-14911984D02*
X12601134Y-14950079D01*
X12677325Y-14911984D02*
X12677325Y-14950079D01*
X12972563Y-15188174D02*
X12963039Y-15178650D01*
X12963039Y-15178650D02*
X12943991Y-15150079D01*
X12943991Y-15150079D02*
X12934468Y-15131031D01*
X12934468Y-15131031D02*
X12924944Y-15102460D01*
X12924944Y-15102460D02*
X12915420Y-15054841D01*
X12915420Y-15054841D02*
X12915420Y-15016746D01*
X12915420Y-15016746D02*
X12924944Y-14969127D01*
X12924944Y-14969127D02*
X12934468Y-14940555D01*
X12934468Y-14940555D02*
X12943991Y-14921508D01*
X12943991Y-14921508D02*
X12963039Y-14892936D01*
X12963039Y-14892936D02*
X12972563Y-14883412D01*
X13029706Y-14911984D02*
X13153515Y-14911984D01*
X13153515Y-14911984D02*
X13086848Y-14988174D01*
X13086848Y-14988174D02*
X13115420Y-14988174D01*
X13115420Y-14988174D02*
X13134468Y-14997698D01*
X13134468Y-14997698D02*
X13143991Y-15007222D01*
X13143991Y-15007222D02*
X13153515Y-15026269D01*
X13153515Y-15026269D02*
X13153515Y-15073888D01*
X13153515Y-15073888D02*
X13143991Y-15092936D01*
X13143991Y-15092936D02*
X13134468Y-15102460D01*
X13134468Y-15102460D02*
X13115420Y-15111984D01*
X13115420Y-15111984D02*
X13058277Y-15111984D01*
X13058277Y-15111984D02*
X13039229Y-15102460D01*
X13039229Y-15102460D02*
X13029706Y-15092936D01*
X13391610Y-15111984D02*
X13391610Y-14911984D01*
X13477325Y-15111984D02*
X13477325Y-15007222D01*
X13477325Y-15007222D02*
X13467801Y-14988174D01*
X13467801Y-14988174D02*
X13448753Y-14978650D01*
X13448753Y-14978650D02*
X13420182Y-14978650D01*
X13420182Y-14978650D02*
X13401134Y-14988174D01*
X13401134Y-14988174D02*
X13391610Y-14997698D01*
X13601134Y-15111984D02*
X13582087Y-15102460D01*
X13582087Y-15102460D02*
X13572563Y-15092936D01*
X13572563Y-15092936D02*
X13563039Y-15073888D01*
X13563039Y-15073888D02*
X13563039Y-15016746D01*
X13563039Y-15016746D02*
X13572563Y-14997698D01*
X13572563Y-14997698D02*
X13582087Y-14988174D01*
X13582087Y-14988174D02*
X13601134Y-14978650D01*
X13601134Y-14978650D02*
X13629706Y-14978650D01*
X13629706Y-14978650D02*
X13648753Y-14988174D01*
X13648753Y-14988174D02*
X13658277Y-14997698D01*
X13658277Y-14997698D02*
X13667801Y-15016746D01*
X13667801Y-15016746D02*
X13667801Y-15073888D01*
X13667801Y-15073888D02*
X13658277Y-15092936D01*
X13658277Y-15092936D02*
X13648753Y-15102460D01*
X13648753Y-15102460D02*
X13629706Y-15111984D01*
X13629706Y-15111984D02*
X13601134Y-15111984D01*
X13782087Y-15111984D02*
X13763039Y-15102460D01*
X13763039Y-15102460D02*
X13753515Y-15083412D01*
X13753515Y-15083412D02*
X13753515Y-14911984D01*
X13934468Y-15102460D02*
X13915420Y-15111984D01*
X13915420Y-15111984D02*
X13877325Y-15111984D01*
X13877325Y-15111984D02*
X13858277Y-15102460D01*
X13858277Y-15102460D02*
X13848753Y-15083412D01*
X13848753Y-15083412D02*
X13848753Y-15007222D01*
X13848753Y-15007222D02*
X13858277Y-14988174D01*
X13858277Y-14988174D02*
X13877325Y-14978650D01*
X13877325Y-14978650D02*
X13915420Y-14978650D01*
X13915420Y-14978650D02*
X13934468Y-14988174D01*
X13934468Y-14988174D02*
X13943991Y-15007222D01*
X13943991Y-15007222D02*
X13943991Y-15026269D01*
X13943991Y-15026269D02*
X13848753Y-15045317D01*
X14020182Y-15102460D02*
X14039230Y-15111984D01*
X14039230Y-15111984D02*
X14077325Y-15111984D01*
X14077325Y-15111984D02*
X14096372Y-15102460D01*
X14096372Y-15102460D02*
X14105896Y-15083412D01*
X14105896Y-15083412D02*
X14105896Y-15073888D01*
X14105896Y-15073888D02*
X14096372Y-15054841D01*
X14096372Y-15054841D02*
X14077325Y-15045317D01*
X14077325Y-15045317D02*
X14048753Y-15045317D01*
X14048753Y-15045317D02*
X14029706Y-15035793D01*
X14029706Y-15035793D02*
X14020182Y-15016746D01*
X14020182Y-15016746D02*
X14020182Y-15007222D01*
X14020182Y-15007222D02*
X14029706Y-14988174D01*
X14029706Y-14988174D02*
X14048753Y-14978650D01*
X14048753Y-14978650D02*
X14077325Y-14978650D01*
X14077325Y-14978650D02*
X14096372Y-14988174D01*
X14172563Y-15188174D02*
X14182087Y-15178650D01*
X14182087Y-15178650D02*
X14201134Y-15150079D01*
X14201134Y-15150079D02*
X14210658Y-15131031D01*
X14210658Y-15131031D02*
X14220182Y-15102460D01*
X14220182Y-15102460D02*
X14229706Y-15054841D01*
X14229706Y-15054841D02*
X14229706Y-15016746D01*
X14229706Y-15016746D02*
X14220182Y-14969127D01*
X14220182Y-14969127D02*
X14210658Y-14940555D01*
X14210658Y-14940555D02*
X14201134Y-14921508D01*
X14201134Y-14921508D02*
X14182087Y-14892936D01*
X14182087Y-14892936D02*
X14172563Y-14883412D01*
D14*
X9379927Y-15326927D02*
X9379927Y-15242073D01*
X9295073Y-15242073D01*
X9295073Y-15326927D01*
X9379927Y-15326927D01*
D11*
X9763039Y-15375984D02*
X9648753Y-15375984D01*
X9705896Y-15375984D02*
X9705896Y-15175984D01*
X9705896Y-15175984D02*
X9686848Y-15204555D01*
X9686848Y-15204555D02*
X9667801Y-15223603D01*
X9667801Y-15223603D02*
X9648753Y-15233127D01*
X9848753Y-15356936D02*
X9858277Y-15366460D01*
X9858277Y-15366460D02*
X9848753Y-15375984D01*
X9848753Y-15375984D02*
X9839229Y-15366460D01*
X9839229Y-15366460D02*
X9848753Y-15356936D01*
X9848753Y-15356936D02*
X9848753Y-15375984D01*
X9934467Y-15195031D02*
X9943991Y-15185508D01*
X9943991Y-15185508D02*
X9963039Y-15175984D01*
X9963039Y-15175984D02*
X10010658Y-15175984D01*
X10010658Y-15175984D02*
X10029705Y-15185508D01*
X10029705Y-15185508D02*
X10039229Y-15195031D01*
X10039229Y-15195031D02*
X10048753Y-15214079D01*
X10048753Y-15214079D02*
X10048753Y-15233127D01*
X10048753Y-15233127D02*
X10039229Y-15261698D01*
X10039229Y-15261698D02*
X9924944Y-15375984D01*
X9924944Y-15375984D02*
X10048753Y-15375984D01*
X10172563Y-15175984D02*
X10191610Y-15175984D01*
X10191610Y-15175984D02*
X10210658Y-15185508D01*
X10210658Y-15185508D02*
X10220182Y-15195031D01*
X10220182Y-15195031D02*
X10229705Y-15214079D01*
X10229705Y-15214079D02*
X10239229Y-15252174D01*
X10239229Y-15252174D02*
X10239229Y-15299793D01*
X10239229Y-15299793D02*
X10229705Y-15337888D01*
X10229705Y-15337888D02*
X10220182Y-15356936D01*
X10220182Y-15356936D02*
X10210658Y-15366460D01*
X10210658Y-15366460D02*
X10191610Y-15375984D01*
X10191610Y-15375984D02*
X10172563Y-15375984D01*
X10172563Y-15375984D02*
X10153515Y-15366460D01*
X10153515Y-15366460D02*
X10143991Y-15356936D01*
X10143991Y-15356936D02*
X10134467Y-15337888D01*
X10134467Y-15337888D02*
X10124944Y-15299793D01*
X10124944Y-15299793D02*
X10124944Y-15252174D01*
X10124944Y-15252174D02*
X10134467Y-15214079D01*
X10134467Y-15214079D02*
X10143991Y-15195031D01*
X10143991Y-15195031D02*
X10153515Y-15185508D01*
X10153515Y-15185508D02*
X10172563Y-15175984D01*
X10363039Y-15175984D02*
X10382086Y-15175984D01*
X10382086Y-15175984D02*
X10401134Y-15185508D01*
X10401134Y-15185508D02*
X10410658Y-15195031D01*
X10410658Y-15195031D02*
X10420182Y-15214079D01*
X10420182Y-15214079D02*
X10429705Y-15252174D01*
X10429705Y-15252174D02*
X10429705Y-15299793D01*
X10429705Y-15299793D02*
X10420182Y-15337888D01*
X10420182Y-15337888D02*
X10410658Y-15356936D01*
X10410658Y-15356936D02*
X10401134Y-15366460D01*
X10401134Y-15366460D02*
X10382086Y-15375984D01*
X10382086Y-15375984D02*
X10363039Y-15375984D01*
X10363039Y-15375984D02*
X10343991Y-15366460D01*
X10343991Y-15366460D02*
X10334467Y-15356936D01*
X10334467Y-15356936D02*
X10324944Y-15337888D01*
X10324944Y-15337888D02*
X10315420Y-15299793D01*
X10315420Y-15299793D02*
X10315420Y-15252174D01*
X10315420Y-15252174D02*
X10324944Y-15214079D01*
X10324944Y-15214079D02*
X10334467Y-15195031D01*
X10334467Y-15195031D02*
X10343991Y-15185508D01*
X10343991Y-15185508D02*
X10363039Y-15175984D01*
X10515420Y-15375984D02*
X10515420Y-15242650D01*
X10515420Y-15261698D02*
X10524944Y-15252174D01*
X10524944Y-15252174D02*
X10543991Y-15242650D01*
X10543991Y-15242650D02*
X10572563Y-15242650D01*
X10572563Y-15242650D02*
X10591610Y-15252174D01*
X10591610Y-15252174D02*
X10601134Y-15271222D01*
X10601134Y-15271222D02*
X10601134Y-15375984D01*
X10601134Y-15271222D02*
X10610658Y-15252174D01*
X10610658Y-15252174D02*
X10629705Y-15242650D01*
X10629705Y-15242650D02*
X10658277Y-15242650D01*
X10658277Y-15242650D02*
X10677325Y-15252174D01*
X10677325Y-15252174D02*
X10686848Y-15271222D01*
X10686848Y-15271222D02*
X10686848Y-15375984D01*
X10782086Y-15375984D02*
X10782086Y-15242650D01*
X10782086Y-15261698D02*
X10791610Y-15252174D01*
X10791610Y-15252174D02*
X10810658Y-15242650D01*
X10810658Y-15242650D02*
X10839229Y-15242650D01*
X10839229Y-15242650D02*
X10858277Y-15252174D01*
X10858277Y-15252174D02*
X10867801Y-15271222D01*
X10867801Y-15271222D02*
X10867801Y-15375984D01*
X10867801Y-15271222D02*
X10877325Y-15252174D01*
X10877325Y-15252174D02*
X10896372Y-15242650D01*
X10896372Y-15242650D02*
X10924944Y-15242650D01*
X10924944Y-15242650D02*
X10943991Y-15252174D01*
X10943991Y-15252174D02*
X10953515Y-15271222D01*
X10953515Y-15271222D02*
X10953515Y-15375984D01*
X11343991Y-15166460D02*
X11172563Y-15423603D01*
X11601134Y-15175984D02*
X11620182Y-15175984D01*
X11620182Y-15175984D02*
X11639229Y-15185508D01*
X11639229Y-15185508D02*
X11648753Y-15195031D01*
X11648753Y-15195031D02*
X11658277Y-15214079D01*
X11658277Y-15214079D02*
X11667801Y-15252174D01*
X11667801Y-15252174D02*
X11667801Y-15299793D01*
X11667801Y-15299793D02*
X11658277Y-15337888D01*
X11658277Y-15337888D02*
X11648753Y-15356936D01*
X11648753Y-15356936D02*
X11639229Y-15366460D01*
X11639229Y-15366460D02*
X11620182Y-15375984D01*
X11620182Y-15375984D02*
X11601134Y-15375984D01*
X11601134Y-15375984D02*
X11582086Y-15366460D01*
X11582086Y-15366460D02*
X11572563Y-15356936D01*
X11572563Y-15356936D02*
X11563039Y-15337888D01*
X11563039Y-15337888D02*
X11553515Y-15299793D01*
X11553515Y-15299793D02*
X11553515Y-15252174D01*
X11553515Y-15252174D02*
X11563039Y-15214079D01*
X11563039Y-15214079D02*
X11572563Y-15195031D01*
X11572563Y-15195031D02*
X11582086Y-15185508D01*
X11582086Y-15185508D02*
X11601134Y-15175984D01*
X11753515Y-15356936D02*
X11763039Y-15366460D01*
X11763039Y-15366460D02*
X11753515Y-15375984D01*
X11753515Y-15375984D02*
X11743991Y-15366460D01*
X11743991Y-15366460D02*
X11753515Y-15356936D01*
X11753515Y-15356936D02*
X11753515Y-15375984D01*
X11886848Y-15175984D02*
X11905896Y-15175984D01*
X11905896Y-15175984D02*
X11924944Y-15185508D01*
X11924944Y-15185508D02*
X11934467Y-15195031D01*
X11934467Y-15195031D02*
X11943991Y-15214079D01*
X11943991Y-15214079D02*
X11953515Y-15252174D01*
X11953515Y-15252174D02*
X11953515Y-15299793D01*
X11953515Y-15299793D02*
X11943991Y-15337888D01*
X11943991Y-15337888D02*
X11934467Y-15356936D01*
X11934467Y-15356936D02*
X11924944Y-15366460D01*
X11924944Y-15366460D02*
X11905896Y-15375984D01*
X11905896Y-15375984D02*
X11886848Y-15375984D01*
X11886848Y-15375984D02*
X11867801Y-15366460D01*
X11867801Y-15366460D02*
X11858277Y-15356936D01*
X11858277Y-15356936D02*
X11848753Y-15337888D01*
X11848753Y-15337888D02*
X11839229Y-15299793D01*
X11839229Y-15299793D02*
X11839229Y-15252174D01*
X11839229Y-15252174D02*
X11848753Y-15214079D01*
X11848753Y-15214079D02*
X11858277Y-15195031D01*
X11858277Y-15195031D02*
X11867801Y-15185508D01*
X11867801Y-15185508D02*
X11886848Y-15175984D01*
X12124944Y-15242650D02*
X12124944Y-15375984D01*
X12077325Y-15166460D02*
X12029706Y-15309317D01*
X12029706Y-15309317D02*
X12153515Y-15309317D01*
X12210658Y-15175984D02*
X12343991Y-15175984D01*
X12343991Y-15175984D02*
X12258277Y-15375984D01*
X12410658Y-15195031D02*
X12420182Y-15185508D01*
X12420182Y-15185508D02*
X12439229Y-15175984D01*
X12439229Y-15175984D02*
X12486848Y-15175984D01*
X12486848Y-15175984D02*
X12505896Y-15185508D01*
X12505896Y-15185508D02*
X12515420Y-15195031D01*
X12515420Y-15195031D02*
X12524944Y-15214079D01*
X12524944Y-15214079D02*
X12524944Y-15233127D01*
X12524944Y-15233127D02*
X12515420Y-15261698D01*
X12515420Y-15261698D02*
X12401134Y-15375984D01*
X12401134Y-15375984D02*
X12524944Y-15375984D01*
X12601134Y-15175984D02*
X12601134Y-15214079D01*
X12677325Y-15175984D02*
X12677325Y-15214079D01*
X12972563Y-15452174D02*
X12963039Y-15442650D01*
X12963039Y-15442650D02*
X12943991Y-15414079D01*
X12943991Y-15414079D02*
X12934468Y-15395031D01*
X12934468Y-15395031D02*
X12924944Y-15366460D01*
X12924944Y-15366460D02*
X12915420Y-15318841D01*
X12915420Y-15318841D02*
X12915420Y-15280746D01*
X12915420Y-15280746D02*
X12924944Y-15233127D01*
X12924944Y-15233127D02*
X12934468Y-15204555D01*
X12934468Y-15204555D02*
X12943991Y-15185508D01*
X12943991Y-15185508D02*
X12963039Y-15156936D01*
X12963039Y-15156936D02*
X12972563Y-15147412D01*
X13153515Y-15375984D02*
X13039229Y-15375984D01*
X13096372Y-15375984D02*
X13096372Y-15175984D01*
X13096372Y-15175984D02*
X13077325Y-15204555D01*
X13077325Y-15204555D02*
X13058277Y-15223603D01*
X13058277Y-15223603D02*
X13039229Y-15233127D01*
X13324944Y-15175984D02*
X13286848Y-15175984D01*
X13286848Y-15175984D02*
X13267801Y-15185508D01*
X13267801Y-15185508D02*
X13258277Y-15195031D01*
X13258277Y-15195031D02*
X13239229Y-15223603D01*
X13239229Y-15223603D02*
X13229706Y-15261698D01*
X13229706Y-15261698D02*
X13229706Y-15337888D01*
X13229706Y-15337888D02*
X13239229Y-15356936D01*
X13239229Y-15356936D02*
X13248753Y-15366460D01*
X13248753Y-15366460D02*
X13267801Y-15375984D01*
X13267801Y-15375984D02*
X13305896Y-15375984D01*
X13305896Y-15375984D02*
X13324944Y-15366460D01*
X13324944Y-15366460D02*
X13334468Y-15356936D01*
X13334468Y-15356936D02*
X13343991Y-15337888D01*
X13343991Y-15337888D02*
X13343991Y-15290269D01*
X13343991Y-15290269D02*
X13334468Y-15271222D01*
X13334468Y-15271222D02*
X13324944Y-15261698D01*
X13324944Y-15261698D02*
X13305896Y-15252174D01*
X13305896Y-15252174D02*
X13267801Y-15252174D01*
X13267801Y-15252174D02*
X13248753Y-15261698D01*
X13248753Y-15261698D02*
X13239229Y-15271222D01*
X13239229Y-15271222D02*
X13229706Y-15290269D01*
X13582087Y-15375984D02*
X13582087Y-15175984D01*
X13667801Y-15375984D02*
X13667801Y-15271222D01*
X13667801Y-15271222D02*
X13658277Y-15252174D01*
X13658277Y-15252174D02*
X13639230Y-15242650D01*
X13639230Y-15242650D02*
X13610658Y-15242650D01*
X13610658Y-15242650D02*
X13591610Y-15252174D01*
X13591610Y-15252174D02*
X13582087Y-15261698D01*
X13791610Y-15375984D02*
X13772563Y-15366460D01*
X13772563Y-15366460D02*
X13763039Y-15356936D01*
X13763039Y-15356936D02*
X13753515Y-15337888D01*
X13753515Y-15337888D02*
X13753515Y-15280746D01*
X13753515Y-15280746D02*
X13763039Y-15261698D01*
X13763039Y-15261698D02*
X13772563Y-15252174D01*
X13772563Y-15252174D02*
X13791610Y-15242650D01*
X13791610Y-15242650D02*
X13820182Y-15242650D01*
X13820182Y-15242650D02*
X13839230Y-15252174D01*
X13839230Y-15252174D02*
X13848753Y-15261698D01*
X13848753Y-15261698D02*
X13858277Y-15280746D01*
X13858277Y-15280746D02*
X13858277Y-15337888D01*
X13858277Y-15337888D02*
X13848753Y-15356936D01*
X13848753Y-15356936D02*
X13839230Y-15366460D01*
X13839230Y-15366460D02*
X13820182Y-15375984D01*
X13820182Y-15375984D02*
X13791610Y-15375984D01*
X13972563Y-15375984D02*
X13953515Y-15366460D01*
X13953515Y-15366460D02*
X13943991Y-15347412D01*
X13943991Y-15347412D02*
X13943991Y-15175984D01*
X14124944Y-15366460D02*
X14105896Y-15375984D01*
X14105896Y-15375984D02*
X14067801Y-15375984D01*
X14067801Y-15375984D02*
X14048753Y-15366460D01*
X14048753Y-15366460D02*
X14039230Y-15347412D01*
X14039230Y-15347412D02*
X14039230Y-15271222D01*
X14039230Y-15271222D02*
X14048753Y-15252174D01*
X14048753Y-15252174D02*
X14067801Y-15242650D01*
X14067801Y-15242650D02*
X14105896Y-15242650D01*
X14105896Y-15242650D02*
X14124944Y-15252174D01*
X14124944Y-15252174D02*
X14134468Y-15271222D01*
X14134468Y-15271222D02*
X14134468Y-15290269D01*
X14134468Y-15290269D02*
X14039230Y-15309317D01*
X14210658Y-15366460D02*
X14229706Y-15375984D01*
X14229706Y-15375984D02*
X14267801Y-15375984D01*
X14267801Y-15375984D02*
X14286849Y-15366460D01*
X14286849Y-15366460D02*
X14296372Y-15347412D01*
X14296372Y-15347412D02*
X14296372Y-15337888D01*
X14296372Y-15337888D02*
X14286849Y-15318841D01*
X14286849Y-15318841D02*
X14267801Y-15309317D01*
X14267801Y-15309317D02*
X14239230Y-15309317D01*
X14239230Y-15309317D02*
X14220182Y-15299793D01*
X14220182Y-15299793D02*
X14210658Y-15280746D01*
X14210658Y-15280746D02*
X14210658Y-15271222D01*
X14210658Y-15271222D02*
X14220182Y-15252174D01*
X14220182Y-15252174D02*
X14239230Y-15242650D01*
X14239230Y-15242650D02*
X14267801Y-15242650D01*
X14267801Y-15242650D02*
X14286849Y-15252174D01*
X14363039Y-15452174D02*
X14372563Y-15442650D01*
X14372563Y-15442650D02*
X14391611Y-15414079D01*
X14391611Y-15414079D02*
X14401134Y-15395031D01*
X14401134Y-15395031D02*
X14410658Y-15366460D01*
X14410658Y-15366460D02*
X14420182Y-15318841D01*
X14420182Y-15318841D02*
X14420182Y-15280746D01*
X14420182Y-15280746D02*
X14410658Y-15233127D01*
X14410658Y-15233127D02*
X14401134Y-15204555D01*
X14401134Y-15204555D02*
X14391611Y-15185508D01*
X14391611Y-15185508D02*
X14372563Y-15156936D01*
X14372563Y-15156936D02*
X14363039Y-15147412D01*
M02*
