M48
; DRILL file {KiCad 9.0.0} date 2025-04-07T20:51:01+0530
; FORMAT={3:3/ absolute / metric / suppress leading zeros}
; #@! TF.CreationDate,2025-04-07T20:51:01+05:30
; #@! TF.GenerationSoftware,Kicad,Pcbnew,9.0.0
; #@! TF.FileFunction,Plated,1,2,PTH
FMAT,2
METRIC,TZ
; #@! TA.AperFunction,Plated,PTH,ViaDrill
T1C0.300
; #@! TA.AperFunction,Plated,PTH,ComponentDrill
T2C1.000
; #@! TA.AperFunction,Plated,PTH,ComponentDrill
T3C1.020
; #@! TA.AperFunction,Plated,PTH,ComponentDrill
T4C1.200
%
G90
G05
T1
X168500Y-89500
X173000Y-93000
T2
X105150Y-54175
X105150Y-56715
X105150Y-61795
X105150Y-64335
X107690Y-56715
X107690Y-61795
X128800Y-132000
X131340Y-132000
X133880Y-132000
X136420Y-132000
X137940Y-83740
X138960Y-132000
X140480Y-83740
X141500Y-132000
X143020Y-83740
X144040Y-132000
X145560Y-83740
X146580Y-132000
X148100Y-83740
X149120Y-132000
X150640Y-83740
X151660Y-132000
X153180Y-83740
X155720Y-83740
X155720Y-132000
X158260Y-132000
X160800Y-83740
X160800Y-132000
X163340Y-83740
X163340Y-132000
X165880Y-83740
X165880Y-132000
X168420Y-83740
X168420Y-132000
X170960Y-83740
X170960Y-132000
X173500Y-83740
X173500Y-132000
T3
X181630Y-95960
X184170Y-95960
X186710Y-95960
T4
X139350Y-37655
X141895Y-37658
X144430Y-37655
X146970Y-37655
X149510Y-37655
X152050Y-37655
X154590Y-37655
X157130Y-37655
X159670Y-37655
X162210Y-37655
X164750Y-37655
X167290Y-37655
X169830Y-37655
X172370Y-37655
X174915Y-37658
X177450Y-37655
M30
