%TF.GenerationSoftware,KiCad,Pcbnew,9.0.0*%
%TF.CreationDate,2025-04-07T20:50:54+05:30*%
%TF.ProjectId,PCB layout for IoT-based Automatic Door System,50434220-6c61-4796-9f75-7420666f7220,rev?*%
%TF.SameCoordinates,Original*%
%TF.FileFunction,Copper,L1,Top*%
%TF.FilePolarity,Positive*%
%FSLAX46Y46*%
G04 Gerber Fmt 4.6, Leading zero omitted, Abs format (unit mm)*
G04 Created by KiCad (PCBNEW 9.0.0) date 2025-04-07 20:50:54*
%MOMM*%
%LPD*%
G01*
G04 APERTURE LIST*
G04 Aperture macros list*
%AMRoundRect*
0 Rectangle with rounded corners*
0 $1 Rounding radius*
0 $2 $3 $4 $5 $6 $7 $8 $9 X,Y pos of 4 corners*
0 Add a 4 corners polygon primitive as box body*
4,1,4,$2,$3,$4,$5,$6,$7,$8,$9,$2,$3,0*
0 Add four circle primitives for the rounded corners*
1,1,$1+$1,$2,$3*
1,1,$1+$1,$4,$5*
1,1,$1+$1,$6,$7*
1,1,$1+$1,$8,$9*
0 Add four rect primitives between the rounded corners*
20,1,$1+$1,$2,$3,$4,$5,0*
20,1,$1+$1,$4,$5,$6,$7,0*
20,1,$1+$1,$6,$7,$8,$9,0*
20,1,$1+$1,$8,$9,$2,$3,0*%
G04 Aperture macros list end*
%TA.AperFunction,ComponentPad*%
%ADD10O,1.600000X1.600000*%
%TD*%
%TA.AperFunction,ComponentPad*%
%ADD11R,1.600000X1.600000*%
%TD*%
%TA.AperFunction,ComponentPad*%
%ADD12R,1.800000X2.600000*%
%TD*%
%TA.AperFunction,ComponentPad*%
%ADD13O,1.800000X2.600000*%
%TD*%
%TA.AperFunction,ComponentPad*%
%ADD14R,2.000000X2.000000*%
%TD*%
%TA.AperFunction,SMDPad,CuDef*%
%ADD15RoundRect,0.150000X-0.875000X-0.150000X0.875000X-0.150000X0.875000X0.150000X-0.875000X0.150000X0*%
%TD*%
%TA.AperFunction,ComponentPad*%
%ADD16R,1.730000X2.030000*%
%TD*%
%TA.AperFunction,ComponentPad*%
%ADD17O,1.730000X2.030000*%
%TD*%
%TA.AperFunction,ViaPad*%
%ADD18C,0.600000*%
%TD*%
%TA.AperFunction,Conductor*%
%ADD19C,0.200000*%
%TD*%
%ADD20O,1.600000X1.600000*%
%ADD21R,1.600000X1.600000*%
%ADD22C,2.500000*%
%ADD23R,1.800000X2.600000*%
%ADD24O,1.800000X2.600000*%
%ADD25R,2.000000X2.000000*%
%ADD26R,1.730000X2.030000*%
%ADD27O,1.730000X2.030000*%
%ADD28RoundRect,0.150000X-0.875000X-0.150000X0.875000X-0.150000X0.875000X0.150000X-0.875000X0.150000X0*%
%ADD29C,0.150000*%
%ADD30C,0.120000*%
%TA.AperFunction,Profile*%
%ADD31C,0.050000*%
%TD*%
G04 APERTURE END LIST*
D10*
%TO.P,A1,32,SCL/A5*%
%TO.N,unconnected-(A1-SCL{slash}A5-Pad32)*%
X128800000Y-132000000D03*
%TO.P,A1,31,SDA/A4*%
%TO.N,unconnected-(A1-SDA{slash}A4-Pad31)*%
X131340000Y-132000000D03*
%TO.P,A1,30,AREF*%
%TO.N,unconnected-(A1-AREF-Pad30)*%
X133880000Y-132000000D03*
%TO.P,A1,29,GND*%
%TO.N,GND*%
X136420000Y-132000000D03*
%TO.P,A1,28,D13*%
%TO.N,unconnected-(A1-D13-Pad28)*%
X138960000Y-132000000D03*
%TO.P,A1,27,D12*%
%TO.N,unconnected-(A1-D12-Pad27)*%
X141500000Y-132000000D03*
%TO.P,A1,26,D11*%
%TO.N,unconnected-(A1-D11-Pad26)*%
X144040000Y-132000000D03*
%TO.P,A1,25,D10*%
%TO.N,unconnected-(A1-D10-Pad25)*%
X146580000Y-132000000D03*
%TO.P,A1,24,D9*%
%TO.N,Net-(A1-D9)*%
X149120000Y-132000000D03*
%TO.P,A1,23,D8*%
%TO.N,unconnected-(A1-D8-Pad23)*%
X151660000Y-132000000D03*
%TO.P,A1,22,D7*%
%TO.N,unconnected-(A1-D7-Pad22)*%
X155720000Y-132000000D03*
%TO.P,A1,21,D6*%
%TO.N,unconnected-(A1-D6-Pad21)*%
X158260000Y-132000000D03*
%TO.P,A1,20,D5*%
%TO.N,unconnected-(A1-D5-Pad20)*%
X160800000Y-132000000D03*
%TO.P,A1,19,D4*%
%TO.N,unconnected-(A1-D4-Pad19)*%
X163340000Y-132000000D03*
%TO.P,A1,18,D3*%
%TO.N,unconnected-(A1-D3-Pad18)*%
X165880000Y-132000000D03*
%TO.P,A1,17,D2*%
%TO.N,unconnected-(A1-D2-Pad17)*%
X168420000Y-132000000D03*
%TO.P,A1,16,D1/TX*%
%TO.N,unconnected-(A1-D1{slash}TX-Pad16)*%
X170960000Y-132000000D03*
%TO.P,A1,15,D0/RX*%
%TO.N,unconnected-(A1-D0{slash}RX-Pad15)*%
X173500000Y-132000000D03*
%TO.P,A1,14,SCL/A5*%
%TO.N,Net-(U2-SCL)*%
X173500000Y-83740000D03*
%TO.P,A1,13,SDA/A4*%
%TO.N,Net-(U2-SDA)*%
X170960000Y-83740000D03*
%TO.P,A1,12,A3*%
%TO.N,unconnected-(A1-A3-Pad12)*%
X168420000Y-83740000D03*
%TO.P,A1,11,A2*%
%TO.N,unconnected-(A1-A2-Pad11)*%
X165880000Y-83740000D03*
%TO.P,A1,10,A1*%
%TO.N,unconnected-(A1-A1-Pad10)*%
X163340000Y-83740000D03*
%TO.P,A1,9,A0*%
%TO.N,unconnected-(A1-A0-Pad9)*%
X160800000Y-83740000D03*
%TO.P,A1,8,VIN*%
%TO.N,unconnected-(A1-VIN-Pad8)*%
X155720000Y-83740000D03*
%TO.P,A1,7,GND*%
%TO.N,Net-(M1--)*%
X153180000Y-83740000D03*
%TO.P,A1,6,GND*%
%TO.N,Net-(U2-GND)*%
X150640000Y-83740000D03*
%TO.P,A1,5,+5V*%
%TO.N,VCC*%
X148100000Y-83740000D03*
%TO.P,A1,4,3V3*%
%TO.N,unconnected-(A1-3V3-Pad4)*%
X145560000Y-83740000D03*
%TO.P,A1,3,~{RESET}*%
%TO.N,unconnected-(A1-~{RESET}-Pad3)*%
X143020000Y-83740000D03*
%TO.P,A1,2,IOREF*%
%TO.N,unconnected-(A1-IOREF-Pad2)*%
X140480000Y-83740000D03*
D11*
%TO.P,A1,1,NC*%
%TO.N,unconnected-(A1-NC-Pad1)*%
X137940000Y-83740000D03*
%TD*%
D12*
%TO.P,U1,1,VSS*%
%TO.N,unconnected-(U1-VSS-Pad1)*%
X144430000Y-37655000D03*
D13*
%TO.P,U1,2,VDD*%
%TO.N,unconnected-(U1-VDD-Pad2)*%
X146970000Y-37655000D03*
%TO.P,U1,3,VO*%
%TO.N,unconnected-(U1-VO-Pad3)*%
X149510000Y-37655000D03*
%TO.P,U1,4,RS*%
%TO.N,unconnected-(U1-RS-Pad4)*%
X152050000Y-37655000D03*
%TO.P,U1,5,R/W*%
%TO.N,unconnected-(U1-R{slash}W-Pad5)*%
X154590000Y-37655000D03*
%TO.P,U1,6,E*%
%TO.N,unconnected-(U1-E-Pad6)*%
X157130000Y-37655000D03*
%TO.P,U1,7,DB0*%
%TO.N,unconnected-(U1-DB0-Pad7)*%
X159670000Y-37655000D03*
%TO.P,U1,8,DB1*%
%TO.N,unconnected-(U1-DB1-Pad8)*%
X162210000Y-37655000D03*
%TO.P,U1,9,DB2*%
%TO.N,unconnected-(U1-DB2-Pad9)*%
X164750000Y-37655000D03*
%TO.P,U1,10,DB3*%
%TO.N,unconnected-(U1-DB3-Pad10)*%
X167290000Y-37655000D03*
%TO.P,U1,11,DB4*%
%TO.N,unconnected-(U1-DB4-Pad11)*%
X169830000Y-37655000D03*
%TO.P,U1,12,DB5*%
%TO.N,unconnected-(U1-DB5-Pad12)*%
X172370000Y-37655000D03*
%TO.P,U1,13,DB6*%
%TO.N,unconnected-(U1-DB6-Pad13)*%
X174915080Y-37657540D03*
%TO.P,U1,14,DB7*%
%TO.N,unconnected-(U1-DB7-Pad14)*%
X177450000Y-37655000D03*
%TO.P,U1,15,A/VEE*%
%TO.N,unconnected-(U1-A{slash}VEE-Pad15)*%
X139350000Y-37655000D03*
%TO.P,U1,16,K*%
%TO.N,unconnected-(U1-K-Pad16)*%
X141895080Y-37657540D03*
D14*
%TO.P,U1,A1*%
%TO.N,N/C*%
X105150000Y-61795000D03*
X105150000Y-64335000D03*
X107690000Y-61795000D03*
%TO.P,U1,K1*%
X105150000Y-54175000D03*
X105150000Y-56715000D03*
X107690000Y-56715000D03*
%TD*%
D15*
%TO.P,U2,1,A0*%
%TO.N,unconnected-(U2-A0-Pad1)*%
X181160000Y-82015000D03*
%TO.P,U2,2,A1*%
%TO.N,unconnected-(U2-A1-Pad2)*%
X181160000Y-83285000D03*
%TO.P,U2,3,A2*%
%TO.N,unconnected-(U2-A2-Pad3)*%
X181160000Y-84555000D03*
%TO.P,U2,4,P0*%
%TO.N,unconnected-(U2-P0-Pad4)*%
X181160000Y-85825000D03*
%TO.P,U2,5,P1*%
%TO.N,unconnected-(U2-P1-Pad5)*%
X181160000Y-87095000D03*
%TO.P,U2,6,P2*%
%TO.N,unconnected-(U2-P2-Pad6)*%
X181160000Y-88365000D03*
%TO.P,U2,7,P3*%
%TO.N,unconnected-(U2-P3-Pad7)*%
X181160000Y-89635000D03*
%TO.P,U2,8,GND*%
%TO.N,Net-(U2-GND)*%
X181160000Y-90905000D03*
%TO.P,U2,9,P4*%
%TO.N,unconnected-(U2-P4-Pad9)*%
X190460000Y-90905000D03*
%TO.P,U2,10,P5*%
%TO.N,unconnected-(U2-P5-Pad10)*%
X190460000Y-89635000D03*
%TO.P,U2,11,P6*%
%TO.N,unconnected-(U2-P6-Pad11)*%
X190460000Y-88365000D03*
%TO.P,U2,12,P7*%
%TO.N,unconnected-(U2-P7-Pad12)*%
X190460000Y-87095000D03*
%TO.P,U2,13,~{INT}*%
%TO.N,unconnected-(U2-~{INT}-Pad13)*%
X190460000Y-85825000D03*
%TO.P,U2,14,SCL*%
%TO.N,Net-(U2-SCL)*%
X190460000Y-84555000D03*
%TO.P,U2,15,SDA*%
%TO.N,Net-(U2-SDA)*%
X190460000Y-83285000D03*
%TO.P,U2,16,VDD*%
%TO.N,VCC*%
X190460000Y-82015000D03*
%TD*%
D16*
%TO.P,M1,1,PWM*%
%TO.N,Net-(A1-D9)*%
X181630000Y-95960000D03*
D17*
%TO.P,M1,2,+*%
%TO.N,unconnected-(M1-+-Pad2)*%
X184170000Y-95960000D03*
%TO.P,M1,3,-*%
%TO.N,Net-(M1--)*%
X186710000Y-95960000D03*
%TD*%
D18*
%TO.N,Net-(M1--)*%
X168500000Y-89500000D03*
X173000000Y-93000000D03*
%TD*%
D19*
%TO.N,VCC*%
X148100000Y-83740000D02*
X157840000Y-74000000D01*
X185701000Y-77256000D02*
X190460000Y-82015000D01*
X157840000Y-74000000D02*
X174500000Y-74000000D01*
X177756000Y-77256000D02*
X185701000Y-77256000D01*
X174500000Y-74000000D02*
X177756000Y-77256000D01*
%TO.N,Net-(U2-SDA)*%
X190063032Y-83285000D02*
X190460000Y-83285000D01*
X188124032Y-85224000D02*
X190063032Y-83285000D01*
X172444000Y-85224000D02*
X188124032Y-85224000D01*
X170960000Y-83740000D02*
X172444000Y-85224000D01*
%TO.N,Net-(M1--)*%
X177276000Y-97276000D02*
X173000000Y-93000000D01*
X168500000Y-89500000D02*
X158940000Y-89500000D01*
X185394000Y-97276000D02*
X177276000Y-97276000D01*
X158940000Y-89500000D02*
X153180000Y-83740000D01*
X186710000Y-95960000D02*
X185394000Y-97276000D01*
%TO.N,Net-(U2-GND)*%
X168595000Y-90905000D02*
X181160000Y-90905000D01*
X160400000Y-93500000D02*
X166000000Y-93500000D01*
X166000000Y-93500000D02*
X168595000Y-90905000D01*
X150640000Y-83740000D02*
X160400000Y-93500000D01*
%TO.N,Net-(A1-D9)*%
X149120000Y-116030057D02*
X172751057Y-92399000D01*
X172751057Y-92399000D02*
X178069000Y-92399000D01*
X178069000Y-92399000D02*
X181630000Y-95960000D01*
X149120000Y-132000000D02*
X149120000Y-116030057D01*
%TO.N,Net-(U2-SCL)*%
X174556000Y-82684000D02*
X191525968Y-82684000D01*
X173500000Y-83740000D02*
X174556000Y-82684000D01*
X191786000Y-82944032D02*
X191786000Y-84438000D01*
X191786000Y-84438000D02*
X191669000Y-84555000D01*
X191525968Y-82684000D02*
X191786000Y-82944032D01*
X191669000Y-84555000D02*
X190460000Y-84555000D01*
%TD*%
%TA.AperFunction,Conductor*%
%TO.N,GND*%
G36*
X200442539Y-30520185D02*
G01*
X200488294Y-30572989D01*
X200499500Y-30624500D01*
X200499500Y-137875500D01*
X200479815Y-137942539D01*
X200427011Y-137988294D01*
X200375500Y-137999500D01*
X94624500Y-137999500D01*
X94557461Y-137979815D01*
X94511706Y-137927011D01*
X94500500Y-137875500D01*
X94500500Y-132098543D01*
X127799499Y-132098543D01*
X127837947Y-132291829D01*
X127837950Y-132291839D01*
X127913364Y-132473907D01*
X127913371Y-132473920D01*
X128022860Y-132637781D01*
X128022863Y-132637785D01*
X128162214Y-132777136D01*
X128162218Y-132777139D01*
X128326079Y-132886628D01*
X128326092Y-132886635D01*
X128508160Y-132962049D01*
X128508165Y-132962051D01*
X128508169Y-132962051D01*
X128508170Y-132962052D01*
X128701456Y-133000500D01*
X128701459Y-133000500D01*
X128898543Y-133000500D01*
X129028582Y-132974632D01*
X129091835Y-132962051D01*
X129273914Y-132886632D01*
X129437782Y-132777139D01*
X129577139Y-132637782D01*
X129686632Y-132473914D01*
X129762051Y-132291835D01*
X129798034Y-132110938D01*
X129800500Y-132098543D01*
X130339499Y-132098543D01*
X130377947Y-132291829D01*
X130377950Y-132291839D01*
X130453364Y-132473907D01*
X130453371Y-132473920D01*
X130562860Y-132637781D01*
X130562863Y-132637785D01*
X130702214Y-132777136D01*
X130702218Y-132777139D01*
X130866079Y-132886628D01*
X130866092Y-132886635D01*
X131048160Y-132962049D01*
X131048165Y-132962051D01*
X131048169Y-132962051D01*
X131048170Y-132962052D01*
X131241456Y-133000500D01*
X131241459Y-133000500D01*
X131438543Y-133000500D01*
X131568582Y-132974632D01*
X131631835Y-132962051D01*
X131813914Y-132886632D01*
X131977782Y-132777139D01*
X132117139Y-132637782D01*
X132226632Y-132473914D01*
X132302051Y-132291835D01*
X132338034Y-132110938D01*
X132340500Y-132098543D01*
X132879499Y-132098543D01*
X132917947Y-132291829D01*
X132917950Y-132291839D01*
X132993364Y-132473907D01*
X132993371Y-132473920D01*
X133102860Y-132637781D01*
X133102863Y-132637785D01*
X133242214Y-132777136D01*
X133242218Y-132777139D01*
X133406079Y-132886628D01*
X133406092Y-132886635D01*
X133588160Y-132962049D01*
X133588165Y-132962051D01*
X133588169Y-132962051D01*
X133588170Y-132962052D01*
X133781456Y-133000500D01*
X133781459Y-133000500D01*
X133978543Y-133000500D01*
X134108582Y-132974632D01*
X134171835Y-132962051D01*
X134353914Y-132886632D01*
X134517782Y-132777139D01*
X134657139Y-132637782D01*
X134766632Y-132473914D01*
X134842051Y-132291835D01*
X134878034Y-132110937D01*
X134910419Y-132049027D01*
X134971134Y-132014453D01*
X135040904Y-132018192D01*
X135097576Y-132059059D01*
X135122124Y-132115731D01*
X135152009Y-132304417D01*
X135215244Y-132499031D01*
X135308140Y-132681349D01*
X135428417Y-132846894D01*
X135428417Y-132846895D01*
X135573104Y-132991582D01*
X135738650Y-133111859D01*
X135920968Y-133204754D01*
X136115578Y-133267988D01*
X136170000Y-133276607D01*
X136170000Y-132433012D01*
X136227007Y-132465925D01*
X136354174Y-132500000D01*
X136485826Y-132500000D01*
X136612993Y-132465925D01*
X136670000Y-132433012D01*
X136670000Y-133276606D01*
X136724421Y-133267988D01*
X136919031Y-133204754D01*
X137101349Y-133111859D01*
X137266894Y-132991582D01*
X137266895Y-132991582D01*
X137411582Y-132846895D01*
X137411582Y-132846894D01*
X137531859Y-132681349D01*
X137624755Y-132499031D01*
X137687990Y-132304417D01*
X137717875Y-132115731D01*
X137747804Y-132052596D01*
X137807116Y-132015665D01*
X137876978Y-132016663D01*
X137935211Y-132055273D01*
X137961965Y-132110937D01*
X137997947Y-132291829D01*
X137997950Y-132291839D01*
X138073364Y-132473907D01*
X138073371Y-132473920D01*
X138182860Y-132637781D01*
X138182863Y-132637785D01*
X138322214Y-132777136D01*
X138322218Y-132777139D01*
X138486079Y-132886628D01*
X138486092Y-132886635D01*
X138668160Y-132962049D01*
X138668165Y-132962051D01*
X138668169Y-132962051D01*
X138668170Y-132962052D01*
X138861456Y-133000500D01*
X138861459Y-133000500D01*
X139058543Y-133000500D01*
X139188582Y-132974632D01*
X139251835Y-132962051D01*
X139433914Y-132886632D01*
X139597782Y-132777139D01*
X139737139Y-132637782D01*
X139846632Y-132473914D01*
X139922051Y-132291835D01*
X139958034Y-132110938D01*
X139960500Y-132098543D01*
X140499499Y-132098543D01*
X140537947Y-132291829D01*
X140537950Y-132291839D01*
X140613364Y-132473907D01*
X140613371Y-132473920D01*
X140722860Y-132637781D01*
X140722863Y-132637785D01*
X140862214Y-132777136D01*
X140862218Y-132777139D01*
X141026079Y-132886628D01*
X141026092Y-132886635D01*
X141208160Y-132962049D01*
X141208165Y-132962051D01*
X141208169Y-132962051D01*
X141208170Y-132962052D01*
X141401456Y-133000500D01*
X141401459Y-133000500D01*
X141598543Y-133000500D01*
X141728582Y-132974632D01*
X141791835Y-132962051D01*
X141973914Y-132886632D01*
X142137782Y-132777139D01*
X142277139Y-132637782D01*
X142386632Y-132473914D01*
X142462051Y-132291835D01*
X142498034Y-132110938D01*
X142500500Y-132098543D01*
X143039499Y-132098543D01*
X143077947Y-132291829D01*
X143077950Y-132291839D01*
X143153364Y-132473907D01*
X143153371Y-132473920D01*
X143262860Y-132637781D01*
X143262863Y-132637785D01*
X143402214Y-132777136D01*
X143402218Y-132777139D01*
X143566079Y-132886628D01*
X143566092Y-132886635D01*
X143748160Y-132962049D01*
X143748165Y-132962051D01*
X143748169Y-132962051D01*
X143748170Y-132962052D01*
X143941456Y-133000500D01*
X143941459Y-133000500D01*
X144138543Y-133000500D01*
X144268582Y-132974632D01*
X144331835Y-132962051D01*
X144513914Y-132886632D01*
X144677782Y-132777139D01*
X144817139Y-132637782D01*
X144926632Y-132473914D01*
X145002051Y-132291835D01*
X145038034Y-132110938D01*
X145040500Y-132098543D01*
X145579499Y-132098543D01*
X145617947Y-132291829D01*
X145617950Y-132291839D01*
X145693364Y-132473907D01*
X145693371Y-132473920D01*
X145802860Y-132637781D01*
X145802863Y-132637785D01*
X145942214Y-132777136D01*
X145942218Y-132777139D01*
X146106079Y-132886628D01*
X146106092Y-132886635D01*
X146288160Y-132962049D01*
X146288165Y-132962051D01*
X146288169Y-132962051D01*
X146288170Y-132962052D01*
X146481456Y-133000500D01*
X146481459Y-133000500D01*
X146678543Y-133000500D01*
X146808582Y-132974632D01*
X146871835Y-132962051D01*
X147053914Y-132886632D01*
X147217782Y-132777139D01*
X147357139Y-132637782D01*
X147466632Y-132473914D01*
X147542051Y-132291835D01*
X147578034Y-132110938D01*
X147580500Y-132098543D01*
X148119499Y-132098543D01*
X148157947Y-132291829D01*
X148157950Y-132291839D01*
X148233364Y-132473907D01*
X148233371Y-132473920D01*
X148342860Y-132637781D01*
X148342863Y-132637785D01*
X148482214Y-132777136D01*
X148482218Y-132777139D01*
X148646079Y-132886628D01*
X148646092Y-132886635D01*
X148828160Y-132962049D01*
X148828165Y-132962051D01*
X148828169Y-132962051D01*
X148828170Y-132962052D01*
X149021456Y-133000500D01*
X149021459Y-133000500D01*
X149218543Y-133000500D01*
X149348582Y-132974632D01*
X149411835Y-132962051D01*
X149593914Y-132886632D01*
X149757782Y-132777139D01*
X149897139Y-132637782D01*
X150006632Y-132473914D01*
X150082051Y-132291835D01*
X150118034Y-132110938D01*
X150120500Y-132098543D01*
X150659499Y-132098543D01*
X150697947Y-132291829D01*
X150697950Y-132291839D01*
X150773364Y-132473907D01*
X150773371Y-132473920D01*
X150882860Y-132637781D01*
X150882863Y-132637785D01*
X151022214Y-132777136D01*
X151022218Y-132777139D01*
X151186079Y-132886628D01*
X151186092Y-132886635D01*
X151368160Y-132962049D01*
X151368165Y-132962051D01*
X151368169Y-132962051D01*
X151368170Y-132962052D01*
X151561456Y-133000500D01*
X151561459Y-133000500D01*
X151758543Y-133000500D01*
X151888582Y-132974632D01*
X151951835Y-132962051D01*
X152133914Y-132886632D01*
X152297782Y-132777139D01*
X152437139Y-132637782D01*
X152546632Y-132473914D01*
X152622051Y-132291835D01*
X152658034Y-132110938D01*
X152660500Y-132098543D01*
X154719499Y-132098543D01*
X154757947Y-132291829D01*
X154757950Y-132291839D01*
X154833364Y-132473907D01*
X154833371Y-132473920D01*
X154942860Y-132637781D01*
X154942863Y-132637785D01*
X155082214Y-132777136D01*
X155082218Y-132777139D01*
X155246079Y-132886628D01*
X155246092Y-132886635D01*
X155428160Y-132962049D01*
X155428165Y-132962051D01*
X155428169Y-132962051D01*
X155428170Y-132962052D01*
X155621456Y-133000500D01*
X155621459Y-133000500D01*
X155818543Y-133000500D01*
X155948582Y-132974632D01*
X156011835Y-132962051D01*
X156193914Y-132886632D01*
X156357782Y-132777139D01*
X156497139Y-132637782D01*
X156606632Y-132473914D01*
X156682051Y-132291835D01*
X156718034Y-132110938D01*
X156720500Y-132098543D01*
X157259499Y-132098543D01*
X157297947Y-132291829D01*
X157297950Y-132291839D01*
X157373364Y-132473907D01*
X157373371Y-132473920D01*
X157482860Y-132637781D01*
X157482863Y-132637785D01*
X157622214Y-132777136D01*
X157622218Y-132777139D01*
X157786079Y-132886628D01*
X157786092Y-132886635D01*
X157968160Y-132962049D01*
X157968165Y-132962051D01*
X157968169Y-132962051D01*
X157968170Y-132962052D01*
X158161456Y-133000500D01*
X158161459Y-133000500D01*
X158358543Y-133000500D01*
X158488582Y-132974632D01*
X158551835Y-132962051D01*
X158733914Y-132886632D01*
X158897782Y-132777139D01*
X159037139Y-132637782D01*
X159146632Y-132473914D01*
X159222051Y-132291835D01*
X159258034Y-132110938D01*
X159260500Y-132098543D01*
X159799499Y-132098543D01*
X159837947Y-132291829D01*
X159837950Y-132291839D01*
X159913364Y-132473907D01*
X159913371Y-132473920D01*
X160022860Y-132637781D01*
X160022863Y-132637785D01*
X160162214Y-132777136D01*
X160162218Y-132777139D01*
X160326079Y-132886628D01*
X160326092Y-132886635D01*
X160508160Y-132962049D01*
X160508165Y-132962051D01*
X160508169Y-132962051D01*
X160508170Y-132962052D01*
X160701456Y-133000500D01*
X160701459Y-133000500D01*
X160898543Y-133000500D01*
X161028582Y-132974632D01*
X161091835Y-132962051D01*
X161273914Y-132886632D01*
X161437782Y-132777139D01*
X161577139Y-132637782D01*
X161686632Y-132473914D01*
X161762051Y-132291835D01*
X161798034Y-132110938D01*
X161800500Y-132098543D01*
X162339499Y-132098543D01*
X162377947Y-132291829D01*
X162377950Y-132291839D01*
X162453364Y-132473907D01*
X162453371Y-132473920D01*
X162562860Y-132637781D01*
X162562863Y-132637785D01*
X162702214Y-132777136D01*
X162702218Y-132777139D01*
X162866079Y-132886628D01*
X162866092Y-132886635D01*
X163048160Y-132962049D01*
X163048165Y-132962051D01*
X163048169Y-132962051D01*
X163048170Y-132962052D01*
X163241456Y-133000500D01*
X163241459Y-133000500D01*
X163438543Y-133000500D01*
X163568582Y-132974632D01*
X163631835Y-132962051D01*
X163813914Y-132886632D01*
X163977782Y-132777139D01*
X164117139Y-132637782D01*
X164226632Y-132473914D01*
X164302051Y-132291835D01*
X164338034Y-132110938D01*
X164340500Y-132098543D01*
X164879499Y-132098543D01*
X164917947Y-132291829D01*
X164917950Y-132291839D01*
X164993364Y-132473907D01*
X164993371Y-132473920D01*
X165102860Y-132637781D01*
X165102863Y-132637785D01*
X165242214Y-132777136D01*
X165242218Y-132777139D01*
X165406079Y-132886628D01*
X165406092Y-132886635D01*
X165588160Y-132962049D01*
X165588165Y-132962051D01*
X165588169Y-132962051D01*
X165588170Y-132962052D01*
X165781456Y-133000500D01*
X165781459Y-133000500D01*
X165978543Y-133000500D01*
X166108582Y-132974632D01*
X166171835Y-132962051D01*
X166353914Y-132886632D01*
X166517782Y-132777139D01*
X166657139Y-132637782D01*
X166766632Y-132473914D01*
X166842051Y-132291835D01*
X166878034Y-132110938D01*
X166880500Y-132098543D01*
X167419499Y-132098543D01*
X167457947Y-132291829D01*
X167457950Y-132291839D01*
X167533364Y-132473907D01*
X167533371Y-132473920D01*
X167642860Y-132637781D01*
X167642863Y-132637785D01*
X167782214Y-132777136D01*
X167782218Y-132777139D01*
X167946079Y-132886628D01*
X167946092Y-132886635D01*
X168128160Y-132962049D01*
X168128165Y-132962051D01*
X168128169Y-132962051D01*
X168128170Y-132962052D01*
X168321456Y-133000500D01*
X168321459Y-133000500D01*
X168518543Y-133000500D01*
X168648582Y-132974632D01*
X168711835Y-132962051D01*
X168893914Y-132886632D01*
X169057782Y-132777139D01*
X169197139Y-132637782D01*
X169306632Y-132473914D01*
X169382051Y-132291835D01*
X169418034Y-132110938D01*
X169420500Y-132098543D01*
X169959499Y-132098543D01*
X169997947Y-132291829D01*
X169997950Y-132291839D01*
X170073364Y-132473907D01*
X170073371Y-132473920D01*
X170182860Y-132637781D01*
X170182863Y-132637785D01*
X170322214Y-132777136D01*
X170322218Y-132777139D01*
X170486079Y-132886628D01*
X170486092Y-132886635D01*
X170668160Y-132962049D01*
X170668165Y-132962051D01*
X170668169Y-132962051D01*
X170668170Y-132962052D01*
X170861456Y-133000500D01*
X170861459Y-133000500D01*
X171058543Y-133000500D01*
X171188582Y-132974632D01*
X171251835Y-132962051D01*
X171433914Y-132886632D01*
X171597782Y-132777139D01*
X171737139Y-132637782D01*
X171846632Y-132473914D01*
X171922051Y-132291835D01*
X171958034Y-132110938D01*
X171960500Y-132098543D01*
X172499499Y-132098543D01*
X172537947Y-132291829D01*
X172537950Y-132291839D01*
X172613364Y-132473907D01*
X172613371Y-132473920D01*
X172722860Y-132637781D01*
X172722863Y-132637785D01*
X172862214Y-132777136D01*
X172862218Y-132777139D01*
X173026079Y-132886628D01*
X173026092Y-132886635D01*
X173208160Y-132962049D01*
X173208165Y-132962051D01*
X173208169Y-132962051D01*
X173208170Y-132962052D01*
X173401456Y-133000500D01*
X173401459Y-133000500D01*
X173598543Y-133000500D01*
X173728582Y-132974632D01*
X173791835Y-132962051D01*
X173973914Y-132886632D01*
X174137782Y-132777139D01*
X174277139Y-132637782D01*
X174386632Y-132473914D01*
X174462051Y-132291835D01*
X174498034Y-132110938D01*
X174500500Y-132098543D01*
X174500500Y-131901456D01*
X174462052Y-131708170D01*
X174462051Y-131708169D01*
X174462051Y-131708165D01*
X174417207Y-131599901D01*
X174386635Y-131526092D01*
X174386628Y-131526079D01*
X174277139Y-131362218D01*
X174277136Y-131362214D01*
X174137785Y-131222863D01*
X174137781Y-131222860D01*
X173973920Y-131113371D01*
X173973907Y-131113364D01*
X173791839Y-131037950D01*
X173791829Y-131037947D01*
X173598543Y-130999500D01*
X173598541Y-130999500D01*
X173401459Y-130999500D01*
X173401457Y-130999500D01*
X173208170Y-131037947D01*
X173208160Y-131037950D01*
X173026092Y-131113364D01*
X173026079Y-131113371D01*
X172862218Y-131222860D01*
X172862214Y-131222863D01*
X172722863Y-131362214D01*
X172722860Y-131362218D01*
X172613371Y-131526079D01*
X172613364Y-131526092D01*
X172537950Y-131708160D01*
X172537947Y-131708170D01*
X172499500Y-131901456D01*
X172499500Y-131901459D01*
X172499500Y-132098541D01*
X172499500Y-132098543D01*
X172499499Y-132098543D01*
X171960500Y-132098543D01*
X171960500Y-131901456D01*
X171922052Y-131708170D01*
X171922051Y-131708169D01*
X171922051Y-131708165D01*
X171877207Y-131599901D01*
X171846635Y-131526092D01*
X171846628Y-131526079D01*
X171737139Y-131362218D01*
X171737136Y-131362214D01*
X171597785Y-131222863D01*
X171597781Y-131222860D01*
X171433920Y-131113371D01*
X171433907Y-131113364D01*
X171251839Y-131037950D01*
X171251829Y-131037947D01*
X171058543Y-130999500D01*
X171058541Y-130999500D01*
X170861459Y-130999500D01*
X170861457Y-130999500D01*
X170668170Y-131037947D01*
X170668160Y-131037950D01*
X170486092Y-131113364D01*
X170486079Y-131113371D01*
X170322218Y-131222860D01*
X170322214Y-131222863D01*
X170182863Y-131362214D01*
X170182860Y-131362218D01*
X170073371Y-131526079D01*
X170073364Y-131526092D01*
X169997950Y-131708160D01*
X169997947Y-131708170D01*
X169959500Y-131901456D01*
X169959500Y-131901459D01*
X169959500Y-132098541D01*
X169959500Y-132098543D01*
X169959499Y-132098543D01*
X169420500Y-132098543D01*
X169420500Y-131901456D01*
X169382052Y-131708170D01*
X169382051Y-131708169D01*
X169382051Y-131708165D01*
X169337207Y-131599901D01*
X169306635Y-131526092D01*
X169306628Y-131526079D01*
X169197139Y-131362218D01*
X169197136Y-131362214D01*
X169057785Y-131222863D01*
X169057781Y-131222860D01*
X168893920Y-131113371D01*
X168893907Y-131113364D01*
X168711839Y-131037950D01*
X168711829Y-131037947D01*
X168518543Y-130999500D01*
X168518541Y-130999500D01*
X168321459Y-130999500D01*
X168321457Y-130999500D01*
X168128170Y-131037947D01*
X168128160Y-131037950D01*
X167946092Y-131113364D01*
X167946079Y-131113371D01*
X167782218Y-131222860D01*
X167782214Y-131222863D01*
X167642863Y-131362214D01*
X167642860Y-131362218D01*
X167533371Y-131526079D01*
X167533364Y-131526092D01*
X167457950Y-131708160D01*
X167457947Y-131708170D01*
X167419500Y-131901456D01*
X167419500Y-131901459D01*
X167419500Y-132098541D01*
X167419500Y-132098543D01*
X167419499Y-132098543D01*
X166880500Y-132098543D01*
X166880500Y-131901456D01*
X166842052Y-131708170D01*
X166842051Y-131708169D01*
X166842051Y-131708165D01*
X166797207Y-131599901D01*
X166766635Y-131526092D01*
X166766628Y-131526079D01*
X166657139Y-131362218D01*
X166657136Y-131362214D01*
X166517785Y-131222863D01*
X166517781Y-131222860D01*
X166353920Y-131113371D01*
X166353907Y-131113364D01*
X166171839Y-131037950D01*
X166171829Y-131037947D01*
X165978543Y-130999500D01*
X165978541Y-130999500D01*
X165781459Y-130999500D01*
X165781457Y-130999500D01*
X165588170Y-131037947D01*
X165588160Y-131037950D01*
X165406092Y-131113364D01*
X165406079Y-131113371D01*
X165242218Y-131222860D01*
X165242214Y-131222863D01*
X165102863Y-131362214D01*
X165102860Y-131362218D01*
X164993371Y-131526079D01*
X164993364Y-131526092D01*
X164917950Y-131708160D01*
X164917947Y-131708170D01*
X164879500Y-131901456D01*
X164879500Y-131901459D01*
X164879500Y-132098541D01*
X164879500Y-132098543D01*
X164879499Y-132098543D01*
X164340500Y-132098543D01*
X164340500Y-131901456D01*
X164302052Y-131708170D01*
X164302051Y-131708169D01*
X164302051Y-131708165D01*
X164257207Y-131599901D01*
X164226635Y-131526092D01*
X164226628Y-131526079D01*
X164117139Y-131362218D01*
X164117136Y-131362214D01*
X163977785Y-131222863D01*
X163977781Y-131222860D01*
X163813920Y-131113371D01*
X163813907Y-131113364D01*
X163631839Y-131037950D01*
X163631829Y-131037947D01*
X163438543Y-130999500D01*
X163438541Y-130999500D01*
X163241459Y-130999500D01*
X163241457Y-130999500D01*
X163048170Y-131037947D01*
X163048160Y-131037950D01*
X162866092Y-131113364D01*
X162866079Y-131113371D01*
X162702218Y-131222860D01*
X162702214Y-131222863D01*
X162562863Y-131362214D01*
X162562860Y-131362218D01*
X162453371Y-131526079D01*
X162453364Y-131526092D01*
X162377950Y-131708160D01*
X162377947Y-131708170D01*
X162339500Y-131901456D01*
X162339500Y-131901459D01*
X162339500Y-132098541D01*
X162339500Y-132098543D01*
X162339499Y-132098543D01*
X161800500Y-132098543D01*
X161800500Y-131901456D01*
X161762052Y-131708170D01*
X161762051Y-131708169D01*
X161762051Y-131708165D01*
X161717207Y-131599901D01*
X161686635Y-131526092D01*
X161686628Y-131526079D01*
X161577139Y-131362218D01*
X161577136Y-131362214D01*
X161437785Y-131222863D01*
X161437781Y-131222860D01*
X161273920Y-131113371D01*
X161273907Y-131113364D01*
X161091839Y-131037950D01*
X161091829Y-131037947D01*
X160898543Y-130999500D01*
X160898541Y-130999500D01*
X160701459Y-130999500D01*
X160701457Y-130999500D01*
X160508170Y-131037947D01*
X160508160Y-131037950D01*
X160326092Y-131113364D01*
X160326079Y-131113371D01*
X160162218Y-131222860D01*
X160162214Y-131222863D01*
X160022863Y-131362214D01*
X160022860Y-131362218D01*
X159913371Y-131526079D01*
X159913364Y-131526092D01*
X159837950Y-131708160D01*
X159837947Y-131708170D01*
X159799500Y-131901456D01*
X159799500Y-131901459D01*
X159799500Y-132098541D01*
X159799500Y-132098543D01*
X159799499Y-132098543D01*
X159260500Y-132098543D01*
X159260500Y-131901456D01*
X159222052Y-131708170D01*
X159222051Y-131708169D01*
X159222051Y-131708165D01*
X159177207Y-131599901D01*
X159146635Y-131526092D01*
X159146628Y-131526079D01*
X159037139Y-131362218D01*
X159037136Y-131362214D01*
X158897785Y-131222863D01*
X158897781Y-131222860D01*
X158733920Y-131113371D01*
X158733907Y-131113364D01*
X158551839Y-131037950D01*
X158551829Y-131037947D01*
X158358543Y-130999500D01*
X158358541Y-130999500D01*
X158161459Y-130999500D01*
X158161457Y-130999500D01*
X157968170Y-131037947D01*
X157968160Y-131037950D01*
X157786092Y-131113364D01*
X157786079Y-131113371D01*
X157622218Y-131222860D01*
X157622214Y-131222863D01*
X157482863Y-131362214D01*
X157482860Y-131362218D01*
X157373371Y-131526079D01*
X157373364Y-131526092D01*
X157297950Y-131708160D01*
X157297947Y-131708170D01*
X157259500Y-131901456D01*
X157259500Y-131901459D01*
X157259500Y-132098541D01*
X157259500Y-132098543D01*
X157259499Y-132098543D01*
X156720500Y-132098543D01*
X156720500Y-131901456D01*
X156682052Y-131708170D01*
X156682051Y-131708169D01*
X156682051Y-131708165D01*
X156637207Y-131599901D01*
X156606635Y-131526092D01*
X156606628Y-131526079D01*
X156497139Y-131362218D01*
X156497136Y-131362214D01*
X156357785Y-131222863D01*
X156357781Y-131222860D01*
X156193920Y-131113371D01*
X156193907Y-131113364D01*
X156011839Y-131037950D01*
X156011829Y-131037947D01*
X155818543Y-130999500D01*
X155818541Y-130999500D01*
X155621459Y-130999500D01*
X155621457Y-130999500D01*
X155428170Y-131037947D01*
X155428160Y-131037950D01*
X155246092Y-131113364D01*
X155246079Y-131113371D01*
X155082218Y-131222860D01*
X155082214Y-131222863D01*
X154942863Y-131362214D01*
X154942860Y-131362218D01*
X154833371Y-131526079D01*
X154833364Y-131526092D01*
X154757950Y-131708160D01*
X154757947Y-131708170D01*
X154719500Y-131901456D01*
X154719500Y-131901459D01*
X154719500Y-132098541D01*
X154719500Y-132098543D01*
X154719499Y-132098543D01*
X152660500Y-132098543D01*
X152660500Y-131901456D01*
X152622052Y-131708170D01*
X152622051Y-131708169D01*
X152622051Y-131708165D01*
X152577207Y-131599901D01*
X152546635Y-131526092D01*
X152546628Y-131526079D01*
X152437139Y-131362218D01*
X152437136Y-131362214D01*
X152297785Y-131222863D01*
X152297781Y-131222860D01*
X152133920Y-131113371D01*
X152133907Y-131113364D01*
X151951839Y-131037950D01*
X151951829Y-131037947D01*
X151758543Y-130999500D01*
X151758541Y-130999500D01*
X151561459Y-130999500D01*
X151561457Y-130999500D01*
X151368170Y-131037947D01*
X151368160Y-131037950D01*
X151186092Y-131113364D01*
X151186079Y-131113371D01*
X151022218Y-131222860D01*
X151022214Y-131222863D01*
X150882863Y-131362214D01*
X150882860Y-131362218D01*
X150773371Y-131526079D01*
X150773364Y-131526092D01*
X150697950Y-131708160D01*
X150697947Y-131708170D01*
X150659500Y-131901456D01*
X150659500Y-131901459D01*
X150659500Y-132098541D01*
X150659500Y-132098543D01*
X150659499Y-132098543D01*
X150120500Y-132098543D01*
X150120500Y-131901456D01*
X150082052Y-131708170D01*
X150082051Y-131708169D01*
X150082051Y-131708165D01*
X150037207Y-131599901D01*
X150006635Y-131526092D01*
X150006628Y-131526079D01*
X149897139Y-131362218D01*
X149897136Y-131362214D01*
X149757785Y-131222863D01*
X149757781Y-131222860D01*
X149593920Y-131113371D01*
X149593910Y-131113366D01*
X149497047Y-131073244D01*
X149442644Y-131029403D01*
X149420579Y-130963109D01*
X149420500Y-130958683D01*
X149420500Y-116205889D01*
X149440185Y-116138850D01*
X149456814Y-116118213D01*
X172363790Y-93211236D01*
X172425111Y-93177753D01*
X172494803Y-93182737D01*
X172550736Y-93224609D01*
X172558855Y-93236917D01*
X172590993Y-93292579D01*
X172599500Y-93307314D01*
X172692686Y-93400500D01*
X172806814Y-93466392D01*
X172934108Y-93500500D01*
X172934110Y-93500500D01*
X173024167Y-93500500D01*
X173091206Y-93520185D01*
X173111848Y-93536819D01*
X177035540Y-97460511D01*
X177091489Y-97516460D01*
X177091491Y-97516461D01*
X177091495Y-97516464D01*
X177160004Y-97556017D01*
X177160011Y-97556021D01*
X177236438Y-97576500D01*
X177236440Y-97576500D01*
X185433560Y-97576500D01*
X185433562Y-97576500D01*
X185509989Y-97556021D01*
X185578511Y-97516460D01*
X185634460Y-97460511D01*
X186034694Y-97060275D01*
X186096015Y-97026792D01*
X186165706Y-97031776D01*
X186191265Y-97044857D01*
X186205296Y-97054233D01*
X186219888Y-97060277D01*
X186399205Y-97134553D01*
X186399209Y-97134553D01*
X186399210Y-97134554D01*
X186605054Y-97175500D01*
X186605057Y-97175500D01*
X186814945Y-97175500D01*
X186953433Y-97147952D01*
X187020795Y-97134553D01*
X187214703Y-97054233D01*
X187389216Y-96937628D01*
X187537628Y-96789216D01*
X187654233Y-96614703D01*
X187734553Y-96420795D01*
X187775500Y-96214943D01*
X187775500Y-95705057D01*
X187775500Y-95705054D01*
X187734554Y-95499210D01*
X187734553Y-95499209D01*
X187734553Y-95499205D01*
X187681379Y-95370833D01*
X187654234Y-95305298D01*
X187537626Y-95130781D01*
X187389218Y-94982373D01*
X187214701Y-94865765D01*
X187020795Y-94785447D01*
X187020789Y-94785445D01*
X186814945Y-94744500D01*
X186814943Y-94744500D01*
X186605057Y-94744500D01*
X186605055Y-94744500D01*
X186399210Y-94785445D01*
X186399204Y-94785447D01*
X186205298Y-94865765D01*
X186030781Y-94982373D01*
X185882373Y-95130781D01*
X185765765Y-95305298D01*
X185685447Y-95499204D01*
X185685445Y-95499210D01*
X185644500Y-95705054D01*
X185644500Y-95705057D01*
X185644500Y-96214943D01*
X185644500Y-96214945D01*
X185644499Y-96214945D01*
X185685445Y-96420789D01*
X185685448Y-96420798D01*
X185694390Y-96442387D01*
X185701857Y-96511856D01*
X185670581Y-96574335D01*
X185667509Y-96577518D01*
X185305848Y-96939181D01*
X185278920Y-96953884D01*
X185253102Y-96970477D01*
X185246901Y-96971368D01*
X185244525Y-96972666D01*
X185218167Y-96975500D01*
X185105145Y-96975500D01*
X185038106Y-96955815D01*
X184992351Y-96903011D01*
X184982407Y-96833853D01*
X185002042Y-96782610D01*
X185114234Y-96614701D01*
X185156834Y-96511856D01*
X185194553Y-96420795D01*
X185235500Y-96214943D01*
X185235500Y-95705057D01*
X185235500Y-95705054D01*
X185194554Y-95499210D01*
X185194553Y-95499209D01*
X185194553Y-95499205D01*
X185141379Y-95370833D01*
X185114234Y-95305298D01*
X184997626Y-95130781D01*
X184849218Y-94982373D01*
X184674701Y-94865765D01*
X184480795Y-94785447D01*
X184480789Y-94785445D01*
X184274945Y-94744500D01*
X184274943Y-94744500D01*
X184065057Y-94744500D01*
X184065055Y-94744500D01*
X183859210Y-94785445D01*
X183859204Y-94785447D01*
X183665298Y-94865765D01*
X183490781Y-94982373D01*
X183342373Y-95130781D01*
X183225765Y-95305298D01*
X183145447Y-95499204D01*
X183145445Y-95499210D01*
X183104500Y-95705054D01*
X183104500Y-95705057D01*
X183104500Y-96214943D01*
X183104500Y-96214945D01*
X183104499Y-96214945D01*
X183145445Y-96420789D01*
X183145447Y-96420795D01*
X183225765Y-96614701D01*
X183337958Y-96782610D01*
X183358835Y-96849287D01*
X183340350Y-96916667D01*
X183288371Y-96963357D01*
X183234855Y-96975500D01*
X182819500Y-96975500D01*
X182752461Y-96955815D01*
X182706706Y-96903011D01*
X182695500Y-96851500D01*
X182695500Y-94925249D01*
X182695499Y-94925247D01*
X182683868Y-94866770D01*
X182683867Y-94866769D01*
X182639552Y-94800447D01*
X182573230Y-94756132D01*
X182573229Y-94756131D01*
X182514752Y-94744500D01*
X182514748Y-94744500D01*
X180890833Y-94744500D01*
X180823794Y-94724815D01*
X180803152Y-94708181D01*
X178253512Y-92158541D01*
X178253504Y-92158535D01*
X178184995Y-92118982D01*
X178184990Y-92118979D01*
X178159513Y-92112152D01*
X178108562Y-92098500D01*
X172711495Y-92098500D01*
X172673281Y-92108739D01*
X172635066Y-92118979D01*
X172635061Y-92118982D01*
X172566552Y-92158535D01*
X172566544Y-92158541D01*
X148879541Y-115845544D01*
X148879535Y-115845552D01*
X148839982Y-115914061D01*
X148839979Y-115914066D01*
X148819500Y-115990496D01*
X148819500Y-130958683D01*
X148799815Y-131025722D01*
X148747011Y-131071477D01*
X148742953Y-131073244D01*
X148646089Y-131113366D01*
X148646079Y-131113371D01*
X148482218Y-131222860D01*
X148482214Y-131222863D01*
X148342863Y-131362214D01*
X148342860Y-131362218D01*
X148233371Y-131526079D01*
X148233364Y-131526092D01*
X148157950Y-131708160D01*
X148157947Y-131708170D01*
X148119500Y-131901456D01*
X148119500Y-131901459D01*
X148119500Y-132098541D01*
X148119500Y-132098543D01*
X148119499Y-132098543D01*
X147580500Y-132098543D01*
X147580500Y-131901456D01*
X147542052Y-131708170D01*
X147542051Y-131708169D01*
X147542051Y-131708165D01*
X147497207Y-131599901D01*
X147466635Y-131526092D01*
X147466628Y-131526079D01*
X147357139Y-131362218D01*
X147357136Y-131362214D01*
X147217785Y-131222863D01*
X147217781Y-131222860D01*
X147053920Y-131113371D01*
X147053907Y-131113364D01*
X146871839Y-131037950D01*
X146871829Y-131037947D01*
X146678543Y-130999500D01*
X146678541Y-130999500D01*
X146481459Y-130999500D01*
X146481457Y-130999500D01*
X146288170Y-131037947D01*
X146288160Y-131037950D01*
X146106092Y-131113364D01*
X146106079Y-131113371D01*
X145942218Y-131222860D01*
X145942214Y-131222863D01*
X145802863Y-131362214D01*
X145802860Y-131362218D01*
X145693371Y-131526079D01*
X145693364Y-131526092D01*
X145617950Y-131708160D01*
X145617947Y-131708170D01*
X145579500Y-131901456D01*
X145579500Y-131901459D01*
X145579500Y-132098541D01*
X145579500Y-132098543D01*
X145579499Y-132098543D01*
X145040500Y-132098543D01*
X145040500Y-131901456D01*
X145002052Y-131708170D01*
X145002051Y-131708169D01*
X145002051Y-131708165D01*
X144957207Y-131599901D01*
X144926635Y-131526092D01*
X144926628Y-131526079D01*
X144817139Y-131362218D01*
X144817136Y-131362214D01*
X144677785Y-131222863D01*
X144677781Y-131222860D01*
X144513920Y-131113371D01*
X144513907Y-131113364D01*
X144331839Y-131037950D01*
X144331829Y-131037947D01*
X144138543Y-130999500D01*
X144138541Y-130999500D01*
X143941459Y-130999500D01*
X143941457Y-130999500D01*
X143748170Y-131037947D01*
X143748160Y-131037950D01*
X143566092Y-131113364D01*
X143566079Y-131113371D01*
X143402218Y-131222860D01*
X143402214Y-131222863D01*
X143262863Y-131362214D01*
X143262860Y-131362218D01*
X143153371Y-131526079D01*
X143153364Y-131526092D01*
X143077950Y-131708160D01*
X143077947Y-131708170D01*
X143039500Y-131901456D01*
X143039500Y-131901459D01*
X143039500Y-132098541D01*
X143039500Y-132098543D01*
X143039499Y-132098543D01*
X142500500Y-132098543D01*
X142500500Y-131901456D01*
X142462052Y-131708170D01*
X142462051Y-131708169D01*
X142462051Y-131708165D01*
X142417207Y-131599901D01*
X142386635Y-131526092D01*
X142386628Y-131526079D01*
X142277139Y-131362218D01*
X142277136Y-131362214D01*
X142137785Y-131222863D01*
X142137781Y-131222860D01*
X141973920Y-131113371D01*
X141973907Y-131113364D01*
X141791839Y-131037950D01*
X141791829Y-131037947D01*
X141598543Y-130999500D01*
X141598541Y-130999500D01*
X141401459Y-130999500D01*
X141401457Y-130999500D01*
X141208170Y-131037947D01*
X141208160Y-131037950D01*
X141026092Y-131113364D01*
X141026079Y-131113371D01*
X140862218Y-131222860D01*
X140862214Y-131222863D01*
X140722863Y-131362214D01*
X140722860Y-131362218D01*
X140613371Y-131526079D01*
X140613364Y-131526092D01*
X140537950Y-131708160D01*
X140537947Y-131708170D01*
X140499500Y-131901456D01*
X140499500Y-131901459D01*
X140499500Y-132098541D01*
X140499500Y-132098543D01*
X140499499Y-132098543D01*
X139960500Y-132098543D01*
X139960500Y-131901456D01*
X139922052Y-131708170D01*
X139922051Y-131708169D01*
X139922051Y-131708165D01*
X139877207Y-131599901D01*
X139846635Y-131526092D01*
X139846628Y-131526079D01*
X139737139Y-131362218D01*
X139737136Y-131362214D01*
X139597785Y-131222863D01*
X139597781Y-131222860D01*
X139433920Y-131113371D01*
X139433907Y-131113364D01*
X139251839Y-131037950D01*
X139251829Y-131037947D01*
X139058543Y-130999500D01*
X139058541Y-130999500D01*
X138861459Y-130999500D01*
X138861457Y-130999500D01*
X138668170Y-131037947D01*
X138668160Y-131037950D01*
X138486092Y-131113364D01*
X138486079Y-131113371D01*
X138322218Y-131222860D01*
X138322214Y-131222863D01*
X138182863Y-131362214D01*
X138182860Y-131362218D01*
X138073371Y-131526079D01*
X138073364Y-131526092D01*
X137997950Y-131708160D01*
X137997947Y-131708170D01*
X137961965Y-131889062D01*
X137929580Y-131950973D01*
X137868864Y-131985547D01*
X137799094Y-131981806D01*
X137742423Y-131940940D01*
X137717875Y-131884268D01*
X137687990Y-131695582D01*
X137624755Y-131500968D01*
X137531859Y-131318650D01*
X137411582Y-131153105D01*
X137411582Y-131153104D01*
X137266895Y-131008417D01*
X137101349Y-130888140D01*
X136919029Y-130795244D01*
X136724413Y-130732009D01*
X136670000Y-130723390D01*
X136670000Y-131566988D01*
X136612993Y-131534075D01*
X136485826Y-131500000D01*
X136354174Y-131500000D01*
X136227007Y-131534075D01*
X136170000Y-131566988D01*
X136170000Y-130723390D01*
X136115586Y-130732009D01*
X135920970Y-130795244D01*
X135738650Y-130888140D01*
X135573105Y-131008417D01*
X135573104Y-131008417D01*
X135428417Y-131153104D01*
X135428417Y-131153105D01*
X135308140Y-131318650D01*
X135215244Y-131500968D01*
X135152010Y-131695581D01*
X135122124Y-131884269D01*
X135092194Y-131947403D01*
X135032883Y-131984334D01*
X134963020Y-131983336D01*
X134904788Y-131944726D01*
X134878034Y-131889061D01*
X134842052Y-131708172D01*
X134842052Y-131708170D01*
X134842051Y-131708165D01*
X134797207Y-131599901D01*
X134766635Y-131526092D01*
X134766628Y-131526079D01*
X134657139Y-131362218D01*
X134657136Y-131362214D01*
X134517785Y-131222863D01*
X134517781Y-131222860D01*
X134353920Y-131113371D01*
X134353907Y-131113364D01*
X134171839Y-131037950D01*
X134171829Y-131037947D01*
X133978543Y-130999500D01*
X133978541Y-130999500D01*
X133781459Y-130999500D01*
X133781457Y-130999500D01*
X133588170Y-131037947D01*
X133588160Y-131037950D01*
X133406092Y-131113364D01*
X133406079Y-131113371D01*
X133242218Y-131222860D01*
X133242214Y-131222863D01*
X133102863Y-131362214D01*
X133102860Y-131362218D01*
X132993371Y-131526079D01*
X132993364Y-131526092D01*
X132917950Y-131708160D01*
X132917947Y-131708170D01*
X132879500Y-131901456D01*
X132879500Y-131901459D01*
X132879500Y-132098541D01*
X132879500Y-132098543D01*
X132879499Y-132098543D01*
X132340500Y-132098543D01*
X132340500Y-131901456D01*
X132302052Y-131708170D01*
X132302051Y-131708169D01*
X132302051Y-131708165D01*
X132257207Y-131599901D01*
X132226635Y-131526092D01*
X132226628Y-131526079D01*
X132117139Y-131362218D01*
X132117136Y-131362214D01*
X131977785Y-131222863D01*
X131977781Y-131222860D01*
X131813920Y-131113371D01*
X131813907Y-131113364D01*
X131631839Y-131037950D01*
X131631829Y-131037947D01*
X131438543Y-130999500D01*
X131438541Y-130999500D01*
X131241459Y-130999500D01*
X131241457Y-130999500D01*
X131048170Y-131037947D01*
X131048160Y-131037950D01*
X130866092Y-131113364D01*
X130866079Y-131113371D01*
X130702218Y-131222860D01*
X130702214Y-131222863D01*
X130562863Y-131362214D01*
X130562860Y-131362218D01*
X130453371Y-131526079D01*
X130453364Y-131526092D01*
X130377950Y-131708160D01*
X130377947Y-131708170D01*
X130339500Y-131901456D01*
X130339500Y-131901459D01*
X130339500Y-132098541D01*
X130339500Y-132098543D01*
X130339499Y-132098543D01*
X129800500Y-132098543D01*
X129800500Y-131901456D01*
X129762052Y-131708170D01*
X129762051Y-131708169D01*
X129762051Y-131708165D01*
X129717207Y-131599901D01*
X129686635Y-131526092D01*
X129686628Y-131526079D01*
X129577139Y-131362218D01*
X129577136Y-131362214D01*
X129437785Y-131222863D01*
X129437781Y-131222860D01*
X129273920Y-131113371D01*
X129273907Y-131113364D01*
X129091839Y-131037950D01*
X129091829Y-131037947D01*
X128898543Y-130999500D01*
X128898541Y-130999500D01*
X128701459Y-130999500D01*
X128701457Y-130999500D01*
X128508170Y-131037947D01*
X128508160Y-131037950D01*
X128326092Y-131113364D01*
X128326079Y-131113371D01*
X128162218Y-131222860D01*
X128162214Y-131222863D01*
X128022863Y-131362214D01*
X128022860Y-131362218D01*
X127913371Y-131526079D01*
X127913364Y-131526092D01*
X127837950Y-131708160D01*
X127837947Y-131708170D01*
X127799500Y-131901456D01*
X127799500Y-131901459D01*
X127799500Y-132098541D01*
X127799500Y-132098543D01*
X127799499Y-132098543D01*
X94500500Y-132098543D01*
X94500500Y-82920247D01*
X136939500Y-82920247D01*
X136939500Y-84559750D01*
X136951131Y-84618229D01*
X136951132Y-84618230D01*
X136995447Y-84684552D01*
X137061769Y-84728867D01*
X137061770Y-84728868D01*
X137120247Y-84740499D01*
X137120250Y-84740500D01*
X137120252Y-84740500D01*
X138759750Y-84740500D01*
X138759751Y-84740499D01*
X138774568Y-84737552D01*
X138818229Y-84728868D01*
X138818229Y-84728867D01*
X138818231Y-84728867D01*
X138884552Y-84684552D01*
X138928867Y-84618231D01*
X138928867Y-84618229D01*
X138928868Y-84618229D01*
X138940500Y-84559750D01*
X138940500Y-83838543D01*
X139479499Y-83838543D01*
X139517947Y-84031829D01*
X139517950Y-84031839D01*
X139593364Y-84213907D01*
X139593371Y-84213920D01*
X139702860Y-84377781D01*
X139702863Y-84377785D01*
X139842214Y-84517136D01*
X139842218Y-84517139D01*
X140006079Y-84626628D01*
X140006092Y-84626635D01*
X140156188Y-84688806D01*
X140188165Y-84702051D01*
X140188169Y-84702051D01*
X140188170Y-84702052D01*
X140381456Y-84740500D01*
X140381459Y-84740500D01*
X140578543Y-84740500D01*
X140708582Y-84714632D01*
X140771835Y-84702051D01*
X140953914Y-84626632D01*
X141117782Y-84517139D01*
X141257139Y-84377782D01*
X141366632Y-84213914D01*
X141442051Y-84031835D01*
X141466385Y-83909500D01*
X141480500Y-83838543D01*
X142019499Y-83838543D01*
X142057947Y-84031829D01*
X142057950Y-84031839D01*
X142133364Y-84213907D01*
X142133371Y-84213920D01*
X142242860Y-84377781D01*
X142242863Y-84377785D01*
X142382214Y-84517136D01*
X142382218Y-84517139D01*
X142546079Y-84626628D01*
X142546092Y-84626635D01*
X142696188Y-84688806D01*
X142728165Y-84702051D01*
X142728169Y-84702051D01*
X142728170Y-84702052D01*
X142921456Y-84740500D01*
X142921459Y-84740500D01*
X143118543Y-84740500D01*
X143248582Y-84714632D01*
X143311835Y-84702051D01*
X143493914Y-84626632D01*
X143657782Y-84517139D01*
X143797139Y-84377782D01*
X143906632Y-84213914D01*
X143982051Y-84031835D01*
X144006385Y-83909500D01*
X144020500Y-83838543D01*
X144559499Y-83838543D01*
X144597947Y-84031829D01*
X144597950Y-84031839D01*
X144673364Y-84213907D01*
X144673371Y-84213920D01*
X144782860Y-84377781D01*
X144782863Y-84377785D01*
X144922214Y-84517136D01*
X144922218Y-84517139D01*
X145086079Y-84626628D01*
X145086092Y-84626635D01*
X145236188Y-84688806D01*
X145268165Y-84702051D01*
X145268169Y-84702051D01*
X145268170Y-84702052D01*
X145461456Y-84740500D01*
X145461459Y-84740500D01*
X145658543Y-84740500D01*
X145788582Y-84714632D01*
X145851835Y-84702051D01*
X146033914Y-84626632D01*
X146197782Y-84517139D01*
X146337139Y-84377782D01*
X146446632Y-84213914D01*
X146522051Y-84031835D01*
X146546385Y-83909500D01*
X146560500Y-83838543D01*
X147099499Y-83838543D01*
X147137947Y-84031829D01*
X147137950Y-84031839D01*
X147213364Y-84213907D01*
X147213371Y-84213920D01*
X147322860Y-84377781D01*
X147322863Y-84377785D01*
X147462214Y-84517136D01*
X147462218Y-84517139D01*
X147626079Y-84626628D01*
X147626092Y-84626635D01*
X147776188Y-84688806D01*
X147808165Y-84702051D01*
X147808169Y-84702051D01*
X147808170Y-84702052D01*
X148001456Y-84740500D01*
X148001459Y-84740500D01*
X148198543Y-84740500D01*
X148328582Y-84714632D01*
X148391835Y-84702051D01*
X148573914Y-84626632D01*
X148737782Y-84517139D01*
X148877139Y-84377782D01*
X148986632Y-84213914D01*
X149062051Y-84031835D01*
X149086385Y-83909500D01*
X149100500Y-83838543D01*
X149639499Y-83838543D01*
X149677947Y-84031829D01*
X149677950Y-84031839D01*
X149753364Y-84213907D01*
X149753371Y-84213920D01*
X149862860Y-84377781D01*
X149862863Y-84377785D01*
X150002214Y-84517136D01*
X150002218Y-84517139D01*
X150166079Y-84626628D01*
X150166092Y-84626635D01*
X150316188Y-84688806D01*
X150348165Y-84702051D01*
X150348169Y-84702051D01*
X150348170Y-84702052D01*
X150541456Y-84740500D01*
X150541459Y-84740500D01*
X150738543Y-84740500D01*
X150868582Y-84714632D01*
X150931835Y-84702051D01*
X151028702Y-84661926D01*
X151098169Y-84654457D01*
X151160649Y-84685731D01*
X151163835Y-84688806D01*
X160159540Y-93684511D01*
X160215489Y-93740460D01*
X160215491Y-93740461D01*
X160215495Y-93740464D01*
X160284004Y-93780017D01*
X160284011Y-93780021D01*
X160360438Y-93800500D01*
X160360440Y-93800500D01*
X166039560Y-93800500D01*
X166039562Y-93800500D01*
X166115989Y-93780021D01*
X166184511Y-93740460D01*
X166240460Y-93684511D01*
X168683152Y-91241819D01*
X168744475Y-91208334D01*
X168770833Y-91205500D01*
X179892003Y-91205500D01*
X179959042Y-91225185D01*
X179992923Y-91257450D01*
X179995805Y-91261487D01*
X180078514Y-91344196D01*
X180078515Y-91344196D01*
X180078517Y-91344198D01*
X180183607Y-91395573D01*
X180217673Y-91400536D01*
X180251739Y-91405500D01*
X180251740Y-91405500D01*
X182068261Y-91405500D01*
X182090971Y-91402191D01*
X182136393Y-91395573D01*
X182241483Y-91344198D01*
X182324198Y-91261483D01*
X182375573Y-91156393D01*
X182385500Y-91088260D01*
X182385500Y-90721740D01*
X182385500Y-90721739D01*
X189234500Y-90721739D01*
X189234500Y-91088260D01*
X189244426Y-91156391D01*
X189295803Y-91261485D01*
X189378514Y-91344196D01*
X189378515Y-91344196D01*
X189378517Y-91344198D01*
X189483607Y-91395573D01*
X189517673Y-91400536D01*
X189551739Y-91405500D01*
X189551740Y-91405500D01*
X191368261Y-91405500D01*
X191390971Y-91402191D01*
X191436393Y-91395573D01*
X191541483Y-91344198D01*
X191624198Y-91261483D01*
X191675573Y-91156393D01*
X191685500Y-91088260D01*
X191685500Y-90721740D01*
X191675573Y-90653607D01*
X191624198Y-90548517D01*
X191624196Y-90548515D01*
X191624196Y-90548514D01*
X191541485Y-90465803D01*
X191436391Y-90414426D01*
X191368261Y-90404500D01*
X191368260Y-90404500D01*
X189551740Y-90404500D01*
X189551739Y-90404500D01*
X189483608Y-90414426D01*
X189378514Y-90465803D01*
X189295803Y-90548514D01*
X189244427Y-90653607D01*
X189234500Y-90721739D01*
X182385500Y-90721739D01*
X182375573Y-90653607D01*
X182324198Y-90548517D01*
X182324196Y-90548515D01*
X182324196Y-90548514D01*
X182241485Y-90465803D01*
X182136391Y-90414426D01*
X182068261Y-90404500D01*
X182068260Y-90404500D01*
X180251740Y-90404500D01*
X180251739Y-90404500D01*
X180183608Y-90414426D01*
X180078514Y-90465803D01*
X179995805Y-90548512D01*
X179992923Y-90552550D01*
X179937949Y-90595674D01*
X179892003Y-90604500D01*
X168555438Y-90604500D01*
X168524867Y-90612691D01*
X168479008Y-90624979D01*
X168479007Y-90624980D01*
X168429427Y-90653606D01*
X168429426Y-90653607D01*
X168410490Y-90664539D01*
X168410487Y-90664541D01*
X165911848Y-93163181D01*
X165850525Y-93196666D01*
X165824167Y-93199500D01*
X160575833Y-93199500D01*
X160508794Y-93179815D01*
X160488152Y-93163181D01*
X151588806Y-84263835D01*
X151555321Y-84202512D01*
X151560305Y-84132820D01*
X151561910Y-84128743D01*
X151602051Y-84031835D01*
X151626385Y-83909500D01*
X151640500Y-83838543D01*
X152179499Y-83838543D01*
X152217947Y-84031829D01*
X152217950Y-84031839D01*
X152293364Y-84213907D01*
X152293371Y-84213920D01*
X152402860Y-84377781D01*
X152402863Y-84377785D01*
X152542214Y-84517136D01*
X152542218Y-84517139D01*
X152706079Y-84626628D01*
X152706092Y-84626635D01*
X152856188Y-84688806D01*
X152888165Y-84702051D01*
X152888169Y-84702051D01*
X152888170Y-84702052D01*
X153081456Y-84740500D01*
X153081459Y-84740500D01*
X153278543Y-84740500D01*
X153408582Y-84714632D01*
X153471835Y-84702051D01*
X153568702Y-84661926D01*
X153638169Y-84654457D01*
X153700649Y-84685731D01*
X153703835Y-84688806D01*
X158699540Y-89684511D01*
X158755489Y-89740460D01*
X158755491Y-89740461D01*
X158755495Y-89740464D01*
X158824004Y-89780017D01*
X158824011Y-89780021D01*
X158900438Y-89800500D01*
X158979562Y-89800500D01*
X168041324Y-89800500D01*
X168108363Y-89820185D01*
X168129005Y-89836819D01*
X168192686Y-89900500D01*
X168306814Y-89966392D01*
X168434108Y-90000500D01*
X168434110Y-90000500D01*
X168565890Y-90000500D01*
X168565892Y-90000500D01*
X168693186Y-89966392D01*
X168807314Y-89900500D01*
X168900500Y-89807314D01*
X168966392Y-89693186D01*
X169000500Y-89565892D01*
X169000500Y-89451739D01*
X179934500Y-89451739D01*
X179934500Y-89818260D01*
X179944426Y-89886391D01*
X179995803Y-89991485D01*
X180078514Y-90074196D01*
X180078515Y-90074196D01*
X180078517Y-90074198D01*
X180183607Y-90125573D01*
X180217673Y-90130536D01*
X180251739Y-90135500D01*
X180251740Y-90135500D01*
X182068261Y-90135500D01*
X182090971Y-90132191D01*
X182136393Y-90125573D01*
X182241483Y-90074198D01*
X182324198Y-89991483D01*
X182375573Y-89886393D01*
X182385500Y-89818260D01*
X182385500Y-89451740D01*
X182385500Y-89451739D01*
X189234500Y-89451739D01*
X189234500Y-89818260D01*
X189244426Y-89886391D01*
X189295803Y-89991485D01*
X189378514Y-90074196D01*
X189378515Y-90074196D01*
X189378517Y-90074198D01*
X189483607Y-90125573D01*
X189517673Y-90130536D01*
X189551739Y-90135500D01*
X189551740Y-90135500D01*
X191368261Y-90135500D01*
X191390971Y-90132191D01*
X191436393Y-90125573D01*
X191541483Y-90074198D01*
X191624198Y-89991483D01*
X191675573Y-89886393D01*
X191685500Y-89818260D01*
X191685500Y-89451740D01*
X191675573Y-89383607D01*
X191624198Y-89278517D01*
X191624196Y-89278515D01*
X191624196Y-89278514D01*
X191541485Y-89195803D01*
X191436391Y-89144426D01*
X191368261Y-89134500D01*
X191368260Y-89134500D01*
X189551740Y-89134500D01*
X189551739Y-89134500D01*
X189483608Y-89144426D01*
X189378514Y-89195803D01*
X189295803Y-89278514D01*
X189244426Y-89383608D01*
X189234500Y-89451739D01*
X182385500Y-89451739D01*
X182375573Y-89383607D01*
X182324198Y-89278517D01*
X182324196Y-89278515D01*
X182324196Y-89278514D01*
X182241485Y-89195803D01*
X182136391Y-89144426D01*
X182068261Y-89134500D01*
X182068260Y-89134500D01*
X180251740Y-89134500D01*
X180251739Y-89134500D01*
X180183608Y-89144426D01*
X180078514Y-89195803D01*
X179995803Y-89278514D01*
X179944426Y-89383608D01*
X179934500Y-89451739D01*
X169000500Y-89451739D01*
X169000500Y-89434108D01*
X168966392Y-89306814D01*
X168900500Y-89192686D01*
X168807314Y-89099500D01*
X168750250Y-89066554D01*
X168693187Y-89033608D01*
X168629539Y-89016554D01*
X168565892Y-88999500D01*
X168434108Y-88999500D01*
X168306812Y-89033608D01*
X168192686Y-89099500D01*
X168192683Y-89099502D01*
X168129005Y-89163181D01*
X168067682Y-89196666D01*
X168041324Y-89199500D01*
X159115833Y-89199500D01*
X159048794Y-89179815D01*
X159028152Y-89163181D01*
X158046710Y-88181739D01*
X179934500Y-88181739D01*
X179934500Y-88548260D01*
X179944426Y-88616391D01*
X179995803Y-88721485D01*
X180078514Y-88804196D01*
X180078515Y-88804196D01*
X180078517Y-88804198D01*
X180183607Y-88855573D01*
X180217673Y-88860536D01*
X180251739Y-88865500D01*
X180251740Y-88865500D01*
X182068261Y-88865500D01*
X182090971Y-88862191D01*
X182136393Y-88855573D01*
X182241483Y-88804198D01*
X182324198Y-88721483D01*
X182375573Y-88616393D01*
X182385500Y-88548260D01*
X182385500Y-88181740D01*
X182385500Y-88181739D01*
X189234500Y-88181739D01*
X189234500Y-88548260D01*
X189244426Y-88616391D01*
X189295803Y-88721485D01*
X189378514Y-88804196D01*
X189378515Y-88804196D01*
X189378517Y-88804198D01*
X189483607Y-88855573D01*
X189517673Y-88860536D01*
X189551739Y-88865500D01*
X189551740Y-88865500D01*
X191368261Y-88865500D01*
X191390971Y-88862191D01*
X191436393Y-88855573D01*
X191541483Y-88804198D01*
X191624198Y-88721483D01*
X191675573Y-88616393D01*
X191685500Y-88548260D01*
X191685500Y-88181740D01*
X191675573Y-88113607D01*
X191624198Y-88008517D01*
X191624196Y-88008515D01*
X191624196Y-88008514D01*
X191541485Y-87925803D01*
X191436391Y-87874426D01*
X191368261Y-87864500D01*
X191368260Y-87864500D01*
X189551740Y-87864500D01*
X189551739Y-87864500D01*
X189483608Y-87874426D01*
X189378514Y-87925803D01*
X189295803Y-88008514D01*
X189244426Y-88113608D01*
X189234500Y-88181739D01*
X182385500Y-88181739D01*
X182375573Y-88113607D01*
X182324198Y-88008517D01*
X182324196Y-88008515D01*
X182324196Y-88008514D01*
X182241485Y-87925803D01*
X182136391Y-87874426D01*
X182068261Y-87864500D01*
X182068260Y-87864500D01*
X180251740Y-87864500D01*
X180251739Y-87864500D01*
X180183608Y-87874426D01*
X180078514Y-87925803D01*
X179995803Y-88008514D01*
X179944426Y-88113608D01*
X179934500Y-88181739D01*
X158046710Y-88181739D01*
X156776710Y-86911739D01*
X179934500Y-86911739D01*
X179934500Y-87278260D01*
X179944426Y-87346391D01*
X179995803Y-87451485D01*
X180078514Y-87534196D01*
X180078515Y-87534196D01*
X180078517Y-87534198D01*
X180183607Y-87585573D01*
X180217673Y-87590536D01*
X180251739Y-87595500D01*
X180251740Y-87595500D01*
X182068261Y-87595500D01*
X182090971Y-87592191D01*
X182136393Y-87585573D01*
X182241483Y-87534198D01*
X182324198Y-87451483D01*
X182375573Y-87346393D01*
X182385500Y-87278260D01*
X182385500Y-86911740D01*
X182385500Y-86911739D01*
X189234500Y-86911739D01*
X189234500Y-87278260D01*
X189244426Y-87346391D01*
X189295803Y-87451485D01*
X189378514Y-87534196D01*
X189378515Y-87534196D01*
X189378517Y-87534198D01*
X189483607Y-87585573D01*
X189517673Y-87590536D01*
X189551739Y-87595500D01*
X189551740Y-87595500D01*
X191368261Y-87595500D01*
X191390971Y-87592191D01*
X191436393Y-87585573D01*
X191541483Y-87534198D01*
X191624198Y-87451483D01*
X191675573Y-87346393D01*
X191685500Y-87278260D01*
X191685500Y-86911740D01*
X191675573Y-86843607D01*
X191624198Y-86738517D01*
X191624196Y-86738515D01*
X191624196Y-86738514D01*
X191541485Y-86655803D01*
X191436391Y-86604426D01*
X191368261Y-86594500D01*
X191368260Y-86594500D01*
X189551740Y-86594500D01*
X189551739Y-86594500D01*
X189483608Y-86604426D01*
X189378514Y-86655803D01*
X189295803Y-86738514D01*
X189244426Y-86843608D01*
X189234500Y-86911739D01*
X182385500Y-86911739D01*
X182375573Y-86843607D01*
X182324198Y-86738517D01*
X182324196Y-86738515D01*
X182324196Y-86738514D01*
X182241485Y-86655803D01*
X182136391Y-86604426D01*
X182068261Y-86594500D01*
X182068260Y-86594500D01*
X180251740Y-86594500D01*
X180251739Y-86594500D01*
X180183608Y-86604426D01*
X180078514Y-86655803D01*
X179995803Y-86738514D01*
X179944426Y-86843608D01*
X179934500Y-86911739D01*
X156776710Y-86911739D01*
X154128806Y-84263835D01*
X154095321Y-84202512D01*
X154100305Y-84132820D01*
X154101910Y-84128743D01*
X154142051Y-84031835D01*
X154166385Y-83909500D01*
X154180500Y-83838543D01*
X154719499Y-83838543D01*
X154757947Y-84031829D01*
X154757950Y-84031839D01*
X154833364Y-84213907D01*
X154833371Y-84213920D01*
X154942860Y-84377781D01*
X154942863Y-84377785D01*
X155082214Y-84517136D01*
X155082218Y-84517139D01*
X155246079Y-84626628D01*
X155246092Y-84626635D01*
X155396188Y-84688806D01*
X155428165Y-84702051D01*
X155428169Y-84702051D01*
X155428170Y-84702052D01*
X155621456Y-84740500D01*
X155621459Y-84740500D01*
X155818543Y-84740500D01*
X155948582Y-84714632D01*
X156011835Y-84702051D01*
X156193914Y-84626632D01*
X156357782Y-84517139D01*
X156497139Y-84377782D01*
X156606632Y-84213914D01*
X156682051Y-84031835D01*
X156706385Y-83909500D01*
X156720500Y-83838543D01*
X159799499Y-83838543D01*
X159837947Y-84031829D01*
X159837950Y-84031839D01*
X159913364Y-84213907D01*
X159913371Y-84213920D01*
X160022860Y-84377781D01*
X160022863Y-84377785D01*
X160162214Y-84517136D01*
X160162218Y-84517139D01*
X160326079Y-84626628D01*
X160326092Y-84626635D01*
X160476188Y-84688806D01*
X160508165Y-84702051D01*
X160508169Y-84702051D01*
X160508170Y-84702052D01*
X160701456Y-84740500D01*
X160701459Y-84740500D01*
X160898543Y-84740500D01*
X161028582Y-84714632D01*
X161091835Y-84702051D01*
X161273914Y-84626632D01*
X161437782Y-84517139D01*
X161577139Y-84377782D01*
X161686632Y-84213914D01*
X161762051Y-84031835D01*
X161786385Y-83909500D01*
X161800500Y-83838543D01*
X162339499Y-83838543D01*
X162377947Y-84031829D01*
X162377950Y-84031839D01*
X162453364Y-84213907D01*
X162453371Y-84213920D01*
X162562860Y-84377781D01*
X162562863Y-84377785D01*
X162702214Y-84517136D01*
X162702218Y-84517139D01*
X162866079Y-84626628D01*
X162866092Y-84626635D01*
X163016188Y-84688806D01*
X163048165Y-84702051D01*
X163048169Y-84702051D01*
X163048170Y-84702052D01*
X163241456Y-84740500D01*
X163241459Y-84740500D01*
X163438543Y-84740500D01*
X163568582Y-84714632D01*
X163631835Y-84702051D01*
X163813914Y-84626632D01*
X163977782Y-84517139D01*
X164117139Y-84377782D01*
X164226632Y-84213914D01*
X164302051Y-84031835D01*
X164326385Y-83909500D01*
X164340500Y-83838543D01*
X164879499Y-83838543D01*
X164917947Y-84031829D01*
X164917950Y-84031839D01*
X164993364Y-84213907D01*
X164993371Y-84213920D01*
X165102860Y-84377781D01*
X165102863Y-84377785D01*
X165242214Y-84517136D01*
X165242218Y-84517139D01*
X165406079Y-84626628D01*
X165406092Y-84626635D01*
X165556188Y-84688806D01*
X165588165Y-84702051D01*
X165588169Y-84702051D01*
X165588170Y-84702052D01*
X165781456Y-84740500D01*
X165781459Y-84740500D01*
X165978543Y-84740500D01*
X166108582Y-84714632D01*
X166171835Y-84702051D01*
X166353914Y-84626632D01*
X166517782Y-84517139D01*
X166657139Y-84377782D01*
X166766632Y-84213914D01*
X166842051Y-84031835D01*
X166866385Y-83909500D01*
X166880500Y-83838543D01*
X167419499Y-83838543D01*
X167457947Y-84031829D01*
X167457950Y-84031839D01*
X167533364Y-84213907D01*
X167533371Y-84213920D01*
X167642860Y-84377781D01*
X167642863Y-84377785D01*
X167782214Y-84517136D01*
X167782218Y-84517139D01*
X167946079Y-84626628D01*
X167946092Y-84626635D01*
X168096188Y-84688806D01*
X168128165Y-84702051D01*
X168128169Y-84702051D01*
X168128170Y-84702052D01*
X168321456Y-84740500D01*
X168321459Y-84740500D01*
X168518543Y-84740500D01*
X168648582Y-84714632D01*
X168711835Y-84702051D01*
X168893914Y-84626632D01*
X169057782Y-84517139D01*
X169197139Y-84377782D01*
X169306632Y-84213914D01*
X169382051Y-84031835D01*
X169406385Y-83909500D01*
X169420500Y-83838543D01*
X169420500Y-83641456D01*
X169382052Y-83448170D01*
X169382051Y-83448169D01*
X169382051Y-83448165D01*
X169382049Y-83448160D01*
X169306635Y-83266092D01*
X169306628Y-83266079D01*
X169197139Y-83102218D01*
X169197136Y-83102214D01*
X169057785Y-82962863D01*
X169057781Y-82962860D01*
X168893920Y-82853371D01*
X168893907Y-82853364D01*
X168711839Y-82777950D01*
X168711829Y-82777947D01*
X168518543Y-82739500D01*
X168518541Y-82739500D01*
X168321459Y-82739500D01*
X168321457Y-82739500D01*
X168128170Y-82777947D01*
X168128160Y-82777950D01*
X167946092Y-82853364D01*
X167946079Y-82853371D01*
X167782218Y-82962860D01*
X167782214Y-82962863D01*
X167642863Y-83102214D01*
X167642860Y-83102218D01*
X167533371Y-83266079D01*
X167533364Y-83266092D01*
X167457950Y-83448160D01*
X167457947Y-83448170D01*
X167419500Y-83641456D01*
X167419500Y-83641459D01*
X167419500Y-83838541D01*
X167419500Y-83838543D01*
X167419499Y-83838543D01*
X166880500Y-83838543D01*
X166880500Y-83641456D01*
X166842052Y-83448170D01*
X166842051Y-83448169D01*
X166842051Y-83448165D01*
X166842049Y-83448160D01*
X166766635Y-83266092D01*
X166766628Y-83266079D01*
X166657139Y-83102218D01*
X166657136Y-83102214D01*
X166517785Y-82962863D01*
X166517781Y-82962860D01*
X166353920Y-82853371D01*
X166353907Y-82853364D01*
X166171839Y-82777950D01*
X166171829Y-82777947D01*
X165978543Y-82739500D01*
X165978541Y-82739500D01*
X165781459Y-82739500D01*
X165781457Y-82739500D01*
X165588170Y-82777947D01*
X165588160Y-82777950D01*
X165406092Y-82853364D01*
X165406079Y-82853371D01*
X165242218Y-82962860D01*
X165242214Y-82962863D01*
X165102863Y-83102214D01*
X165102860Y-83102218D01*
X164993371Y-83266079D01*
X164993364Y-83266092D01*
X164917950Y-83448160D01*
X164917947Y-83448170D01*
X164879500Y-83641456D01*
X164879500Y-83641459D01*
X164879500Y-83838541D01*
X164879500Y-83838543D01*
X164879499Y-83838543D01*
X164340500Y-83838543D01*
X164340500Y-83641456D01*
X164302052Y-83448170D01*
X164302051Y-83448169D01*
X164302051Y-83448165D01*
X164302049Y-83448160D01*
X164226635Y-83266092D01*
X164226628Y-83266079D01*
X164117139Y-83102218D01*
X164117136Y-83102214D01*
X163977785Y-82962863D01*
X163977781Y-82962860D01*
X163813920Y-82853371D01*
X163813907Y-82853364D01*
X163631839Y-82777950D01*
X163631829Y-82777947D01*
X163438543Y-82739500D01*
X163438541Y-82739500D01*
X163241459Y-82739500D01*
X163241457Y-82739500D01*
X163048170Y-82777947D01*
X163048160Y-82777950D01*
X162866092Y-82853364D01*
X162866079Y-82853371D01*
X162702218Y-82962860D01*
X162702214Y-82962863D01*
X162562863Y-83102214D01*
X162562860Y-83102218D01*
X162453371Y-83266079D01*
X162453364Y-83266092D01*
X162377950Y-83448160D01*
X162377947Y-83448170D01*
X162339500Y-83641456D01*
X162339500Y-83641459D01*
X162339500Y-83838541D01*
X162339500Y-83838543D01*
X162339499Y-83838543D01*
X161800500Y-83838543D01*
X161800500Y-83641456D01*
X161762052Y-83448170D01*
X161762051Y-83448169D01*
X161762051Y-83448165D01*
X161762049Y-83448160D01*
X161686635Y-83266092D01*
X161686628Y-83266079D01*
X161577139Y-83102218D01*
X161577136Y-83102214D01*
X161437785Y-82962863D01*
X161437781Y-82962860D01*
X161273920Y-82853371D01*
X161273907Y-82853364D01*
X161091839Y-82777950D01*
X161091829Y-82777947D01*
X160898543Y-82739500D01*
X160898541Y-82739500D01*
X160701459Y-82739500D01*
X160701457Y-82739500D01*
X160508170Y-82777947D01*
X160508160Y-82777950D01*
X160326092Y-82853364D01*
X160326079Y-82853371D01*
X160162218Y-82962860D01*
X160162214Y-82962863D01*
X160022863Y-83102214D01*
X160022860Y-83102218D01*
X159913371Y-83266079D01*
X159913364Y-83266092D01*
X159837950Y-83448160D01*
X159837947Y-83448170D01*
X159799500Y-83641456D01*
X159799500Y-83641459D01*
X159799500Y-83838541D01*
X159799500Y-83838543D01*
X159799499Y-83838543D01*
X156720500Y-83838543D01*
X156720500Y-83641456D01*
X156682052Y-83448170D01*
X156682051Y-83448169D01*
X156682051Y-83448165D01*
X156682049Y-83448160D01*
X156606635Y-83266092D01*
X156606628Y-83266079D01*
X156497139Y-83102218D01*
X156497136Y-83102214D01*
X156357785Y-82962863D01*
X156357781Y-82962860D01*
X156193920Y-82853371D01*
X156193907Y-82853364D01*
X156011839Y-82777950D01*
X156011829Y-82777947D01*
X155818543Y-82739500D01*
X155818541Y-82739500D01*
X155621459Y-82739500D01*
X155621457Y-82739500D01*
X155428170Y-82777947D01*
X155428160Y-82777950D01*
X155246092Y-82853364D01*
X155246079Y-82853371D01*
X155082218Y-82962860D01*
X155082214Y-82962863D01*
X154942863Y-83102214D01*
X154942860Y-83102218D01*
X154833371Y-83266079D01*
X154833364Y-83266092D01*
X154757950Y-83448160D01*
X154757947Y-83448170D01*
X154719500Y-83641456D01*
X154719500Y-83641459D01*
X154719500Y-83838541D01*
X154719500Y-83838543D01*
X154719499Y-83838543D01*
X154180500Y-83838543D01*
X154180500Y-83641456D01*
X154142052Y-83448170D01*
X154142051Y-83448169D01*
X154142051Y-83448165D01*
X154142049Y-83448160D01*
X154066635Y-83266092D01*
X154066628Y-83266079D01*
X153957139Y-83102218D01*
X153957136Y-83102214D01*
X153817785Y-82962863D01*
X153817781Y-82962860D01*
X153653920Y-82853371D01*
X153653907Y-82853364D01*
X153471839Y-82777950D01*
X153471829Y-82777947D01*
X153278543Y-82739500D01*
X153278541Y-82739500D01*
X153081459Y-82739500D01*
X153081457Y-82739500D01*
X152888170Y-82777947D01*
X152888160Y-82777950D01*
X152706092Y-82853364D01*
X152706079Y-82853371D01*
X152542218Y-82962860D01*
X152542214Y-82962863D01*
X152402863Y-83102214D01*
X152402860Y-83102218D01*
X152293371Y-83266079D01*
X152293364Y-83266092D01*
X152217950Y-83448160D01*
X152217947Y-83448170D01*
X152179500Y-83641456D01*
X152179500Y-83641459D01*
X152179500Y-83838541D01*
X152179500Y-83838543D01*
X152179499Y-83838543D01*
X151640500Y-83838543D01*
X151640500Y-83641456D01*
X151602052Y-83448170D01*
X151602051Y-83448169D01*
X151602051Y-83448165D01*
X151602049Y-83448160D01*
X151526635Y-83266092D01*
X151526628Y-83266079D01*
X151417139Y-83102218D01*
X151417136Y-83102214D01*
X151277785Y-82962863D01*
X151277781Y-82962860D01*
X151113920Y-82853371D01*
X151113907Y-82853364D01*
X150931839Y-82777950D01*
X150931829Y-82777947D01*
X150738543Y-82739500D01*
X150738541Y-82739500D01*
X150541459Y-82739500D01*
X150541457Y-82739500D01*
X150348170Y-82777947D01*
X150348160Y-82777950D01*
X150166092Y-82853364D01*
X150166079Y-82853371D01*
X150002218Y-82962860D01*
X150002214Y-82962863D01*
X149862863Y-83102214D01*
X149862860Y-83102218D01*
X149753371Y-83266079D01*
X149753364Y-83266092D01*
X149677950Y-83448160D01*
X149677947Y-83448170D01*
X149639500Y-83641456D01*
X149639500Y-83641459D01*
X149639500Y-83838541D01*
X149639500Y-83838543D01*
X149639499Y-83838543D01*
X149100500Y-83838543D01*
X149100500Y-83641456D01*
X149062052Y-83448170D01*
X149062051Y-83448169D01*
X149062051Y-83448165D01*
X149021925Y-83351294D01*
X149014457Y-83281828D01*
X149045732Y-83219349D01*
X149048778Y-83216191D01*
X157928152Y-74336819D01*
X157989475Y-74303334D01*
X158015833Y-74300500D01*
X174324167Y-74300500D01*
X174391206Y-74320185D01*
X174411848Y-74336819D01*
X177515540Y-77440511D01*
X177571489Y-77496460D01*
X177571491Y-77496461D01*
X177571495Y-77496464D01*
X177640004Y-77536017D01*
X177640011Y-77536021D01*
X177716438Y-77556500D01*
X177795562Y-77556500D01*
X185525167Y-77556500D01*
X185592206Y-77576185D01*
X185612848Y-77592819D01*
X189401780Y-81381751D01*
X189435265Y-81443074D01*
X189430281Y-81512766D01*
X189388409Y-81568699D01*
X189386155Y-81570347D01*
X189378517Y-81575800D01*
X189295803Y-81658514D01*
X189244426Y-81763608D01*
X189234500Y-81831739D01*
X189234500Y-82198259D01*
X189240818Y-82241621D01*
X189231005Y-82310798D01*
X189185350Y-82363689D01*
X189118348Y-82383500D01*
X182501886Y-82383500D01*
X182434847Y-82363815D01*
X182389092Y-82311011D01*
X182379148Y-82241853D01*
X182379182Y-82241621D01*
X182385500Y-82198259D01*
X182385500Y-81831739D01*
X182375573Y-81763608D01*
X182375573Y-81763607D01*
X182324198Y-81658517D01*
X182324196Y-81658515D01*
X182324196Y-81658514D01*
X182241485Y-81575803D01*
X182136391Y-81524426D01*
X182068261Y-81514500D01*
X182068260Y-81514500D01*
X180251740Y-81514500D01*
X180251739Y-81514500D01*
X180183608Y-81524426D01*
X180078514Y-81575803D01*
X179995803Y-81658514D01*
X179944426Y-81763608D01*
X179934500Y-81831739D01*
X179934500Y-82198259D01*
X179940818Y-82241621D01*
X179931005Y-82310798D01*
X179885350Y-82363689D01*
X179818348Y-82383500D01*
X174516438Y-82383500D01*
X174440010Y-82403978D01*
X174371489Y-82443540D01*
X174371486Y-82443542D01*
X174023835Y-82791192D01*
X173962512Y-82824677D01*
X173892820Y-82819693D01*
X173888702Y-82818072D01*
X173791839Y-82777950D01*
X173791829Y-82777947D01*
X173598543Y-82739500D01*
X173598541Y-82739500D01*
X173401459Y-82739500D01*
X173401457Y-82739500D01*
X173208170Y-82777947D01*
X173208160Y-82777950D01*
X173026092Y-82853364D01*
X173026079Y-82853371D01*
X172862218Y-82962860D01*
X172862214Y-82962863D01*
X172722863Y-83102214D01*
X172722860Y-83102218D01*
X172613371Y-83266079D01*
X172613364Y-83266092D01*
X172537950Y-83448160D01*
X172537947Y-83448170D01*
X172499500Y-83641456D01*
X172499500Y-83641459D01*
X172499500Y-83838541D01*
X172499500Y-83838543D01*
X172499499Y-83838543D01*
X172537947Y-84031829D01*
X172537950Y-84031839D01*
X172613364Y-84213907D01*
X172613371Y-84213920D01*
X172722860Y-84377781D01*
X172722863Y-84377785D01*
X172862214Y-84517136D01*
X172862218Y-84517139D01*
X173026079Y-84626628D01*
X173026092Y-84626635D01*
X173166852Y-84684939D01*
X173221256Y-84728780D01*
X173243321Y-84795074D01*
X173226042Y-84862773D01*
X173174905Y-84910384D01*
X173119400Y-84923500D01*
X172619833Y-84923500D01*
X172552794Y-84903815D01*
X172532152Y-84887181D01*
X171908806Y-84263835D01*
X171875321Y-84202512D01*
X171880305Y-84132820D01*
X171881910Y-84128743D01*
X171922051Y-84031835D01*
X171946385Y-83909500D01*
X171960500Y-83838543D01*
X171960500Y-83641456D01*
X171922052Y-83448170D01*
X171922051Y-83448169D01*
X171922051Y-83448165D01*
X171922049Y-83448160D01*
X171846635Y-83266092D01*
X171846628Y-83266079D01*
X171737139Y-83102218D01*
X171737136Y-83102214D01*
X171597785Y-82962863D01*
X171597781Y-82962860D01*
X171433920Y-82853371D01*
X171433907Y-82853364D01*
X171251839Y-82777950D01*
X171251829Y-82777947D01*
X171058543Y-82739500D01*
X171058541Y-82739500D01*
X170861459Y-82739500D01*
X170861457Y-82739500D01*
X170668170Y-82777947D01*
X170668160Y-82777950D01*
X170486092Y-82853364D01*
X170486079Y-82853371D01*
X170322218Y-82962860D01*
X170322214Y-82962863D01*
X170182863Y-83102214D01*
X170182860Y-83102218D01*
X170073371Y-83266079D01*
X170073364Y-83266092D01*
X169997950Y-83448160D01*
X169997947Y-83448170D01*
X169959500Y-83641456D01*
X169959500Y-83641459D01*
X169959500Y-83838541D01*
X169959500Y-83838543D01*
X169959499Y-83838543D01*
X169997947Y-84031829D01*
X169997950Y-84031839D01*
X170073364Y-84213907D01*
X170073371Y-84213920D01*
X170182860Y-84377781D01*
X170182863Y-84377785D01*
X170322214Y-84517136D01*
X170322218Y-84517139D01*
X170486079Y-84626628D01*
X170486092Y-84626635D01*
X170636188Y-84688806D01*
X170668165Y-84702051D01*
X170668169Y-84702051D01*
X170668170Y-84702052D01*
X170861456Y-84740500D01*
X170861459Y-84740500D01*
X171058543Y-84740500D01*
X171188582Y-84714632D01*
X171251835Y-84702051D01*
X171348702Y-84661926D01*
X171418169Y-84654457D01*
X171480649Y-84685731D01*
X171483835Y-84688806D01*
X172203540Y-85408511D01*
X172259489Y-85464460D01*
X172259491Y-85464461D01*
X172259495Y-85464464D01*
X172328004Y-85504017D01*
X172328011Y-85504021D01*
X172404438Y-85524500D01*
X172483562Y-85524500D01*
X179810500Y-85524500D01*
X179877539Y-85544185D01*
X179923294Y-85596989D01*
X179934500Y-85648500D01*
X179934500Y-86008260D01*
X179944426Y-86076391D01*
X179995803Y-86181485D01*
X180078514Y-86264196D01*
X180078515Y-86264196D01*
X180078517Y-86264198D01*
X180183607Y-86315573D01*
X180217673Y-86320536D01*
X180251739Y-86325500D01*
X180251740Y-86325500D01*
X182068261Y-86325500D01*
X182090971Y-86322191D01*
X182136393Y-86315573D01*
X182241483Y-86264198D01*
X182324198Y-86181483D01*
X182375573Y-86076393D01*
X182385500Y-86008260D01*
X182385500Y-85648500D01*
X182387485Y-85641739D01*
X189234500Y-85641739D01*
X189234500Y-86008260D01*
X189244426Y-86076391D01*
X189295803Y-86181485D01*
X189378514Y-86264196D01*
X189378515Y-86264196D01*
X189378517Y-86264198D01*
X189483607Y-86315573D01*
X189517673Y-86320536D01*
X189551739Y-86325500D01*
X189551740Y-86325500D01*
X191368261Y-86325500D01*
X191390971Y-86322191D01*
X191436393Y-86315573D01*
X191541483Y-86264198D01*
X191624198Y-86181483D01*
X191675573Y-86076393D01*
X191685500Y-86008260D01*
X191685500Y-85641740D01*
X191675573Y-85573607D01*
X191624198Y-85468517D01*
X191624196Y-85468515D01*
X191624196Y-85468514D01*
X191541485Y-85385803D01*
X191436391Y-85334426D01*
X191368261Y-85324500D01*
X191368260Y-85324500D01*
X189551740Y-85324500D01*
X189551739Y-85324500D01*
X189483608Y-85334426D01*
X189378514Y-85385803D01*
X189295803Y-85468514D01*
X189244426Y-85573608D01*
X189234500Y-85641739D01*
X182387485Y-85641739D01*
X182405185Y-85581461D01*
X182457989Y-85535706D01*
X182509500Y-85524500D01*
X188163592Y-85524500D01*
X188163594Y-85524500D01*
X188240021Y-85504021D01*
X188308543Y-85464460D01*
X188364492Y-85408511D01*
X189034345Y-84738657D01*
X189095666Y-84705174D01*
X189165357Y-84710158D01*
X189221291Y-84752029D01*
X189240222Y-84797613D01*
X189241584Y-84797193D01*
X189244425Y-84806390D01*
X189295803Y-84911485D01*
X189378514Y-84994196D01*
X189378515Y-84994196D01*
X189378517Y-84994198D01*
X189483607Y-85045573D01*
X189517673Y-85050536D01*
X189551739Y-85055500D01*
X189551740Y-85055500D01*
X191368261Y-85055500D01*
X191390971Y-85052191D01*
X191436393Y-85045573D01*
X191541483Y-84994198D01*
X191624198Y-84911483D01*
X191624199Y-84911480D01*
X191628248Y-84905810D01*
X191683220Y-84862684D01*
X191700841Y-84858087D01*
X191700712Y-84857603D01*
X191708560Y-84855500D01*
X191708562Y-84855500D01*
X191784989Y-84835021D01*
X191853511Y-84795460D01*
X191909460Y-84739511D01*
X192026460Y-84622511D01*
X192062696Y-84559748D01*
X192066021Y-84553989D01*
X192086500Y-84477562D01*
X192086500Y-82904470D01*
X192070780Y-82845802D01*
X192066022Y-82828044D01*
X192026460Y-82759521D01*
X191710479Y-82443540D01*
X191710477Y-82443539D01*
X191704028Y-82438590D01*
X191705895Y-82436156D01*
X191667726Y-82396116D01*
X191654513Y-82327507D01*
X191666550Y-82284850D01*
X191675573Y-82266392D01*
X191685500Y-82198260D01*
X191685500Y-81831739D01*
X191675573Y-81763608D01*
X191675573Y-81763607D01*
X191624198Y-81658517D01*
X191624196Y-81658515D01*
X191624196Y-81658514D01*
X191541485Y-81575803D01*
X191436391Y-81524426D01*
X191368261Y-81514500D01*
X191368260Y-81514500D01*
X190435833Y-81514500D01*
X190368794Y-81494815D01*
X190348152Y-81478181D01*
X185964889Y-77094918D01*
X185931404Y-77033595D01*
X185936388Y-76963903D01*
X185978260Y-76907970D01*
X185979684Y-76906919D01*
X186127510Y-76799517D01*
X186294517Y-76632510D01*
X186433343Y-76441433D01*
X186540568Y-76230992D01*
X186613553Y-76006368D01*
X186650500Y-75773097D01*
X186650500Y-75536902D01*
X186613553Y-75303631D01*
X186540566Y-75079003D01*
X186433342Y-74868566D01*
X186294517Y-74677490D01*
X186127510Y-74510483D01*
X185936433Y-74371657D01*
X185868060Y-74336819D01*
X185725996Y-74264433D01*
X185501368Y-74191446D01*
X185268097Y-74154500D01*
X185268092Y-74154500D01*
X185031908Y-74154500D01*
X185031903Y-74154500D01*
X184798631Y-74191446D01*
X184574003Y-74264433D01*
X184363566Y-74371657D01*
X184254550Y-74450862D01*
X184172490Y-74510483D01*
X184172488Y-74510485D01*
X184172487Y-74510485D01*
X184005485Y-74677487D01*
X184005485Y-74677488D01*
X184005483Y-74677490D01*
X183945862Y-74759550D01*
X183866657Y-74868566D01*
X183759433Y-75079003D01*
X183686446Y-75303631D01*
X183649500Y-75536902D01*
X183649500Y-75773097D01*
X183686446Y-76006368D01*
X183759433Y-76230996D01*
X183866657Y-76441433D01*
X184005483Y-76632510D01*
X184005485Y-76632512D01*
X184116792Y-76743819D01*
X184150277Y-76805142D01*
X184145293Y-76874834D01*
X184103421Y-76930767D01*
X184037957Y-76955184D01*
X184029111Y-76955500D01*
X177931833Y-76955500D01*
X177864794Y-76935815D01*
X177844152Y-76919181D01*
X174684512Y-73759541D01*
X174684504Y-73759535D01*
X174615995Y-73719982D01*
X174615990Y-73719979D01*
X174590513Y-73713152D01*
X174539562Y-73699500D01*
X157800438Y-73699500D01*
X157762224Y-73709739D01*
X157724009Y-73719979D01*
X157724004Y-73719982D01*
X157655495Y-73759535D01*
X157655487Y-73759541D01*
X148623835Y-82791192D01*
X148562512Y-82824677D01*
X148492820Y-82819693D01*
X148488702Y-82818072D01*
X148391839Y-82777950D01*
X148391829Y-82777947D01*
X148198543Y-82739500D01*
X148198541Y-82739500D01*
X148001459Y-82739500D01*
X148001457Y-82739500D01*
X147808170Y-82777947D01*
X147808160Y-82777950D01*
X147626092Y-82853364D01*
X147626079Y-82853371D01*
X147462218Y-82962860D01*
X147462214Y-82962863D01*
X147322863Y-83102214D01*
X147322860Y-83102218D01*
X147213371Y-83266079D01*
X147213364Y-83266092D01*
X147137950Y-83448160D01*
X147137947Y-83448170D01*
X147099500Y-83641456D01*
X147099500Y-83641459D01*
X147099500Y-83838541D01*
X147099500Y-83838543D01*
X147099499Y-83838543D01*
X146560500Y-83838543D01*
X146560500Y-83641456D01*
X146522052Y-83448170D01*
X146522051Y-83448169D01*
X146522051Y-83448165D01*
X146522049Y-83448160D01*
X146446635Y-83266092D01*
X146446628Y-83266079D01*
X146337139Y-83102218D01*
X146337136Y-83102214D01*
X146197785Y-82962863D01*
X146197781Y-82962860D01*
X146033920Y-82853371D01*
X146033907Y-82853364D01*
X145851839Y-82777950D01*
X145851829Y-82777947D01*
X145658543Y-82739500D01*
X145658541Y-82739500D01*
X145461459Y-82739500D01*
X145461457Y-82739500D01*
X145268170Y-82777947D01*
X145268160Y-82777950D01*
X145086092Y-82853364D01*
X145086079Y-82853371D01*
X144922218Y-82962860D01*
X144922214Y-82962863D01*
X144782863Y-83102214D01*
X144782860Y-83102218D01*
X144673371Y-83266079D01*
X144673364Y-83266092D01*
X144597950Y-83448160D01*
X144597947Y-83448170D01*
X144559500Y-83641456D01*
X144559500Y-83641459D01*
X144559500Y-83838541D01*
X144559500Y-83838543D01*
X144559499Y-83838543D01*
X144020500Y-83838543D01*
X144020500Y-83641456D01*
X143982052Y-83448170D01*
X143982051Y-83448169D01*
X143982051Y-83448165D01*
X143982049Y-83448160D01*
X143906635Y-83266092D01*
X143906628Y-83266079D01*
X143797139Y-83102218D01*
X143797136Y-83102214D01*
X143657785Y-82962863D01*
X143657781Y-82962860D01*
X143493920Y-82853371D01*
X143493907Y-82853364D01*
X143311839Y-82777950D01*
X143311829Y-82777947D01*
X143118543Y-82739500D01*
X143118541Y-82739500D01*
X142921459Y-82739500D01*
X142921457Y-82739500D01*
X142728170Y-82777947D01*
X142728160Y-82777950D01*
X142546092Y-82853364D01*
X142546079Y-82853371D01*
X142382218Y-82962860D01*
X142382214Y-82962863D01*
X142242863Y-83102214D01*
X142242860Y-83102218D01*
X142133371Y-83266079D01*
X142133364Y-83266092D01*
X142057950Y-83448160D01*
X142057947Y-83448170D01*
X142019500Y-83641456D01*
X142019500Y-83641459D01*
X142019500Y-83838541D01*
X142019500Y-83838543D01*
X142019499Y-83838543D01*
X141480500Y-83838543D01*
X141480500Y-83641456D01*
X141442052Y-83448170D01*
X141442051Y-83448169D01*
X141442051Y-83448165D01*
X141442049Y-83448160D01*
X141366635Y-83266092D01*
X141366628Y-83266079D01*
X141257139Y-83102218D01*
X141257136Y-83102214D01*
X141117785Y-82962863D01*
X141117781Y-82962860D01*
X140953920Y-82853371D01*
X140953907Y-82853364D01*
X140771839Y-82777950D01*
X140771829Y-82777947D01*
X140578543Y-82739500D01*
X140578541Y-82739500D01*
X140381459Y-82739500D01*
X140381457Y-82739500D01*
X140188170Y-82777947D01*
X140188160Y-82777950D01*
X140006092Y-82853364D01*
X140006079Y-82853371D01*
X139842218Y-82962860D01*
X139842214Y-82962863D01*
X139702863Y-83102214D01*
X139702860Y-83102218D01*
X139593371Y-83266079D01*
X139593364Y-83266092D01*
X139517950Y-83448160D01*
X139517947Y-83448170D01*
X139479500Y-83641456D01*
X139479500Y-83641459D01*
X139479500Y-83838541D01*
X139479500Y-83838543D01*
X139479499Y-83838543D01*
X138940500Y-83838543D01*
X138940500Y-82920249D01*
X138940499Y-82920247D01*
X138928868Y-82861770D01*
X138928867Y-82861769D01*
X138884552Y-82795447D01*
X138818230Y-82751132D01*
X138818229Y-82751131D01*
X138759752Y-82739500D01*
X138759748Y-82739500D01*
X137120252Y-82739500D01*
X137120247Y-82739500D01*
X137061770Y-82751131D01*
X137061769Y-82751132D01*
X136995447Y-82795447D01*
X136951132Y-82861769D01*
X136951131Y-82861770D01*
X136939500Y-82920247D01*
X94500500Y-82920247D01*
X94500500Y-75536902D01*
X104649500Y-75536902D01*
X104649500Y-75773097D01*
X104686446Y-76006368D01*
X104759433Y-76230996D01*
X104866657Y-76441433D01*
X105005483Y-76632510D01*
X105172490Y-76799517D01*
X105363567Y-76938343D01*
X105461643Y-76988315D01*
X105574003Y-77045566D01*
X105574005Y-77045566D01*
X105574008Y-77045568D01*
X105694412Y-77084689D01*
X105798631Y-77118553D01*
X106031903Y-77155500D01*
X106031908Y-77155500D01*
X106268097Y-77155500D01*
X106501368Y-77118553D01*
X106725992Y-77045568D01*
X106936433Y-76938343D01*
X107127510Y-76799517D01*
X107294517Y-76632510D01*
X107433343Y-76441433D01*
X107540568Y-76230992D01*
X107613553Y-76006368D01*
X107650500Y-75773097D01*
X107650500Y-75536902D01*
X107613553Y-75303631D01*
X107540566Y-75079003D01*
X107433342Y-74868566D01*
X107294517Y-74677490D01*
X107127510Y-74510483D01*
X106936433Y-74371657D01*
X106868060Y-74336819D01*
X106725996Y-74264433D01*
X106501368Y-74191446D01*
X106268097Y-74154500D01*
X106268092Y-74154500D01*
X106031908Y-74154500D01*
X106031903Y-74154500D01*
X105798631Y-74191446D01*
X105574003Y-74264433D01*
X105363566Y-74371657D01*
X105254550Y-74450862D01*
X105172490Y-74510483D01*
X105172488Y-74510485D01*
X105172487Y-74510485D01*
X105005485Y-74677487D01*
X105005485Y-74677488D01*
X105005483Y-74677490D01*
X104945862Y-74759550D01*
X104866657Y-74868566D01*
X104759433Y-75079003D01*
X104686446Y-75303631D01*
X104649500Y-75536902D01*
X94500500Y-75536902D01*
X94500500Y-60775247D01*
X103949500Y-60775247D01*
X103949500Y-62814752D01*
X103961131Y-62873229D01*
X103961132Y-62873230D01*
X104005447Y-62939552D01*
X104038890Y-62961898D01*
X104083695Y-63015511D01*
X104092402Y-63084836D01*
X104062247Y-63147863D01*
X104038890Y-63168102D01*
X104005447Y-63190447D01*
X103961132Y-63256769D01*
X103961131Y-63256770D01*
X103949500Y-63315247D01*
X103949500Y-65354752D01*
X103961131Y-65413229D01*
X103961132Y-65413230D01*
X104005447Y-65479552D01*
X104071769Y-65523867D01*
X104071770Y-65523868D01*
X104130247Y-65535499D01*
X104130250Y-65535500D01*
X104130252Y-65535500D01*
X106169750Y-65535500D01*
X106169751Y-65535499D01*
X106184568Y-65532552D01*
X106228229Y-65523868D01*
X106228229Y-65523867D01*
X106228231Y-65523867D01*
X106294552Y-65479552D01*
X106338867Y-65413231D01*
X106338867Y-65413229D01*
X106338868Y-65413229D01*
X106350499Y-65354752D01*
X106350500Y-65354750D01*
X106350500Y-63315249D01*
X106350499Y-63315247D01*
X106338868Y-63256770D01*
X106338867Y-63256769D01*
X106294552Y-63190448D01*
X106294551Y-63190447D01*
X106261108Y-63168101D01*
X106216304Y-63114490D01*
X106207597Y-63045166D01*
X106237751Y-62982138D01*
X106242319Y-62977319D01*
X106250954Y-62968683D01*
X106294552Y-62939552D01*
X106323683Y-62895954D01*
X106332319Y-62887319D01*
X106352693Y-62876193D01*
X106370510Y-62861304D01*
X106382785Y-62859762D01*
X106393642Y-62853834D01*
X106416799Y-62855490D01*
X106439834Y-62852597D01*
X106450992Y-62857935D01*
X106463334Y-62858818D01*
X106481920Y-62872732D01*
X106502862Y-62882751D01*
X106516817Y-62898856D01*
X106519267Y-62900690D01*
X106519917Y-62902433D01*
X106523100Y-62906106D01*
X106545448Y-62939552D01*
X106611769Y-62983867D01*
X106611770Y-62983868D01*
X106670247Y-62995499D01*
X106670250Y-62995500D01*
X106670252Y-62995500D01*
X108709750Y-62995500D01*
X108709751Y-62995499D01*
X108724568Y-62992552D01*
X108768229Y-62983868D01*
X108768229Y-62983867D01*
X108768231Y-62983867D01*
X108834552Y-62939552D01*
X108878867Y-62873231D01*
X108878867Y-62873229D01*
X108878868Y-62873229D01*
X108890499Y-62814752D01*
X108890500Y-62814750D01*
X108890500Y-60775249D01*
X108890499Y-60775247D01*
X108878868Y-60716770D01*
X108878867Y-60716769D01*
X108834552Y-60650447D01*
X108768230Y-60606132D01*
X108768229Y-60606131D01*
X108709752Y-60594500D01*
X108709748Y-60594500D01*
X106670252Y-60594500D01*
X106670247Y-60594500D01*
X106611770Y-60606131D01*
X106611769Y-60606132D01*
X106545447Y-60650447D01*
X106523102Y-60683890D01*
X106469489Y-60728695D01*
X106400164Y-60737402D01*
X106337137Y-60707247D01*
X106316898Y-60683890D01*
X106294552Y-60650447D01*
X106228230Y-60606132D01*
X106228229Y-60606131D01*
X106169752Y-60594500D01*
X106169748Y-60594500D01*
X104130252Y-60594500D01*
X104130247Y-60594500D01*
X104071770Y-60606131D01*
X104071769Y-60606132D01*
X104005447Y-60650447D01*
X103961132Y-60716769D01*
X103961131Y-60716770D01*
X103949500Y-60775247D01*
X94500500Y-60775247D01*
X94500500Y-53155247D01*
X103949500Y-53155247D01*
X103949500Y-55194752D01*
X103961131Y-55253229D01*
X103961132Y-55253230D01*
X104005447Y-55319552D01*
X104038890Y-55341898D01*
X104083695Y-55395511D01*
X104092402Y-55464836D01*
X104062247Y-55527863D01*
X104038890Y-55548102D01*
X104005447Y-55570447D01*
X103961132Y-55636769D01*
X103961131Y-55636770D01*
X103949500Y-55695247D01*
X103949500Y-57734752D01*
X103961131Y-57793229D01*
X103961132Y-57793230D01*
X104005447Y-57859552D01*
X104071769Y-57903867D01*
X104071770Y-57903868D01*
X104130247Y-57915499D01*
X104130250Y-57915500D01*
X104130252Y-57915500D01*
X106169750Y-57915500D01*
X106169751Y-57915499D01*
X106184568Y-57912552D01*
X106228229Y-57903868D01*
X106228229Y-57903867D01*
X106228231Y-57903867D01*
X106294552Y-57859552D01*
X106316898Y-57826108D01*
X106370510Y-57781304D01*
X106439834Y-57772597D01*
X106502862Y-57802751D01*
X106523100Y-57826106D01*
X106545448Y-57859552D01*
X106611769Y-57903867D01*
X106611770Y-57903868D01*
X106670247Y-57915499D01*
X106670250Y-57915500D01*
X106670252Y-57915500D01*
X108709750Y-57915500D01*
X108709751Y-57915499D01*
X108724568Y-57912552D01*
X108768229Y-57903868D01*
X108768229Y-57903867D01*
X108768231Y-57903867D01*
X108834552Y-57859552D01*
X108878867Y-57793231D01*
X108878867Y-57793229D01*
X108878868Y-57793229D01*
X108890499Y-57734752D01*
X108890500Y-57734750D01*
X108890500Y-55695249D01*
X108890499Y-55695247D01*
X108878868Y-55636770D01*
X108878867Y-55636769D01*
X108834552Y-55570447D01*
X108768230Y-55526132D01*
X108768229Y-55526131D01*
X108709752Y-55514500D01*
X108709748Y-55514500D01*
X106670252Y-55514500D01*
X106670247Y-55514500D01*
X106611770Y-55526131D01*
X106611769Y-55526132D01*
X106545447Y-55570447D01*
X106523102Y-55603890D01*
X106469489Y-55648695D01*
X106400164Y-55657402D01*
X106337137Y-55627247D01*
X106332319Y-55622681D01*
X106323683Y-55614045D01*
X106294552Y-55570448D01*
X106250952Y-55541314D01*
X106242319Y-55532682D01*
X106231191Y-55512304D01*
X106216304Y-55494490D01*
X106214762Y-55482216D01*
X106208834Y-55471359D01*
X106210490Y-55448200D01*
X106207597Y-55425166D01*
X106212935Y-55414007D01*
X106213818Y-55401667D01*
X106227731Y-55383079D01*
X106237751Y-55362138D01*
X106253853Y-55348184D01*
X106255689Y-55345733D01*
X106257434Y-55345082D01*
X106261109Y-55341898D01*
X106294552Y-55319552D01*
X106338867Y-55253231D01*
X106338867Y-55253229D01*
X106338868Y-55253229D01*
X106350499Y-55194752D01*
X106350500Y-55194750D01*
X106350500Y-53155249D01*
X106350499Y-53155247D01*
X106338868Y-53096770D01*
X106338867Y-53096769D01*
X106294552Y-53030447D01*
X106228230Y-52986132D01*
X106228229Y-52986131D01*
X106169752Y-52974500D01*
X106169748Y-52974500D01*
X104130252Y-52974500D01*
X104130247Y-52974500D01*
X104071770Y-52986131D01*
X104071769Y-52986132D01*
X104005447Y-53030447D01*
X103961132Y-53096769D01*
X103961131Y-53096770D01*
X103949500Y-53155247D01*
X94500500Y-53155247D01*
X94500500Y-39536902D01*
X106149500Y-39536902D01*
X106149500Y-39773097D01*
X106186446Y-40006368D01*
X106259433Y-40230996D01*
X106366657Y-40441433D01*
X106505483Y-40632510D01*
X106672490Y-40799517D01*
X106863567Y-40938343D01*
X106962991Y-40989002D01*
X107074003Y-41045566D01*
X107074005Y-41045566D01*
X107074008Y-41045568D01*
X107194412Y-41084689D01*
X107298631Y-41118553D01*
X107531903Y-41155500D01*
X107531908Y-41155500D01*
X107768097Y-41155500D01*
X108001368Y-41118553D01*
X108225992Y-41045568D01*
X108436433Y-40938343D01*
X108627510Y-40799517D01*
X108794517Y-40632510D01*
X108933343Y-40441433D01*
X109040568Y-40230992D01*
X109113553Y-40006368D01*
X109150500Y-39773097D01*
X109150500Y-39536902D01*
X182149500Y-39536902D01*
X182149500Y-39773097D01*
X182186446Y-40006368D01*
X182259433Y-40230996D01*
X182366657Y-40441433D01*
X182505483Y-40632510D01*
X182672490Y-40799517D01*
X182863567Y-40938343D01*
X182962991Y-40989002D01*
X183074003Y-41045566D01*
X183074005Y-41045566D01*
X183074008Y-41045568D01*
X183194412Y-41084689D01*
X183298631Y-41118553D01*
X183531903Y-41155500D01*
X183531908Y-41155500D01*
X183768097Y-41155500D01*
X184001368Y-41118553D01*
X184225992Y-41045568D01*
X184436433Y-40938343D01*
X184627510Y-40799517D01*
X184794517Y-40632510D01*
X184933343Y-40441433D01*
X185040568Y-40230992D01*
X185113553Y-40006368D01*
X185150500Y-39773097D01*
X185150500Y-39536902D01*
X185113553Y-39303631D01*
X185065422Y-39155500D01*
X185040568Y-39079008D01*
X185040566Y-39079005D01*
X185040566Y-39079003D01*
X184947805Y-38896951D01*
X184933343Y-38868567D01*
X184794517Y-38677490D01*
X184627510Y-38510483D01*
X184436433Y-38371657D01*
X184225996Y-38264433D01*
X184001368Y-38191446D01*
X183768097Y-38154500D01*
X183768092Y-38154500D01*
X183531908Y-38154500D01*
X183531903Y-38154500D01*
X183298631Y-38191446D01*
X183074003Y-38264433D01*
X182863566Y-38371657D01*
X182754550Y-38450862D01*
X182672490Y-38510483D01*
X182672488Y-38510485D01*
X182672487Y-38510485D01*
X182505485Y-38677487D01*
X182505485Y-38677488D01*
X182505483Y-38677490D01*
X182445862Y-38759550D01*
X182366657Y-38868566D01*
X182259433Y-39079003D01*
X182186446Y-39303631D01*
X182149500Y-39536902D01*
X109150500Y-39536902D01*
X109113553Y-39303631D01*
X109065422Y-39155500D01*
X109040568Y-39079008D01*
X109040566Y-39079005D01*
X109040566Y-39079003D01*
X108947805Y-38896951D01*
X108933343Y-38868567D01*
X108794517Y-38677490D01*
X108627510Y-38510483D01*
X108436433Y-38371657D01*
X108225996Y-38264433D01*
X108001368Y-38191446D01*
X107768097Y-38154500D01*
X107768092Y-38154500D01*
X107531908Y-38154500D01*
X107531903Y-38154500D01*
X107298631Y-38191446D01*
X107074003Y-38264433D01*
X106863566Y-38371657D01*
X106754550Y-38450862D01*
X106672490Y-38510483D01*
X106672488Y-38510485D01*
X106672487Y-38510485D01*
X106505485Y-38677487D01*
X106505485Y-38677488D01*
X106505483Y-38677490D01*
X106445862Y-38759550D01*
X106366657Y-38868566D01*
X106259433Y-39079003D01*
X106186446Y-39303631D01*
X106149500Y-39536902D01*
X94500500Y-39536902D01*
X94500500Y-37168389D01*
X138249500Y-37168389D01*
X138249500Y-38141611D01*
X138276598Y-38312701D01*
X138330127Y-38477445D01*
X138408768Y-38631788D01*
X138510586Y-38771928D01*
X138633072Y-38894414D01*
X138773212Y-38996232D01*
X138927555Y-39074873D01*
X139092299Y-39128402D01*
X139263389Y-39155500D01*
X139263390Y-39155500D01*
X139436610Y-39155500D01*
X139436611Y-39155500D01*
X139607701Y-39128402D01*
X139772445Y-39074873D01*
X139926788Y-38996232D01*
X140066928Y-38894414D01*
X140189414Y-38771928D01*
X140291232Y-38631788D01*
X140369873Y-38477445D01*
X140423402Y-38312701D01*
X140450500Y-38141611D01*
X140450500Y-37170929D01*
X140794580Y-37170929D01*
X140794580Y-38144150D01*
X140821275Y-38312701D01*
X140821678Y-38315241D01*
X140875207Y-38479985D01*
X140953848Y-38634328D01*
X141055666Y-38774468D01*
X141178152Y-38896954D01*
X141318292Y-38998772D01*
X141472635Y-39077413D01*
X141637379Y-39130942D01*
X141808469Y-39158040D01*
X141808470Y-39158040D01*
X141981690Y-39158040D01*
X141981691Y-39158040D01*
X142152781Y-39130942D01*
X142317525Y-39077413D01*
X142471868Y-38998772D01*
X142612008Y-38896954D01*
X142734494Y-38774468D01*
X142836312Y-38634328D01*
X142914953Y-38479985D01*
X142968482Y-38315241D01*
X142995580Y-38144151D01*
X142995580Y-37170929D01*
X142968482Y-36999839D01*
X142914953Y-36835095D01*
X142836312Y-36680752D01*
X142734494Y-36540612D01*
X142612008Y-36418126D01*
X142497935Y-36335247D01*
X143329500Y-36335247D01*
X143329500Y-38974752D01*
X143341131Y-39033229D01*
X143341132Y-39033230D01*
X143385447Y-39099552D01*
X143451769Y-39143867D01*
X143451770Y-39143868D01*
X143510247Y-39155499D01*
X143510250Y-39155500D01*
X143510252Y-39155500D01*
X145349750Y-39155500D01*
X145349751Y-39155499D01*
X145364568Y-39152552D01*
X145408229Y-39143868D01*
X145408229Y-39143867D01*
X145408231Y-39143867D01*
X145474552Y-39099552D01*
X145518867Y-39033231D01*
X145518867Y-39033229D01*
X145518868Y-39033229D01*
X145530499Y-38974752D01*
X145530500Y-38974750D01*
X145530500Y-37168389D01*
X145869500Y-37168389D01*
X145869500Y-38141611D01*
X145896598Y-38312701D01*
X145950127Y-38477445D01*
X146028768Y-38631788D01*
X146130586Y-38771928D01*
X146253072Y-38894414D01*
X146393212Y-38996232D01*
X146547555Y-39074873D01*
X146712299Y-39128402D01*
X146883389Y-39155500D01*
X146883390Y-39155500D01*
X147056610Y-39155500D01*
X147056611Y-39155500D01*
X147227701Y-39128402D01*
X147392445Y-39074873D01*
X147546788Y-38996232D01*
X147686928Y-38894414D01*
X147809414Y-38771928D01*
X147911232Y-38631788D01*
X147989873Y-38477445D01*
X148043402Y-38312701D01*
X148070500Y-38141611D01*
X148070500Y-37168389D01*
X148409500Y-37168389D01*
X148409500Y-38141611D01*
X148436598Y-38312701D01*
X148490127Y-38477445D01*
X148568768Y-38631788D01*
X148670586Y-38771928D01*
X148793072Y-38894414D01*
X148933212Y-38996232D01*
X149087555Y-39074873D01*
X149252299Y-39128402D01*
X149423389Y-39155500D01*
X149423390Y-39155500D01*
X149596610Y-39155500D01*
X149596611Y-39155500D01*
X149767701Y-39128402D01*
X149932445Y-39074873D01*
X150086788Y-38996232D01*
X150226928Y-38894414D01*
X150349414Y-38771928D01*
X150451232Y-38631788D01*
X150529873Y-38477445D01*
X150583402Y-38312701D01*
X150610500Y-38141611D01*
X150610500Y-37168389D01*
X150949500Y-37168389D01*
X150949500Y-38141611D01*
X150976598Y-38312701D01*
X151030127Y-38477445D01*
X151108768Y-38631788D01*
X151210586Y-38771928D01*
X151333072Y-38894414D01*
X151473212Y-38996232D01*
X151627555Y-39074873D01*
X151792299Y-39128402D01*
X151963389Y-39155500D01*
X151963390Y-39155500D01*
X152136610Y-39155500D01*
X152136611Y-39155500D01*
X152307701Y-39128402D01*
X152472445Y-39074873D01*
X152626788Y-38996232D01*
X152766928Y-38894414D01*
X152889414Y-38771928D01*
X152991232Y-38631788D01*
X153069873Y-38477445D01*
X153123402Y-38312701D01*
X153150500Y-38141611D01*
X153150500Y-37168389D01*
X153489500Y-37168389D01*
X153489500Y-38141611D01*
X153516598Y-38312701D01*
X153570127Y-38477445D01*
X153648768Y-38631788D01*
X153750586Y-38771928D01*
X153873072Y-38894414D01*
X154013212Y-38996232D01*
X154167555Y-39074873D01*
X154332299Y-39128402D01*
X154503389Y-39155500D01*
X154503390Y-39155500D01*
X154676610Y-39155500D01*
X154676611Y-39155500D01*
X154847701Y-39128402D01*
X155012445Y-39074873D01*
X155166788Y-38996232D01*
X155306928Y-38894414D01*
X155429414Y-38771928D01*
X155531232Y-38631788D01*
X155609873Y-38477445D01*
X155663402Y-38312701D01*
X155690500Y-38141611D01*
X155690500Y-37168389D01*
X156029500Y-37168389D01*
X156029500Y-38141611D01*
X156056598Y-38312701D01*
X156110127Y-38477445D01*
X156188768Y-38631788D01*
X156290586Y-38771928D01*
X156413072Y-38894414D01*
X156553212Y-38996232D01*
X156707555Y-39074873D01*
X156872299Y-39128402D01*
X157043389Y-39155500D01*
X157043390Y-39155500D01*
X157216610Y-39155500D01*
X157216611Y-39155500D01*
X157387701Y-39128402D01*
X157552445Y-39074873D01*
X157706788Y-38996232D01*
X157846928Y-38894414D01*
X157969414Y-38771928D01*
X158071232Y-38631788D01*
X158149873Y-38477445D01*
X158203402Y-38312701D01*
X158230500Y-38141611D01*
X158230500Y-37168389D01*
X158569500Y-37168389D01*
X158569500Y-38141611D01*
X158596598Y-38312701D01*
X158650127Y-38477445D01*
X158728768Y-38631788D01*
X158830586Y-38771928D01*
X158953072Y-38894414D01*
X159093212Y-38996232D01*
X159247555Y-39074873D01*
X159412299Y-39128402D01*
X159583389Y-39155500D01*
X159583390Y-39155500D01*
X159756610Y-39155500D01*
X159756611Y-39155500D01*
X159927701Y-39128402D01*
X160092445Y-39074873D01*
X160246788Y-38996232D01*
X160386928Y-38894414D01*
X160509414Y-38771928D01*
X160611232Y-38631788D01*
X160689873Y-38477445D01*
X160743402Y-38312701D01*
X160770500Y-38141611D01*
X160770500Y-37168389D01*
X161109500Y-37168389D01*
X161109500Y-38141611D01*
X161136598Y-38312701D01*
X161190127Y-38477445D01*
X161268768Y-38631788D01*
X161370586Y-38771928D01*
X161493072Y-38894414D01*
X161633212Y-38996232D01*
X161787555Y-39074873D01*
X161952299Y-39128402D01*
X162123389Y-39155500D01*
X162123390Y-39155500D01*
X162296610Y-39155500D01*
X162296611Y-39155500D01*
X162467701Y-39128402D01*
X162632445Y-39074873D01*
X162786788Y-38996232D01*
X162926928Y-38894414D01*
X163049414Y-38771928D01*
X163151232Y-38631788D01*
X163229873Y-38477445D01*
X163283402Y-38312701D01*
X163310500Y-38141611D01*
X163310500Y-37168389D01*
X163649500Y-37168389D01*
X163649500Y-38141611D01*
X163676598Y-38312701D01*
X163730127Y-38477445D01*
X163808768Y-38631788D01*
X163910586Y-38771928D01*
X164033072Y-38894414D01*
X164173212Y-38996232D01*
X164327555Y-39074873D01*
X164492299Y-39128402D01*
X164663389Y-39155500D01*
X164663390Y-39155500D01*
X164836610Y-39155500D01*
X164836611Y-39155500D01*
X165007701Y-39128402D01*
X165172445Y-39074873D01*
X165326788Y-38996232D01*
X165466928Y-38894414D01*
X165589414Y-38771928D01*
X165691232Y-38631788D01*
X165769873Y-38477445D01*
X165823402Y-38312701D01*
X165850500Y-38141611D01*
X165850500Y-37168389D01*
X166189500Y-37168389D01*
X166189500Y-38141611D01*
X166216598Y-38312701D01*
X166270127Y-38477445D01*
X166348768Y-38631788D01*
X166450586Y-38771928D01*
X166573072Y-38894414D01*
X166713212Y-38996232D01*
X166867555Y-39074873D01*
X167032299Y-39128402D01*
X167203389Y-39155500D01*
X167203390Y-39155500D01*
X167376610Y-39155500D01*
X167376611Y-39155500D01*
X167547701Y-39128402D01*
X167712445Y-39074873D01*
X167866788Y-38996232D01*
X168006928Y-38894414D01*
X168129414Y-38771928D01*
X168231232Y-38631788D01*
X168309873Y-38477445D01*
X168363402Y-38312701D01*
X168390500Y-38141611D01*
X168390500Y-37168389D01*
X168729500Y-37168389D01*
X168729500Y-38141611D01*
X168756598Y-38312701D01*
X168810127Y-38477445D01*
X168888768Y-38631788D01*
X168990586Y-38771928D01*
X169113072Y-38894414D01*
X169253212Y-38996232D01*
X169407555Y-39074873D01*
X169572299Y-39128402D01*
X169743389Y-39155500D01*
X169743390Y-39155500D01*
X169916610Y-39155500D01*
X169916611Y-39155500D01*
X170087701Y-39128402D01*
X170252445Y-39074873D01*
X170406788Y-38996232D01*
X170546928Y-38894414D01*
X170669414Y-38771928D01*
X170771232Y-38631788D01*
X170849873Y-38477445D01*
X170903402Y-38312701D01*
X170930500Y-38141611D01*
X170930500Y-37168389D01*
X171269500Y-37168389D01*
X171269500Y-38141611D01*
X171296598Y-38312701D01*
X171350127Y-38477445D01*
X171428768Y-38631788D01*
X171530586Y-38771928D01*
X171653072Y-38894414D01*
X171793212Y-38996232D01*
X171947555Y-39074873D01*
X172112299Y-39128402D01*
X172283389Y-39155500D01*
X172283390Y-39155500D01*
X172456610Y-39155500D01*
X172456611Y-39155500D01*
X172627701Y-39128402D01*
X172792445Y-39074873D01*
X172946788Y-38996232D01*
X173086928Y-38894414D01*
X173209414Y-38771928D01*
X173311232Y-38631788D01*
X173389873Y-38477445D01*
X173443402Y-38312701D01*
X173470500Y-38141611D01*
X173470500Y-37170929D01*
X173814580Y-37170929D01*
X173814580Y-38144150D01*
X173841275Y-38312701D01*
X173841678Y-38315241D01*
X173895207Y-38479985D01*
X173973848Y-38634328D01*
X174075666Y-38774468D01*
X174198152Y-38896954D01*
X174338292Y-38998772D01*
X174492635Y-39077413D01*
X174657379Y-39130942D01*
X174828469Y-39158040D01*
X174828470Y-39158040D01*
X175001690Y-39158040D01*
X175001691Y-39158040D01*
X175172781Y-39130942D01*
X175337525Y-39077413D01*
X175491868Y-38998772D01*
X175632008Y-38896954D01*
X175754494Y-38774468D01*
X175856312Y-38634328D01*
X175934953Y-38479985D01*
X175988482Y-38315241D01*
X176015580Y-38144151D01*
X176015580Y-37170929D01*
X176015178Y-37168389D01*
X176349500Y-37168389D01*
X176349500Y-38141611D01*
X176376598Y-38312701D01*
X176430127Y-38477445D01*
X176508768Y-38631788D01*
X176610586Y-38771928D01*
X176733072Y-38894414D01*
X176873212Y-38996232D01*
X177027555Y-39074873D01*
X177192299Y-39128402D01*
X177363389Y-39155500D01*
X177363390Y-39155500D01*
X177536610Y-39155500D01*
X177536611Y-39155500D01*
X177707701Y-39128402D01*
X177872445Y-39074873D01*
X178026788Y-38996232D01*
X178166928Y-38894414D01*
X178289414Y-38771928D01*
X178391232Y-38631788D01*
X178469873Y-38477445D01*
X178523402Y-38312701D01*
X178550500Y-38141611D01*
X178550500Y-37168389D01*
X178523402Y-36997299D01*
X178469873Y-36832555D01*
X178391232Y-36678212D01*
X178289414Y-36538072D01*
X178166928Y-36415586D01*
X178026788Y-36313768D01*
X177872445Y-36235127D01*
X177707701Y-36181598D01*
X177707699Y-36181597D01*
X177707698Y-36181597D01*
X177576271Y-36160781D01*
X177536611Y-36154500D01*
X177363389Y-36154500D01*
X177323728Y-36160781D01*
X177192302Y-36181597D01*
X177027552Y-36235128D01*
X176873211Y-36313768D01*
X176793256Y-36371859D01*
X176733072Y-36415586D01*
X176733070Y-36415588D01*
X176733069Y-36415588D01*
X176610588Y-36538069D01*
X176610588Y-36538070D01*
X176610586Y-36538072D01*
X176608741Y-36540612D01*
X176508768Y-36678211D01*
X176430128Y-36832552D01*
X176376597Y-36997302D01*
X176376195Y-36999842D01*
X176349500Y-37168389D01*
X176015178Y-37168389D01*
X175988482Y-36999839D01*
X175934953Y-36835095D01*
X175856312Y-36680752D01*
X175754494Y-36540612D01*
X175632008Y-36418126D01*
X175491868Y-36316308D01*
X175337525Y-36237667D01*
X175172781Y-36184138D01*
X175172779Y-36184137D01*
X175172778Y-36184137D01*
X175041351Y-36163321D01*
X175001691Y-36157040D01*
X174828469Y-36157040D01*
X174788808Y-36163321D01*
X174657382Y-36184137D01*
X174492632Y-36237668D01*
X174338291Y-36316308D01*
X174258336Y-36374399D01*
X174198152Y-36418126D01*
X174198150Y-36418128D01*
X174198149Y-36418128D01*
X174075668Y-36540609D01*
X174075668Y-36540610D01*
X174075666Y-36540612D01*
X174031939Y-36600796D01*
X173973848Y-36680751D01*
X173895208Y-36835092D01*
X173841677Y-36999842D01*
X173814580Y-37170929D01*
X173470500Y-37170929D01*
X173470500Y-37168389D01*
X173443402Y-36997299D01*
X173389873Y-36832555D01*
X173311232Y-36678212D01*
X173209414Y-36538072D01*
X173086928Y-36415586D01*
X172946788Y-36313768D01*
X172792445Y-36235127D01*
X172627701Y-36181598D01*
X172627699Y-36181597D01*
X172627698Y-36181597D01*
X172496271Y-36160781D01*
X172456611Y-36154500D01*
X172283389Y-36154500D01*
X172243728Y-36160781D01*
X172112302Y-36181597D01*
X171947552Y-36235128D01*
X171793211Y-36313768D01*
X171713256Y-36371859D01*
X171653072Y-36415586D01*
X171653070Y-36415588D01*
X171653069Y-36415588D01*
X171530588Y-36538069D01*
X171530588Y-36538070D01*
X171530586Y-36538072D01*
X171528741Y-36540612D01*
X171428768Y-36678211D01*
X171350128Y-36832552D01*
X171296597Y-36997302D01*
X171296195Y-36999842D01*
X171269500Y-37168389D01*
X170930500Y-37168389D01*
X170903402Y-36997299D01*
X170849873Y-36832555D01*
X170771232Y-36678212D01*
X170669414Y-36538072D01*
X170546928Y-36415586D01*
X170406788Y-36313768D01*
X170252445Y-36235127D01*
X170087701Y-36181598D01*
X170087699Y-36181597D01*
X170087698Y-36181597D01*
X169956271Y-36160781D01*
X169916611Y-36154500D01*
X169743389Y-36154500D01*
X169703728Y-36160781D01*
X169572302Y-36181597D01*
X169407552Y-36235128D01*
X169253211Y-36313768D01*
X169173256Y-36371859D01*
X169113072Y-36415586D01*
X169113070Y-36415588D01*
X169113069Y-36415588D01*
X168990588Y-36538069D01*
X168990588Y-36538070D01*
X168990586Y-36538072D01*
X168988741Y-36540612D01*
X168888768Y-36678211D01*
X168810128Y-36832552D01*
X168756597Y-36997302D01*
X168756195Y-36999842D01*
X168729500Y-37168389D01*
X168390500Y-37168389D01*
X168363402Y-36997299D01*
X168309873Y-36832555D01*
X168231232Y-36678212D01*
X168129414Y-36538072D01*
X168006928Y-36415586D01*
X167866788Y-36313768D01*
X167712445Y-36235127D01*
X167547701Y-36181598D01*
X167547699Y-36181597D01*
X167547698Y-36181597D01*
X167416271Y-36160781D01*
X167376611Y-36154500D01*
X167203389Y-36154500D01*
X167163728Y-36160781D01*
X167032302Y-36181597D01*
X166867552Y-36235128D01*
X166713211Y-36313768D01*
X166633256Y-36371859D01*
X166573072Y-36415586D01*
X166573070Y-36415588D01*
X166573069Y-36415588D01*
X166450588Y-36538069D01*
X166450588Y-36538070D01*
X166450586Y-36538072D01*
X166448741Y-36540612D01*
X166348768Y-36678211D01*
X166270128Y-36832552D01*
X166216597Y-36997302D01*
X166216195Y-36999842D01*
X166189500Y-37168389D01*
X165850500Y-37168389D01*
X165823402Y-36997299D01*
X165769873Y-36832555D01*
X165691232Y-36678212D01*
X165589414Y-36538072D01*
X165466928Y-36415586D01*
X165326788Y-36313768D01*
X165172445Y-36235127D01*
X165007701Y-36181598D01*
X165007699Y-36181597D01*
X165007698Y-36181597D01*
X164876271Y-36160781D01*
X164836611Y-36154500D01*
X164663389Y-36154500D01*
X164623728Y-36160781D01*
X164492302Y-36181597D01*
X164327552Y-36235128D01*
X164173211Y-36313768D01*
X164093256Y-36371859D01*
X164033072Y-36415586D01*
X164033070Y-36415588D01*
X164033069Y-36415588D01*
X163910588Y-36538069D01*
X163910588Y-36538070D01*
X163910586Y-36538072D01*
X163908741Y-36540612D01*
X163808768Y-36678211D01*
X163730128Y-36832552D01*
X163676597Y-36997302D01*
X163676195Y-36999842D01*
X163649500Y-37168389D01*
X163310500Y-37168389D01*
X163283402Y-36997299D01*
X163229873Y-36832555D01*
X163151232Y-36678212D01*
X163049414Y-36538072D01*
X162926928Y-36415586D01*
X162786788Y-36313768D01*
X162632445Y-36235127D01*
X162467701Y-36181598D01*
X162467699Y-36181597D01*
X162467698Y-36181597D01*
X162336271Y-36160781D01*
X162296611Y-36154500D01*
X162123389Y-36154500D01*
X162083728Y-36160781D01*
X161952302Y-36181597D01*
X161787552Y-36235128D01*
X161633211Y-36313768D01*
X161553256Y-36371859D01*
X161493072Y-36415586D01*
X161493070Y-36415588D01*
X161493069Y-36415588D01*
X161370588Y-36538069D01*
X161370588Y-36538070D01*
X161370586Y-36538072D01*
X161368741Y-36540612D01*
X161268768Y-36678211D01*
X161190128Y-36832552D01*
X161136597Y-36997302D01*
X161136195Y-36999842D01*
X161109500Y-37168389D01*
X160770500Y-37168389D01*
X160743402Y-36997299D01*
X160689873Y-36832555D01*
X160611232Y-36678212D01*
X160509414Y-36538072D01*
X160386928Y-36415586D01*
X160246788Y-36313768D01*
X160092445Y-36235127D01*
X159927701Y-36181598D01*
X159927699Y-36181597D01*
X159927698Y-36181597D01*
X159796271Y-36160781D01*
X159756611Y-36154500D01*
X159583389Y-36154500D01*
X159543728Y-36160781D01*
X159412302Y-36181597D01*
X159247552Y-36235128D01*
X159093211Y-36313768D01*
X159013256Y-36371859D01*
X158953072Y-36415586D01*
X158953070Y-36415588D01*
X158953069Y-36415588D01*
X158830588Y-36538069D01*
X158830588Y-36538070D01*
X158830586Y-36538072D01*
X158828741Y-36540612D01*
X158728768Y-36678211D01*
X158650128Y-36832552D01*
X158596597Y-36997302D01*
X158596195Y-36999842D01*
X158569500Y-37168389D01*
X158230500Y-37168389D01*
X158203402Y-36997299D01*
X158149873Y-36832555D01*
X158071232Y-36678212D01*
X157969414Y-36538072D01*
X157846928Y-36415586D01*
X157706788Y-36313768D01*
X157552445Y-36235127D01*
X157387701Y-36181598D01*
X157387699Y-36181597D01*
X157387698Y-36181597D01*
X157256271Y-36160781D01*
X157216611Y-36154500D01*
X157043389Y-36154500D01*
X157003728Y-36160781D01*
X156872302Y-36181597D01*
X156707552Y-36235128D01*
X156553211Y-36313768D01*
X156473256Y-36371859D01*
X156413072Y-36415586D01*
X156413070Y-36415588D01*
X156413069Y-36415588D01*
X156290588Y-36538069D01*
X156290588Y-36538070D01*
X156290586Y-36538072D01*
X156288741Y-36540612D01*
X156188768Y-36678211D01*
X156110128Y-36832552D01*
X156056597Y-36997302D01*
X156056195Y-36999842D01*
X156029500Y-37168389D01*
X155690500Y-37168389D01*
X155663402Y-36997299D01*
X155609873Y-36832555D01*
X155531232Y-36678212D01*
X155429414Y-36538072D01*
X155306928Y-36415586D01*
X155166788Y-36313768D01*
X155012445Y-36235127D01*
X154847701Y-36181598D01*
X154847699Y-36181597D01*
X154847698Y-36181597D01*
X154716271Y-36160781D01*
X154676611Y-36154500D01*
X154503389Y-36154500D01*
X154463728Y-36160781D01*
X154332302Y-36181597D01*
X154167552Y-36235128D01*
X154013211Y-36313768D01*
X153933256Y-36371859D01*
X153873072Y-36415586D01*
X153873070Y-36415588D01*
X153873069Y-36415588D01*
X153750588Y-36538069D01*
X153750588Y-36538070D01*
X153750586Y-36538072D01*
X153748741Y-36540612D01*
X153648768Y-36678211D01*
X153570128Y-36832552D01*
X153516597Y-36997302D01*
X153516195Y-36999842D01*
X153489500Y-37168389D01*
X153150500Y-37168389D01*
X153123402Y-36997299D01*
X153069873Y-36832555D01*
X152991232Y-36678212D01*
X152889414Y-36538072D01*
X152766928Y-36415586D01*
X152626788Y-36313768D01*
X152472445Y-36235127D01*
X152307701Y-36181598D01*
X152307699Y-36181597D01*
X152307698Y-36181597D01*
X152176271Y-36160781D01*
X152136611Y-36154500D01*
X151963389Y-36154500D01*
X151923728Y-36160781D01*
X151792302Y-36181597D01*
X151627552Y-36235128D01*
X151473211Y-36313768D01*
X151393256Y-36371859D01*
X151333072Y-36415586D01*
X151333070Y-36415588D01*
X151333069Y-36415588D01*
X151210588Y-36538069D01*
X151210588Y-36538070D01*
X151210586Y-36538072D01*
X151208741Y-36540612D01*
X151108768Y-36678211D01*
X151030128Y-36832552D01*
X150976597Y-36997302D01*
X150976195Y-36999842D01*
X150949500Y-37168389D01*
X150610500Y-37168389D01*
X150583402Y-36997299D01*
X150529873Y-36832555D01*
X150451232Y-36678212D01*
X150349414Y-36538072D01*
X150226928Y-36415586D01*
X150086788Y-36313768D01*
X149932445Y-36235127D01*
X149767701Y-36181598D01*
X149767699Y-36181597D01*
X149767698Y-36181597D01*
X149636271Y-36160781D01*
X149596611Y-36154500D01*
X149423389Y-36154500D01*
X149383728Y-36160781D01*
X149252302Y-36181597D01*
X149087552Y-36235128D01*
X148933211Y-36313768D01*
X148853256Y-36371859D01*
X148793072Y-36415586D01*
X148793070Y-36415588D01*
X148793069Y-36415588D01*
X148670588Y-36538069D01*
X148670588Y-36538070D01*
X148670586Y-36538072D01*
X148668741Y-36540612D01*
X148568768Y-36678211D01*
X148490128Y-36832552D01*
X148436597Y-36997302D01*
X148436195Y-36999842D01*
X148409500Y-37168389D01*
X148070500Y-37168389D01*
X148043402Y-36997299D01*
X147989873Y-36832555D01*
X147911232Y-36678212D01*
X147809414Y-36538072D01*
X147686928Y-36415586D01*
X147546788Y-36313768D01*
X147392445Y-36235127D01*
X147227701Y-36181598D01*
X147227699Y-36181597D01*
X147227698Y-36181597D01*
X147096271Y-36160781D01*
X147056611Y-36154500D01*
X146883389Y-36154500D01*
X146843728Y-36160781D01*
X146712302Y-36181597D01*
X146547552Y-36235128D01*
X146393211Y-36313768D01*
X146313256Y-36371859D01*
X146253072Y-36415586D01*
X146253070Y-36415588D01*
X146253069Y-36415588D01*
X146130588Y-36538069D01*
X146130588Y-36538070D01*
X146130586Y-36538072D01*
X146128741Y-36540612D01*
X146028768Y-36678211D01*
X145950128Y-36832552D01*
X145896597Y-36997302D01*
X145896195Y-36999842D01*
X145869500Y-37168389D01*
X145530500Y-37168389D01*
X145530500Y-36335249D01*
X145530499Y-36335247D01*
X145518868Y-36276770D01*
X145518867Y-36276769D01*
X145474552Y-36210447D01*
X145408230Y-36166132D01*
X145408229Y-36166131D01*
X145349752Y-36154500D01*
X145349748Y-36154500D01*
X143510252Y-36154500D01*
X143510247Y-36154500D01*
X143451770Y-36166131D01*
X143451769Y-36166132D01*
X143385447Y-36210447D01*
X143341132Y-36276769D01*
X143341131Y-36276770D01*
X143329500Y-36335247D01*
X142497935Y-36335247D01*
X142471868Y-36316308D01*
X142317525Y-36237667D01*
X142152781Y-36184138D01*
X142152779Y-36184137D01*
X142152778Y-36184137D01*
X142021351Y-36163321D01*
X141981691Y-36157040D01*
X141808469Y-36157040D01*
X141768808Y-36163321D01*
X141637382Y-36184137D01*
X141472632Y-36237668D01*
X141318291Y-36316308D01*
X141238336Y-36374399D01*
X141178152Y-36418126D01*
X141178150Y-36418128D01*
X141178149Y-36418128D01*
X141055668Y-36540609D01*
X141055668Y-36540610D01*
X141055666Y-36540612D01*
X141011939Y-36600796D01*
X140953848Y-36680751D01*
X140875208Y-36835092D01*
X140821677Y-36999842D01*
X140794580Y-37170929D01*
X140450500Y-37170929D01*
X140450500Y-37168389D01*
X140423402Y-36997299D01*
X140369873Y-36832555D01*
X140291232Y-36678212D01*
X140189414Y-36538072D01*
X140066928Y-36415586D01*
X139926788Y-36313768D01*
X139772445Y-36235127D01*
X139607701Y-36181598D01*
X139607699Y-36181597D01*
X139607698Y-36181597D01*
X139476271Y-36160781D01*
X139436611Y-36154500D01*
X139263389Y-36154500D01*
X139223728Y-36160781D01*
X139092302Y-36181597D01*
X138927552Y-36235128D01*
X138773211Y-36313768D01*
X138693256Y-36371859D01*
X138633072Y-36415586D01*
X138633070Y-36415588D01*
X138633069Y-36415588D01*
X138510588Y-36538069D01*
X138510588Y-36538070D01*
X138510586Y-36538072D01*
X138508741Y-36540612D01*
X138408768Y-36678211D01*
X138330128Y-36832552D01*
X138276597Y-36997302D01*
X138276195Y-36999842D01*
X138249500Y-37168389D01*
X94500500Y-37168389D01*
X94500500Y-30624500D01*
X94520185Y-30557461D01*
X94572989Y-30511706D01*
X94624500Y-30500500D01*
X200375500Y-30500500D01*
X200442539Y-30520185D01*
G37*
%TD.AperFunction*%
%TD*%
D10*
%TO.P,A1,32,SCL/A5*%
%TO.N,unconnected-(A1-SCL{slash}A5-Pad32)*%
X128800000Y-132000000D03*
%TO.P,A1,31,SDA/A4*%
%TO.N,unconnected-(A1-SDA{slash}A4-Pad31)*%
X131340000Y-132000000D03*
%TO.P,A1,30,AREF*%
%TO.N,unconnected-(A1-AREF-Pad30)*%
X133880000Y-132000000D03*
%TO.P,A1,29,GND*%
%TO.N,GND*%
X136420000Y-132000000D03*
%TO.P,A1,28,D13*%
%TO.N,unconnected-(A1-D13-Pad28)*%
X138960000Y-132000000D03*
%TO.P,A1,27,D12*%
%TO.N,unconnected-(A1-D12-Pad27)*%
X141500000Y-132000000D03*
%TO.P,A1,26,D11*%
%TO.N,unconnected-(A1-D11-Pad26)*%
X144040000Y-132000000D03*
%TO.P,A1,25,D10*%
%TO.N,unconnected-(A1-D10-Pad25)*%
X146580000Y-132000000D03*
%TO.P,A1,24,D9*%
%TO.N,Net-(A1-D9)*%
X149120000Y-132000000D03*
%TO.P,A1,23,D8*%
%TO.N,unconnected-(A1-D8-Pad23)*%
X151660000Y-132000000D03*
%TO.P,A1,22,D7*%
%TO.N,unconnected-(A1-D7-Pad22)*%
X155720000Y-132000000D03*
%TO.P,A1,21,D6*%
%TO.N,unconnected-(A1-D6-Pad21)*%
X158260000Y-132000000D03*
%TO.P,A1,20,D5*%
%TO.N,unconnected-(A1-D5-Pad20)*%
X160800000Y-132000000D03*
%TO.P,A1,19,D4*%
%TO.N,unconnected-(A1-D4-Pad19)*%
X163340000Y-132000000D03*
%TO.P,A1,18,D3*%
%TO.N,unconnected-(A1-D3-Pad18)*%
X165880000Y-132000000D03*
%TO.P,A1,17,D2*%
%TO.N,unconnected-(A1-D2-Pad17)*%
X168420000Y-132000000D03*
%TO.P,A1,16,D1/TX*%
%TO.N,unconnected-(A1-D1{slash}TX-Pad16)*%
X170960000Y-132000000D03*
%TO.P,A1,15,D0/RX*%
%TO.N,unconnected-(A1-D0{slash}RX-Pad15)*%
X173500000Y-132000000D03*
%TO.P,A1,14,SCL/A5*%
%TO.N,Net-(U2-SCL)*%
X173500000Y-83740000D03*
%TO.P,A1,13,SDA/A4*%
%TO.N,Net-(U2-SDA)*%
X170960000Y-83740000D03*
%TO.P,A1,12,A3*%
%TO.N,unconnected-(A1-A3-Pad12)*%
X168420000Y-83740000D03*
%TO.P,A1,11,A2*%
%TO.N,unconnected-(A1-A2-Pad11)*%
X165880000Y-83740000D03*
%TO.P,A1,10,A1*%
%TO.N,unconnected-(A1-A1-Pad10)*%
X163340000Y-83740000D03*
%TO.P,A1,9,A0*%
%TO.N,unconnected-(A1-A0-Pad9)*%
X160800000Y-83740000D03*
%TO.P,A1,8,VIN*%
%TO.N,unconnected-(A1-VIN-Pad8)*%
X155720000Y-83740000D03*
%TO.P,A1,7,GND*%
%TO.N,Net-(M1--)*%
X153180000Y-83740000D03*
%TO.P,A1,6,GND*%
%TO.N,Net-(U2-GND)*%
X150640000Y-83740000D03*
%TO.P,A1,5,+5V*%
%TO.N,VCC*%
X148100000Y-83740000D03*
%TO.P,A1,4,3V3*%
%TO.N,unconnected-(A1-3V3-Pad4)*%
X145560000Y-83740000D03*
%TO.P,A1,3,~{RESET}*%
%TO.N,unconnected-(A1-~{RESET}-Pad3)*%
X143020000Y-83740000D03*
%TO.P,A1,2,IOREF*%
%TO.N,unconnected-(A1-IOREF-Pad2)*%
X140480000Y-83740000D03*
D11*
%TO.P,A1,1,NC*%
%TO.N,unconnected-(A1-NC-Pad1)*%
X137940000Y-83740000D03*
%TD*%
D12*
%TO.P,U1,1,VSS*%
%TO.N,unconnected-(U1-VSS-Pad1)*%
X144430000Y-37655000D03*
D13*
%TO.P,U1,2,VDD*%
%TO.N,unconnected-(U1-VDD-Pad2)*%
X146970000Y-37655000D03*
%TO.P,U1,3,VO*%
%TO.N,unconnected-(U1-VO-Pad3)*%
X149510000Y-37655000D03*
%TO.P,U1,4,RS*%
%TO.N,unconnected-(U1-RS-Pad4)*%
X152050000Y-37655000D03*
%TO.P,U1,5,R/W*%
%TO.N,unconnected-(U1-R{slash}W-Pad5)*%
X154590000Y-37655000D03*
%TO.P,U1,6,E*%
%TO.N,unconnected-(U1-E-Pad6)*%
X157130000Y-37655000D03*
%TO.P,U1,7,DB0*%
%TO.N,unconnected-(U1-DB0-Pad7)*%
X159670000Y-37655000D03*
%TO.P,U1,8,DB1*%
%TO.N,unconnected-(U1-DB1-Pad8)*%
X162210000Y-37655000D03*
%TO.P,U1,9,DB2*%
%TO.N,unconnected-(U1-DB2-Pad9)*%
X164750000Y-37655000D03*
%TO.P,U1,10,DB3*%
%TO.N,unconnected-(U1-DB3-Pad10)*%
X167290000Y-37655000D03*
%TO.P,U1,11,DB4*%
%TO.N,unconnected-(U1-DB4-Pad11)*%
X169830000Y-37655000D03*
%TO.P,U1,12,DB5*%
%TO.N,unconnected-(U1-DB5-Pad12)*%
X172370000Y-37655000D03*
%TO.P,U1,13,DB6*%
%TO.N,unconnected-(U1-DB6-Pad13)*%
X174915080Y-37657540D03*
%TO.P,U1,14,DB7*%
%TO.N,unconnected-(U1-DB7-Pad14)*%
X177450000Y-37655000D03*
%TO.P,U1,15,A/VEE*%
%TO.N,unconnected-(U1-A{slash}VEE-Pad15)*%
X139350000Y-37655000D03*
%TO.P,U1,16,K*%
%TO.N,unconnected-(U1-K-Pad16)*%
X141895080Y-37657540D03*
D14*
%TO.P,U1,A1*%
%TO.N,N/C*%
X105150000Y-61795000D03*
X105150000Y-64335000D03*
X107690000Y-61795000D03*
%TO.P,U1,K1*%
X105150000Y-54175000D03*
X105150000Y-56715000D03*
X107690000Y-56715000D03*
%TD*%
D16*
%TO.P,M1,1,PWM*%
%TO.N,Net-(A1-D9)*%
X181630000Y-95960000D03*
D17*
%TO.P,M1,2,+*%
%TO.N,unconnected-(M1-+-Pad2)*%
X184170000Y-95960000D03*
%TO.P,M1,3,-*%
%TO.N,Net-(M1--)*%
X186710000Y-95960000D03*
%TD*%
D18*
%TO.N,Net-(M1--)*%
X168500000Y-89500000D03*
X173000000Y-93000000D03*
%TD*%
D19*
%TO.N,Net-(M1--)*%
X169500000Y-89500000D02*
X168500000Y-89500000D01*
X173000000Y-93000000D02*
X169500000Y-89500000D01*
%TD*%
D20*
%TO.C,A1*%
X128800000Y-132000000D03*
X131340000Y-132000000D03*
X133880000Y-132000000D03*
X136420000Y-132000000D03*
X138960000Y-132000000D03*
X141500000Y-132000000D03*
X144040000Y-132000000D03*
X146580000Y-132000000D03*
X149120000Y-132000000D03*
X151660000Y-132000000D03*
X155720000Y-132000000D03*
X158260000Y-132000000D03*
X160800000Y-132000000D03*
X163340000Y-132000000D03*
X165880000Y-132000000D03*
X168420000Y-132000000D03*
X170960000Y-132000000D03*
X173500000Y-132000000D03*
X173500000Y-83740000D03*
X170960000Y-83740000D03*
X168420000Y-83740000D03*
X165880000Y-83740000D03*
X163340000Y-83740000D03*
X160800000Y-83740000D03*
X155720000Y-83740000D03*
X153180000Y-83740000D03*
X150640000Y-83740000D03*
X148100000Y-83740000D03*
X145560000Y-83740000D03*
X143020000Y-83740000D03*
X140480000Y-83740000D03*
D21*
X137940000Y-83740000D03*
%TD*%
D22*
%TO.C,U1*%
X106150000Y-75655000D03*
X107650000Y-39655000D03*
X183650000Y-39655000D03*
X185150000Y-75655000D03*
D23*
X144430000Y-37655000D03*
D24*
X146970000Y-37655000D03*
X149510000Y-37655000D03*
X152050000Y-37655000D03*
X154590000Y-37655000D03*
X157130000Y-37655000D03*
X159670000Y-37655000D03*
X162210000Y-37655000D03*
X164750000Y-37655000D03*
X167290000Y-37655000D03*
X169830000Y-37655000D03*
X172370000Y-37655000D03*
X174915080Y-37657540D03*
X177450000Y-37655000D03*
X139350000Y-37655000D03*
X141895080Y-37657540D03*
D25*
X105150000Y-61795000D03*
X105150000Y-64335000D03*
X107690000Y-61795000D03*
X105150000Y-54175000D03*
X105150000Y-56715000D03*
X107690000Y-56715000D03*
%TD*%
D26*
%TO.C,M1*%
X181630000Y-95960000D03*
D27*
X184170000Y-95960000D03*
X186710000Y-95960000D03*
%TD*%
D20*
%TO.C,A1*%
X128800000Y-132000000D03*
X131340000Y-132000000D03*
X133880000Y-132000000D03*
X136420000Y-132000000D03*
X138960000Y-132000000D03*
X141500000Y-132000000D03*
X144040000Y-132000000D03*
X146580000Y-132000000D03*
X149120000Y-132000000D03*
X151660000Y-132000000D03*
X155720000Y-132000000D03*
X158260000Y-132000000D03*
X160800000Y-132000000D03*
X163340000Y-132000000D03*
X165880000Y-132000000D03*
X168420000Y-132000000D03*
X170960000Y-132000000D03*
X173500000Y-132000000D03*
X173500000Y-83740000D03*
X170960000Y-83740000D03*
X168420000Y-83740000D03*
X165880000Y-83740000D03*
X163340000Y-83740000D03*
X160800000Y-83740000D03*
X155720000Y-83740000D03*
X153180000Y-83740000D03*
X150640000Y-83740000D03*
X148100000Y-83740000D03*
X145560000Y-83740000D03*
X143020000Y-83740000D03*
X140480000Y-83740000D03*
D21*
X137940000Y-83740000D03*
%TD*%
D22*
%TO.C,U1*%
X106150000Y-75655000D03*
X107650000Y-39655000D03*
X183650000Y-39655000D03*
X185150000Y-75655000D03*
D23*
X144430000Y-37655000D03*
D24*
X146970000Y-37655000D03*
X149510000Y-37655000D03*
X152050000Y-37655000D03*
X154590000Y-37655000D03*
X157130000Y-37655000D03*
X159670000Y-37655000D03*
X162210000Y-37655000D03*
X164750000Y-37655000D03*
X167290000Y-37655000D03*
X169830000Y-37655000D03*
X172370000Y-37655000D03*
X174915080Y-37657540D03*
X177450000Y-37655000D03*
X139350000Y-37655000D03*
X141895080Y-37657540D03*
D25*
X105150000Y-61795000D03*
X105150000Y-64335000D03*
X107690000Y-61795000D03*
X105150000Y-54175000D03*
X105150000Y-56715000D03*
X107690000Y-56715000D03*
%TD*%
D28*
%TO.C,U2*%
X181160000Y-82015000D03*
X181160000Y-83285000D03*
X181160000Y-84555000D03*
X181160000Y-85825000D03*
X181160000Y-87095000D03*
X181160000Y-88365000D03*
X181160000Y-89635000D03*
X181160000Y-90905000D03*
X190460000Y-90905000D03*
X190460000Y-89635000D03*
X190460000Y-88365000D03*
X190460000Y-87095000D03*
X190460000Y-85825000D03*
X190460000Y-84555000D03*
X190460000Y-83285000D03*
X190460000Y-82015000D03*
%TD*%
D26*
%TO.C,M1*%
X181630000Y-95960000D03*
D27*
X184170000Y-95960000D03*
X186710000Y-95960000D03*
%TD*%
D28*
%TO.C,U2*%
X181160000Y-82015000D03*
X181160000Y-83285000D03*
X181160000Y-84555000D03*
X181160000Y-85825000D03*
X181160000Y-87095000D03*
X181160000Y-88365000D03*
X181160000Y-89635000D03*
X181160000Y-90905000D03*
X190460000Y-90905000D03*
X190460000Y-89635000D03*
X190460000Y-88365000D03*
X190460000Y-87095000D03*
X190460000Y-85825000D03*
X190460000Y-84555000D03*
X190460000Y-83285000D03*
X190460000Y-82015000D03*
%TD*%
D29*
X138495714Y-80099104D02*
X138971904Y-80099104D01*
X138400476Y-80384819D02*
X138733809Y-79384819D01*
X138733809Y-79384819D02*
X139067142Y-80384819D01*
X139924285Y-80384819D02*
X139352857Y-80384819D01*
X139638571Y-80384819D02*
X139638571Y-79384819D01*
X139638571Y-79384819D02*
X139543333Y-79527676D01*
X139543333Y-79527676D02*
X139448095Y-79622914D01*
X139448095Y-79622914D02*
X139352857Y-79670533D01*
X105138095Y-33699819D02*
X105138095Y-34509342D01*
X105138095Y-34509342D02*
X105185714Y-34604580D01*
X105185714Y-34604580D02*
X105233333Y-34652200D01*
X105233333Y-34652200D02*
X105328571Y-34699819D01*
X105328571Y-34699819D02*
X105519047Y-34699819D01*
X105519047Y-34699819D02*
X105614285Y-34652200D01*
X105614285Y-34652200D02*
X105661904Y-34604580D01*
X105661904Y-34604580D02*
X105709523Y-34509342D01*
X105709523Y-34509342D02*
X105709523Y-33699819D01*
X106709523Y-34699819D02*
X106138095Y-34699819D01*
X106423809Y-34699819D02*
X106423809Y-33699819D01*
X106423809Y-33699819D02*
X106328571Y-33842676D01*
X106328571Y-33842676D02*
X106233333Y-33937914D01*
X106233333Y-33937914D02*
X106138095Y-33985533D01*
X190238095Y-77454819D02*
X190238095Y-78264342D01*
X190238095Y-78264342D02*
X190285714Y-78359580D01*
X190285714Y-78359580D02*
X190333333Y-78407200D01*
X190333333Y-78407200D02*
X190428571Y-78454819D01*
X190428571Y-78454819D02*
X190619047Y-78454819D01*
X190619047Y-78454819D02*
X190714285Y-78407200D01*
X190714285Y-78407200D02*
X190761904Y-78359580D01*
X190761904Y-78359580D02*
X190809523Y-78264342D01*
X190809523Y-78264342D02*
X190809523Y-77454819D01*
X191238095Y-77550057D02*
X191285714Y-77502438D01*
X191285714Y-77502438D02*
X191380952Y-77454819D01*
X191380952Y-77454819D02*
X191619047Y-77454819D01*
X191619047Y-77454819D02*
X191714285Y-77502438D01*
X191714285Y-77502438D02*
X191761904Y-77550057D01*
X191761904Y-77550057D02*
X191809523Y-77645295D01*
X191809523Y-77645295D02*
X191809523Y-77740533D01*
X191809523Y-77740533D02*
X191761904Y-77883390D01*
X191761904Y-77883390D02*
X191190476Y-78454819D01*
X191190476Y-78454819D02*
X191809523Y-78454819D01*
X183320476Y-93014819D02*
X183320476Y-92014819D01*
X183320476Y-92014819D02*
X183653809Y-92729104D01*
X183653809Y-92729104D02*
X183987142Y-92014819D01*
X183987142Y-92014819D02*
X183987142Y-93014819D01*
X184987142Y-93014819D02*
X184415714Y-93014819D01*
X184701428Y-93014819D02*
X184701428Y-92014819D01*
X184701428Y-92014819D02*
X184606190Y-92157676D01*
X184606190Y-92157676D02*
X184510952Y-92252914D01*
X184510952Y-92252914D02*
X184415714Y-92300533D01*
D30*
%TO.C,A1*%
X178710000Y-119050000D02*
X178710000Y-86280000D01*
X178710000Y-86280000D02*
X176170000Y-83740000D01*
X176170000Y-133020000D02*
X176170000Y-121590000D01*
X176170000Y-121590000D02*
X178710000Y-119050000D01*
X176170000Y-83740000D02*
X176170000Y-81070000D01*
X176170000Y-81070000D02*
X109870000Y-81070000D01*
X174520000Y-134670000D02*
X176170000Y-133020000D01*
X109870000Y-134670000D02*
X174520000Y-134670000D01*
X109870000Y-125140000D02*
X109870000Y-134670000D01*
X109870000Y-113460000D02*
X103520000Y-113460000D01*
X109870000Y-93390000D02*
X109870000Y-113460000D01*
X109870000Y-84250000D02*
X107970000Y-84250000D01*
X109870000Y-81070000D02*
X109870000Y-84250000D01*
X107970000Y-93390000D02*
X109870000Y-93390000D01*
X107970000Y-84250000D02*
X107970000Y-93390000D01*
X103520000Y-125140000D02*
X109870000Y-125140000D01*
X103520000Y-113460000D02*
X103520000Y-125140000D01*
%TO.C,U1*%
X103510000Y-35515000D02*
X187790000Y-35515000D01*
X103510000Y-74545000D02*
X103510000Y-35515000D01*
X103510000Y-74545000D02*
X105330000Y-74545000D01*
X103510000Y-76765000D02*
X105330000Y-76765000D01*
X103510000Y-79795000D02*
X103510000Y-76765000D01*
X110430000Y-46655000D02*
X181430000Y-46655000D01*
X110430000Y-71655000D02*
X110430000Y-46655000D01*
X112430000Y-66655000D02*
X112430000Y-52655000D01*
X113430000Y-51655000D02*
X177430000Y-51655000D01*
X142930000Y-35155000D02*
X145930000Y-35155000D01*
X177430000Y-67655000D02*
X113430000Y-67655000D01*
X178460000Y-52655000D02*
X178460000Y-66655000D01*
X181430000Y-46655000D02*
X181430000Y-71655000D01*
X181430000Y-71655000D02*
X110430000Y-71655000D01*
X185930000Y-76765000D02*
X187790000Y-76765000D01*
X187790000Y-35515000D02*
X187790000Y-74545000D01*
X187790000Y-74545000D02*
X185930000Y-74545000D01*
X187790000Y-76765000D02*
X187790000Y-79795000D01*
X187790000Y-79795000D02*
X103510000Y-79795000D01*
X105040000Y-76475000D02*
G75*
G02*
X105330000Y-74545000I1110000J820000D01*
G01*
X105330000Y-76765000D02*
G75*
G02*
X105040000Y-74835000I820000J1110000D01*
G01*
X112427140Y-52657460D02*
G75*
G02*
X113425360Y-51659240I998220J0D01*
G01*
X113435360Y-67678700D02*
G75*
G02*
X112434600Y-66677940I1J1000761D01*
G01*
X177465740Y-51649240D02*
G75*
G02*
X178463960Y-52647460I-40J-998260D01*
G01*
X178456500Y-66657940D02*
G75*
G02*
X177455740Y-67658700I-1000800J40D01*
G01*
X185930000Y-74545000D02*
G75*
G02*
X186270000Y-76425000I-770000J-1110000D01*
G01*
X186270000Y-74865000D02*
G75*
G02*
X185940000Y-76775000I-1120000J-790000D01*
G01*
%TO.C,U2*%
X181950000Y-81200000D02*
X181950000Y-81455000D01*
X181950000Y-91720000D02*
X181950000Y-91465000D01*
X185810000Y-81200000D02*
X181950000Y-81200000D01*
X185810000Y-81200000D02*
X189670000Y-81200000D01*
X185810000Y-91720000D02*
X181950000Y-91720000D01*
X185810000Y-91720000D02*
X189670000Y-91720000D01*
X189670000Y-81200000D02*
X189670000Y-81455000D01*
X189670000Y-91720000D02*
X189670000Y-91465000D01*
X181097500Y-81455000D02*
X180757500Y-80985000D01*
X181437500Y-80985000D01*
X181097500Y-81455000D01*
G36*
X181097500Y-81455000D02*
G01*
X180757500Y-80985000D01*
X181437500Y-80985000D01*
X181097500Y-81455000D01*
G37*
%TO.C,M1*%
X180280000Y-93310000D02*
X188080000Y-93310000D01*
X180280000Y-99360000D02*
X180280000Y-93310000D01*
X181630000Y-98250000D02*
X186710000Y-98250000D01*
X181630000Y-99260000D02*
X181630000Y-98250000D01*
X186710000Y-98250000D02*
X186710000Y-99260000D01*
X188080000Y-93310000D02*
X188080000Y-99360000D01*
X188080000Y-99360000D02*
X180280000Y-99360000D01*
%TD*%
D31*
X94000000Y-30000000D02*
X201000000Y-30000000D01*
X201000000Y-138500000D01*
X94000000Y-138500000D01*
X94000000Y-30000000D01*
M02*
